SplineFontDB: 3.0
FontName: ArchivoNarrowDevanagari-Bold
FullName: Archivo Narrow Devanagari Bold
FamilyName: Archivo Narrow Devanagari
Weight: Bold
Copyright: Copyright (c) 2012-2014, Omnibus-Type (www.omnibus-type.com omnibus.type@gmail.com) with Reserved Font Name 'Archivo'
Version: 1.004;PS 001.004;hotconv 1.0.70;makeotf.lib2.5.58329
ItalicAngle: 0
UnderlinePosition: -50
UnderlineWidth: 50
Ascent: 1638
Descent: 410
InvalidEm: 0
sfntRevision: 0x00010106
LayerCount: 2
Layer: 0 1 "Back" 1
Layer: 1 1 "Fore" 0
XUID: [1021 191 1600663927 9256062]
FSType: 8
OS2Version: 3
OS2_WeightWidthSlopeOnly: 0
OS2_UseTypoMetrics: 1
CreationTime: 1405074897
ModificationTime: 1413123407
PfmFamily: 17
TTFWeight: 700
TTFWidth: 5
LineGap: 0
VLineGap: 0
Panose: 2 11 8 6 2 2 2 2 11 4
OS2TypoAscent: 1823
OS2TypoAOffset: 0
OS2TypoDescent: -827
OS2TypoDOffset: 0
OS2TypoLinegap: 0
OS2WinAscent: 1823
OS2WinAOffset: 0
OS2WinDescent: 827
OS2WinDOffset: 0
HheadAscent: 1823
HheadAOffset: 0
HheadDescent: -827
HheadDOffset: 0
OS2SubXSize: 1331
OS2SubYSize: 1228
OS2SubXOff: 0
OS2SubYOff: 153
OS2SupXSize: 1331
OS2SupYSize: 1228
OS2SupXOff: 0
OS2SupYOff: 716
OS2StrikeYSize: 50
OS2StrikeYPos: 571
OS2CapHeight: 0
OS2XHeight: 0
OS2Vendor: 'OMNI'
OS2CodePages: 20000093.00000000
OS2UnicodeRanges: 00008007.00000000.00000000.00000000
Lookup: 1 0 0 "'aalt' Access All Alternates lookup 0" { "'aalt' Access All Alternates lookup 0 subtable"  } ['aalt' ('DFLT' <'dflt' > 'dev2' <'HIN ' 'MAR ' 'NEP ' 'dflt' > 'deva' <'HIN ' 'MAR ' 'NEP ' 'dflt' > 'grek' <'dflt' > 'latn' <'CAT ' 'MOL ' 'ROM ' 'dflt' > ) ]
Lookup: 3 0 0 "'aalt' Access All Alternates lookup 1" { "'aalt' Access All Alternates lookup 1 subtable"  } ['aalt' ('DFLT' <'dflt' > 'dev2' <'HIN ' 'MAR ' 'NEP ' 'dflt' > 'deva' <'HIN ' 'MAR ' 'NEP ' 'dflt' > 'grek' <'dflt' > 'latn' <'CAT ' 'MOL ' 'ROM ' 'dflt' > ) ]
Lookup: 4 0 0 "Ligature Substitution lookup 2" { "Ligature Substitution lookup 2 subtable"  } []

StartChar: .notdef
Encoding: 65536 -1 0
Width: 905
Flags: W
LayerCount: 2
Back
Fore
SplineSet
905 1268 m 1,0,-1
 905 0 l 1,1,-1
 0 0 l 1,2,-1
 0 1268 l 1,3,-1
 905 1268 l 1,0,-1
145 1178 m 1,4,-1
 453 715 l 1,5,-1
 760 1178 l 1,6,-1
 145 1178 l 1,4,-1
90 172 m 1,7,-1
 397 633 l 1,8,-1
 90 1096 l 1,9,-1
 90 172 l 1,7,-1
508 633 m 1,10,-1
 815 172 l 1,11,-1
 815 1096 l 1,12,-1
 508 633 l 1,10,-1
145 90 m 1,13,-1
 760 90 l 1,14,-1
 453 553 l 1,15,-1
 145 90 l 1,13,-1
EndSplineSet
EndChar

StartChar: A
Encoding: 65 65 4
Width: 1071
GlyphClass: 2
Flags: W
AnchorPoint: "Anchor-1" 0 0 basechar 0
AnchorPoint: "Anchor-0" 537 1241 basechar 0
LayerCount: 2
Back
Fore
SplineSet
758 244 m 1,0,-1
 299 244 l 1,1,-1
 225 0 l 1,2,-1
 0 0 l 1,3,-1
 399 1241 l 1,4,-1
 670 1241 l 1,5,-1
 1069 0 l 1,6,-1
 834 0 l 1,7,-1
 758 244 l 1,0,-1
511 959 m 128,-1,9
 501 902 501 902 489 866 c 2,10,-1
 362 451 l 1,11,-1
 694 451 l 1,12,-1
 569 866 l 2,13,14
 557 906 557 906 546 961.5 c 128,-1,15
 535 1017 535 1017 532 1034 c 1,16,-1
 524 1034 l 1,17,8
 521 1016 521 1016 511 959 c 128,-1,9
EndSplineSet
Substitution2: "Single Substitution lookup 36 subtable" ordfeminine
Substitution2: "'aalt' Access All Alternates lookup 0 subtable" ordfeminine
Position2: "'cpsp' Capital Spacing lookup 0 subtable" dx=5 dy=0 dh=10 dv=0
EndChar

StartChar: Aacute
Encoding: 193 193 5
Width: 1071
GlyphClass: 2
Flags: W
LayerCount: 2
Back
Fore
SplineSet
412 1360 m 1,0,-1
 567 1599 l 1,1,-1
 784 1599 l 1,2,-1
 786 1593 l 1,3,-1
 590 1360 l 1,4,-1
 412 1360 l 1,0,-1
758 244 m 1,5,-1
 299 244 l 1,6,-1
 225 0 l 1,7,-1
 0 0 l 1,8,-1
 399 1241 l 1,9,-1
 670 1241 l 1,10,-1
 1069 0 l 1,11,-1
 834 0 l 1,12,-1
 758 244 l 1,5,-1
511 959 m 128,-1,14
 501 902 501 902 489 866 c 2,15,-1
 362 451 l 1,16,-1
 694 451 l 1,17,-1
 569 866 l 2,18,19
 557 906 557 906 546 961.5 c 128,-1,20
 535 1017 535 1017 532 1034 c 1,21,-1
 524 1034 l 1,22,13
 521 1016 521 1016 511 959 c 128,-1,14
EndSplineSet
Position2: "'cpsp' Capital Spacing lookup 0 subtable" dx=5 dy=0 dh=10 dv=0
EndChar

StartChar: Abreve
Encoding: 258 258 6
Width: 1071
GlyphClass: 2
Flags: W
LayerCount: 2
Back
Fore
SplineSet
747.5 1507 m 128,-1,1
 717 1462 717 1462 661.5 1433.5 c 128,-1,2
 606 1405 606 1405 535 1405 c 0,3,4
 463 1405 463 1405 408.5 1433.5 c 128,-1,5
 354 1462 354 1462 324.5 1507 c 128,-1,6
 295 1552 295 1552 295 1599 c 1,7,-1
 430 1599 l 1,8,9
 433 1577 433 1577 463 1557.5 c 128,-1,10
 493 1538 493 1538 535 1538 c 0,11,12
 565 1538 565 1538 589.5 1547.5 c 128,-1,13
 614 1557 614 1557 628 1571.5 c 128,-1,14
 642 1586 642 1586 643 1599 c 1,15,-1
 778 1599 l 1,16,0
 778 1552 778 1552 747.5 1507 c 128,-1,1
758 244 m 1,17,-1
 299 244 l 1,18,-1
 225 0 l 1,19,-1
 0 0 l 1,20,-1
 399 1241 l 1,21,-1
 670 1241 l 1,22,-1
 1069 0 l 1,23,-1
 834 0 l 1,24,-1
 758 244 l 1,17,-1
511 959 m 128,-1,26
 501 902 501 902 489 866 c 2,27,-1
 362 451 l 1,28,-1
 694 451 l 1,29,-1
 569 866 l 2,30,31
 557 906 557 906 546 961.5 c 128,-1,32
 535 1017 535 1017 532 1034 c 1,33,-1
 524 1034 l 1,34,25
 521 1016 521 1016 511 959 c 128,-1,26
EndSplineSet
Position2: "'cpsp' Capital Spacing lookup 0 subtable" dx=5 dy=0 dh=10 dv=0
EndChar

StartChar: Acircumflex
Encoding: 194 194 7
Width: 1071
GlyphClass: 2
Flags: W
LayerCount: 2
Back
Fore
SplineSet
537 1479 m 1,0,-1
 455 1354 l 1,1,-1
 293 1354 l 1,2,-1
 449 1599 l 1,3,-1
 627 1599 l 1,4,-1
 780 1354 l 1,5,-1
 616 1354 l 1,6,-1
 537 1479 l 1,0,-1
758 244 m 1,7,-1
 299 244 l 1,8,-1
 225 0 l 1,9,-1
 0 0 l 1,10,-1
 399 1241 l 1,11,-1
 670 1241 l 1,12,-1
 1069 0 l 1,13,-1
 834 0 l 1,14,-1
 758 244 l 1,7,-1
511 959 m 128,-1,16
 501 902 501 902 489 866 c 2,17,-1
 362 451 l 1,18,-1
 694 451 l 1,19,-1
 569 866 l 2,20,21
 557 906 557 906 546 961.5 c 128,-1,22
 535 1017 535 1017 532 1034 c 1,23,-1
 524 1034 l 1,24,15
 521 1016 521 1016 511 959 c 128,-1,16
EndSplineSet
Position2: "'cpsp' Capital Spacing lookup 0 subtable" dx=5 dy=0 dh=10 dv=0
EndChar

StartChar: Adieresis
Encoding: 196 196 8
Width: 1071
GlyphClass: 2
Flags: W
LayerCount: 2
Back
Fore
SplineSet
289 1599 m 1,0,-1
 469 1599 l 1,1,-1
 469 1401 l 1,2,-1
 289 1401 l 1,3,-1
 289 1599 l 1,0,-1
602 1599 m 1,4,-1
 786 1599 l 1,5,-1
 786 1401 l 1,6,-1
 602 1401 l 1,7,-1
 602 1599 l 1,4,-1
758 244 m 1,8,-1
 299 244 l 1,9,-1
 225 0 l 1,10,-1
 0 0 l 1,11,-1
 399 1241 l 1,12,-1
 670 1241 l 1,13,-1
 1069 0 l 1,14,-1
 834 0 l 1,15,-1
 758 244 l 1,8,-1
511 959 m 128,-1,17
 501 902 501 902 489 866 c 2,18,-1
 362 451 l 1,19,-1
 694 451 l 1,20,-1
 569 866 l 2,21,22
 557 906 557 906 546 961.5 c 128,-1,23
 535 1017 535 1017 532 1034 c 1,24,-1
 524 1034 l 1,25,16
 521 1016 521 1016 511 959 c 128,-1,17
EndSplineSet
Position2: "'cpsp' Capital Spacing lookup 0 subtable" dx=5 dy=0 dh=10 dv=0
EndChar

StartChar: Agrave
Encoding: 192 192 9
Width: 1071
GlyphClass: 2
Flags: W
LayerCount: 2
Back
Fore
SplineSet
287 1593 m 1,0,-1
 289 1599 l 1,1,-1
 506 1599 l 1,2,-1
 662 1360 l 1,3,-1
 481 1360 l 1,4,-1
 287 1593 l 1,0,-1
758 244 m 1,5,-1
 299 244 l 1,6,-1
 225 0 l 1,7,-1
 0 0 l 1,8,-1
 399 1241 l 1,9,-1
 670 1241 l 1,10,-1
 1069 0 l 1,11,-1
 834 0 l 1,12,-1
 758 244 l 1,5,-1
511 959 m 128,-1,14
 501 902 501 902 489 866 c 2,15,-1
 362 451 l 1,16,-1
 694 451 l 1,17,-1
 569 866 l 2,18,19
 557 906 557 906 546 961.5 c 128,-1,20
 535 1017 535 1017 532 1034 c 1,21,-1
 524 1034 l 1,22,13
 521 1016 521 1016 511 959 c 128,-1,14
EndSplineSet
Position2: "'cpsp' Capital Spacing lookup 0 subtable" dx=5 dy=0 dh=10 dv=0
EndChar

StartChar: Amacron
Encoding: 256 256 10
Width: 1071
GlyphClass: 2
Flags: W
LayerCount: 2
Back
Fore
SplineSet
305 1532 m 1,0,-1
 768 1532 l 1,1,-1
 768 1374 l 1,2,-1
 305 1374 l 1,3,-1
 305 1532 l 1,0,-1
758 244 m 1,4,-1
 299 244 l 1,5,-1
 225 0 l 1,6,-1
 0 0 l 1,7,-1
 399 1241 l 1,8,-1
 670 1241 l 1,9,-1
 1069 0 l 1,10,-1
 834 0 l 1,11,-1
 758 244 l 1,4,-1
511 959 m 128,-1,13
 501 902 501 902 489 866 c 2,14,-1
 362 451 l 1,15,-1
 694 451 l 1,16,-1
 569 866 l 2,17,18
 557 906 557 906 546 961.5 c 128,-1,19
 535 1017 535 1017 532 1034 c 1,20,-1
 524 1034 l 1,21,12
 521 1016 521 1016 511 959 c 128,-1,13
EndSplineSet
Position2: "'cpsp' Capital Spacing lookup 0 subtable" dx=5 dy=0 dh=10 dv=0
EndChar

StartChar: Aogonek
Encoding: 260 260 11
Width: 1071
GlyphClass: 2
Flags: W
LayerCount: 2
Back
Fore
SplineSet
1137 -319 m 1,0,1
 1077 -344 1077 -344 1018 -344 c 0,2,3
 944 -344 944 -344 891 -305 c 128,-1,4
 838 -266 838 -266 838 -180 c 0,5,6
 838 -127 838 -127 855 -93 c 128,-1,7
 872 -59 872 -59 907 -16 c 0,8,9
 921 2 921 2 920 0 c 2,10,-1
 834 0 l 1,11,-1
 758 244 l 1,12,-1
 299 244 l 1,13,-1
 225 0 l 1,14,-1
 0 0 l 1,15,-1
 399 1241 l 1,16,-1
 670 1241 l 1,17,-1
 1069 0 l 1,18,19
 1050 -19 1050 -19 1033 -54 c 128,-1,20
 1016 -89 1016 -89 1016 -127 c 0,21,22
 1016 -166 1016 -166 1036 -192.5 c 128,-1,23
 1056 -219 1056 -219 1098 -219 c 2,24,-1
 1137 -219 l 1,25,-1
 1137 -319 l 1,0,1
569 866 m 2,26,27
 557 906 557 906 546 961.5 c 128,-1,28
 535 1017 535 1017 532 1034 c 1,29,-1
 524 1034 l 1,30,31
 521 1016 521 1016 511 959 c 128,-1,32
 501 902 501 902 489 866 c 2,33,-1
 362 451 l 1,34,-1
 694 451 l 1,35,-1
 569 866 l 2,26,27
EndSplineSet
Position2: "'cpsp' Capital Spacing lookup 0 subtable" dx=5 dy=0 dh=10 dv=0
EndChar

StartChar: Aring
Encoding: 197 197 12
Width: 1071
GlyphClass: 2
Flags: W
LayerCount: 2
Back
Fore
SplineSet
624 1629 m 128,-1,1
 664 1605 664 1605 687.5 1565 c 128,-1,2
 711 1525 711 1525 711 1479 c 0,3,4
 711 1431 711 1431 687.5 1391 c 128,-1,5
 664 1351 664 1351 624 1328 c 128,-1,6
 584 1305 584 1305 537 1305 c 256,7,8
 490 1305 490 1305 450 1328 c 128,-1,9
 410 1351 410 1351 386 1391 c 128,-1,10
 362 1431 362 1431 362 1479 c 0,11,12
 362 1526 362 1526 385.5 1566 c 128,-1,13
 409 1606 409 1606 449 1629.5 c 128,-1,14
 489 1653 489 1653 537 1653 c 0,15,0
 584 1653 584 1653 624 1629 c 128,-1,1
477 1538.5 m 128,-1,17
 453 1514 453 1514 453 1479 c 256,18,19
 453 1444 453 1444 477 1420.5 c 128,-1,20
 501 1397 501 1397 537 1397 c 0,21,22
 571 1397 571 1397 594.5 1420.5 c 128,-1,23
 618 1444 618 1444 618 1479 c 256,24,25
 618 1514 618 1514 594.5 1538.5 c 128,-1,26
 571 1563 571 1563 537 1563 c 0,27,16
 501 1563 501 1563 477 1538.5 c 128,-1,17
758 244 m 1,28,-1
 299 244 l 1,29,-1
 225 0 l 1,30,-1
 0 0 l 1,31,-1
 399 1241 l 1,32,-1
 670 1241 l 1,33,-1
 1069 0 l 1,34,-1
 834 0 l 1,35,-1
 758 244 l 1,28,-1
511 959 m 128,-1,37
 501 902 501 902 489 866 c 2,38,-1
 362 451 l 1,39,-1
 694 451 l 1,40,-1
 569 866 l 2,41,42
 557 906 557 906 546 961.5 c 128,-1,43
 535 1017 535 1017 532 1034 c 1,44,-1
 524 1034 l 1,45,36
 521 1016 521 1016 511 959 c 128,-1,37
EndSplineSet
Position2: "'cpsp' Capital Spacing lookup 0 subtable" dx=5 dy=0 dh=10 dv=0
EndChar

StartChar: Aringacute
Encoding: 506 506 13
Width: 1071
GlyphClass: 2
Flags: W
LayerCount: 2
Back
Fore
SplineSet
586 1733 m 1,0,-1
 803 1733 l 1,1,-1
 803 1726 l 1,2,-1
 637 1536 l 1,3,-1
 459 1536 l 1,4,-1
 586 1733 l 1,0,-1
624 1464 m 128,-1,6
 664 1441 664 1441 687.5 1402 c 128,-1,7
 711 1363 711 1363 711 1319 c 0,8,9
 711 1270 711 1270 678 1219 c 1,10,-1
 1069 0 l 1,11,-1
 834 0 l 1,12,-1
 758 244 l 1,13,-1
 299 244 l 1,14,-1
 225 0 l 1,15,-1
 0 0 l 1,16,-1
 393 1221 l 1,17,18
 362 1261 362 1261 362 1319 c 0,19,20
 362 1364 362 1364 385.5 1403 c 128,-1,21
 409 1442 409 1442 449 1464.5 c 128,-1,22
 489 1487 489 1487 537 1487 c 0,23,5
 584 1487 584 1487 624 1464 c 128,-1,6
477 1375 m 128,-1,25
 453 1353 453 1353 453 1319 c 0,26,27
 453 1284 453 1284 477 1260.5 c 128,-1,28
 501 1237 501 1237 537 1237 c 0,29,30
 571 1237 571 1237 594.5 1260.5 c 128,-1,31
 618 1284 618 1284 618 1319 c 0,32,33
 618 1352 618 1352 594.5 1374.5 c 128,-1,34
 571 1397 571 1397 537 1397 c 0,35,24
 501 1397 501 1397 477 1375 c 128,-1,25
511 959 m 128,-1,37
 501 902 501 902 489 866 c 2,38,-1
 362 451 l 1,39,-1
 694 451 l 1,40,-1
 569 866 l 2,41,42
 557 906 557 906 546 961.5 c 128,-1,43
 535 1017 535 1017 532 1034 c 1,44,-1
 524 1034 l 1,45,36
 521 1016 521 1016 511 959 c 128,-1,37
EndSplineSet
Position2: "'cpsp' Capital Spacing lookup 0 subtable" dx=5 dy=0 dh=10 dv=0
EndChar

StartChar: Atilde
Encoding: 195 195 14
Width: 1071
GlyphClass: 2
Flags: W
LayerCount: 2
Back
Fore
SplineSet
821 1494.5 m 128,-1,1
 802 1444 802 1444 761.5 1411 c 128,-1,2
 721 1378 721 1378 662 1378 c 0,3,4
 632 1378 632 1378 603.5 1387 c 128,-1,5
 575 1396 575 1396 537 1412 c 0,6,7
 498 1428 498 1428 473.5 1436 c 128,-1,8
 449 1444 449 1444 422 1444 c 0,9,10
 391 1444 391 1444 373.5 1428.5 c 128,-1,11
 356 1413 356 1413 350 1378 c 1,12,-1
 231 1378 l 1,13,14
 231 1431 231 1431 250 1482 c 128,-1,15
 269 1533 269 1533 309.5 1566 c 128,-1,16
 350 1599 350 1599 410 1599 c 0,17,18
 440 1599 440 1599 467.5 1590 c 128,-1,19
 495 1581 495 1581 535 1564 c 0,20,21
 574 1548 574 1548 598.5 1540 c 128,-1,22
 623 1532 623 1532 649 1532 c 0,23,24
 680 1532 680 1532 697.5 1547 c 128,-1,25
 715 1562 715 1562 721 1599 c 1,26,-1
 840 1599 l 1,27,0
 840 1545 840 1545 821 1494.5 c 128,-1,1
758 244 m 1,28,-1
 299 244 l 1,29,-1
 225 0 l 1,30,-1
 0 0 l 1,31,-1
 399 1241 l 1,32,-1
 670 1241 l 1,33,-1
 1069 0 l 1,34,-1
 834 0 l 1,35,-1
 758 244 l 1,28,-1
511 959 m 128,-1,37
 501 902 501 902 489 866 c 2,38,-1
 362 451 l 1,39,-1
 694 451 l 1,40,-1
 569 866 l 2,41,42
 557 906 557 906 546 961.5 c 128,-1,43
 535 1017 535 1017 532 1034 c 1,44,-1
 524 1034 l 1,45,36
 521 1016 521 1016 511 959 c 128,-1,37
EndSplineSet
Position2: "'cpsp' Capital Spacing lookup 0 subtable" dx=5 dy=0 dh=10 dv=0
EndChar

StartChar: AE
Encoding: 198 198 15
Width: 1485
GlyphClass: 2
Flags: W
AnchorPoint: "Anchor-1" 0 0 basechar 0
AnchorPoint: "Anchor-0" 741 1241 basechar 0
LayerCount: 2
Back
Fore
SplineSet
866 739 m 1,0,-1
 1317 739 l 1,1,-1
 1317 532 l 1,2,-1
 915 532 l 1,3,-1
 995 207 l 1,4,-1
 1407 207 l 1,5,-1
 1407 0 l 1,6,-1
 809 0 l 1,7,-1
 750 244 l 1,8,-1
 291 244 l 1,9,-1
 201 0 l 1,10,-1
 -14 0 l 1,11,-1
 461 1241 l 1,12,-1
 1397 1241 l 1,13,-1
 1397 1036 l 1,14,-1
 793 1036 l 1,15,-1
 866 739 l 1,0,-1
554 956 m 0,17,18
 547 936 547 936 541 922 c 2,19,-1
 367 451 l 1,20,-1
 700 451 l 1,21,-1
 590 922 l 2,22,23
 584 954 584 954 573 989 c 1,24,-1
 567 989 l 1,25,16
 562 978 562 978 554 956 c 0,17,18
EndSplineSet
Position2: "'cpsp' Capital Spacing lookup 0 subtable" dx=5 dy=0 dh=10 dv=0
EndChar

StartChar: AEacute
Encoding: 508 508 16
Width: 1485
GlyphClass: 2
Flags: W
LayerCount: 2
Back
Fore
SplineSet
616 1360 m 1,0,-1
 772 1599 l 1,1,-1
 991 1599 l 1,2,-1
 991 1593 l 1,3,-1
 797 1360 l 1,4,-1
 616 1360 l 1,0,-1
866 739 m 1,5,-1
 1317 739 l 1,6,-1
 1317 532 l 1,7,-1
 915 532 l 1,8,-1
 995 207 l 1,9,-1
 1407 207 l 1,10,-1
 1407 0 l 1,11,-1
 809 0 l 1,12,-1
 750 244 l 1,13,-1
 291 244 l 1,14,-1
 201 0 l 1,15,-1
 -14 0 l 1,16,-1
 461 1241 l 1,17,-1
 1397 1241 l 1,18,-1
 1397 1036 l 1,19,-1
 793 1036 l 1,20,-1
 866 739 l 1,5,-1
543 923 m 2,22,-1
 535 899 l 1,23,-1
 367 451 l 1,24,-1
 700 451 l 1,25,-1
 594 905 l 2,26,27
 588 923 588 923 585 943 c 0,28,29
 583 951 583 951 579.5 965 c 128,-1,30
 576 979 576 979 573 989 c 1,31,-1
 567 989 l 1,32,21
 555 962 555 962 543 923 c 2,22,-1
EndSplineSet
Position2: "'cpsp' Capital Spacing lookup 0 subtable" dx=5 dy=0 dh=10 dv=0
EndChar

StartChar: B
Encoding: 66 66 17
Width: 1071
GlyphClass: 2
Flags: W
LayerCount: 2
Back
Fore
SplineSet
816 1202 m 128,-1,1
 893 1163 893 1163 936.5 1093.5 c 128,-1,2
 980 1024 980 1024 980 934 c 0,3,4
 980 831 980 831 927 756.5 c 128,-1,5
 874 682 874 682 790 651 c 1,6,-1
 790 645 l 1,7,8
 852 625 852 625 901.5 581.5 c 128,-1,9
 951 538 951 538 980 474.5 c 128,-1,10
 1009 411 1009 411 1009 334 c 0,11,12
 1009 233 1009 233 959.5 157 c 128,-1,13
 910 81 910 81 826 40.5 c 128,-1,14
 742 0 742 0 642 0 c 2,15,-1
 108 0 l 1,16,-1
 108 1241 l 1,17,-1
 642 1241 l 2,18,0
 739 1241 739 1241 816 1202 c 128,-1,1
700 782.5 m 128,-1,20
 742 826 742 826 742 893 c 0,21,22
 742 962 742 962 701 999 c 128,-1,23
 660 1036 660 1036 589 1036 c 2,24,-1
 339 1036 l 1,25,-1
 339 739 l 1,26,-1
 579 739 l 2,27,19
 658 739 658 739 700 782.5 c 128,-1,20
724.5 247.5 m 128,-1,29
 771 288 771 288 771 362 c 0,30,31
 771 439 771 439 725.5 487 c 128,-1,32
 680 535 680 535 593 535 c 2,33,-1
 339 535 l 1,34,-1
 339 207 l 1,35,-1
 603 207 l 2,36,28
 678 207 678 207 724.5 247.5 c 128,-1,29
EndSplineSet
Position2: "'cpsp' Capital Spacing lookup 0 subtable" dx=5 dy=0 dh=10 dv=0
EndChar

StartChar: C
Encoding: 67 67 18
Width: 1071
GlyphClass: 2
Flags: W
AnchorPoint: "Anchor-1" 537 0 basechar 0
AnchorPoint: "Anchor-0" 537 1241 basechar 0
LayerCount: 2
Back
Fore
SplineSet
791 1212 m 128,-1,1
 894 1160 894 1160 952.5 1051.5 c 128,-1,2
 1011 943 1011 943 1011 780 c 1,3,-1
 773 780 l 1,4,5
 773 921 773 921 714.5 993 c 128,-1,6
 656 1065 656 1065 554 1065 c 0,7,8
 428 1065 428 1065 364 960.5 c 128,-1,9
 300 856 300 856 300 666 c 2,10,-1
 300 575 l 2,11,12
 300 385 300 385 365.5 281.5 c 128,-1,13
 431 178 431 178 562 178 c 0,14,15
 665 178 665 178 725 249.5 c 128,-1,16
 785 321 785 321 785 461 c 1,17,-1
 1011 461 l 1,18,19
 1011 302 1011 302 953 193 c 128,-1,20
 895 84 895 84 792 30.5 c 128,-1,21
 689 -23 689 -23 554 -23 c 0,22,23
 316 -23 316 -23 188 137.5 c 128,-1,24
 60 298 60 298 60 621 c 0,25,26
 60 943 60 943 188 1103.5 c 128,-1,27
 316 1264 316 1264 554 1264 c 0,28,0
 688 1264 688 1264 791 1212 c 128,-1,1
EndSplineSet
Position2: "'cpsp' Capital Spacing lookup 0 subtable" dx=5 dy=0 dh=10 dv=0
EndChar

StartChar: Cacute
Encoding: 262 262 19
Width: 1071
GlyphClass: 2
Flags: W
LayerCount: 2
Back
Fore
SplineSet
429 1360 m 1,0,-1
 585 1599 l 1,1,-1
 802 1599 l 1,2,-1
 804 1593 l 1,3,-1
 609 1360 l 1,4,-1
 429 1360 l 1,0,-1
791 1212 m 128,-1,6
 894 1160 894 1160 952.5 1051.5 c 128,-1,7
 1011 943 1011 943 1011 780 c 1,8,-1
 773 780 l 1,9,10
 773 921 773 921 714.5 993 c 128,-1,11
 656 1065 656 1065 554 1065 c 0,12,13
 428 1065 428 1065 364 960.5 c 128,-1,14
 300 856 300 856 300 666 c 2,15,-1
 300 575 l 2,16,17
 300 385 300 385 365.5 281.5 c 128,-1,18
 431 178 431 178 562 178 c 0,19,20
 665 178 665 178 725 249.5 c 128,-1,21
 785 321 785 321 785 461 c 1,22,-1
 1011 461 l 1,23,24
 1011 302 1011 302 953 193 c 128,-1,25
 895 84 895 84 792 30.5 c 128,-1,26
 689 -23 689 -23 554 -23 c 0,27,28
 316 -23 316 -23 188 137.5 c 128,-1,29
 60 298 60 298 60 621 c 0,30,31
 60 943 60 943 188 1103.5 c 128,-1,32
 316 1264 316 1264 554 1264 c 0,33,5
 688 1264 688 1264 791 1212 c 128,-1,6
EndSplineSet
Position2: "'cpsp' Capital Spacing lookup 0 subtable" dx=5 dy=0 dh=10 dv=0
EndChar

StartChar: Ccaron
Encoding: 268 268 20
Width: 1071
GlyphClass: 2
Flags: W
LayerCount: 2
Back
Fore
SplineSet
474 1599 m 1,0,-1
 554 1475 l 1,1,-1
 636 1599 l 1,2,-1
 798 1599 l 1,3,-1
 644 1354 l 1,4,-1
 466 1354 l 1,5,-1
 310 1599 l 1,6,-1
 474 1599 l 1,0,-1
791 1212 m 128,-1,8
 894 1160 894 1160 952.5 1051.5 c 128,-1,9
 1011 943 1011 943 1011 780 c 1,10,-1
 773 780 l 1,11,12
 773 921 773 921 714.5 993 c 128,-1,13
 656 1065 656 1065 554 1065 c 0,14,15
 428 1065 428 1065 364 960.5 c 128,-1,16
 300 856 300 856 300 666 c 2,17,-1
 300 575 l 2,18,19
 300 385 300 385 365.5 281.5 c 128,-1,20
 431 178 431 178 562 178 c 0,21,22
 665 178 665 178 725 249.5 c 128,-1,23
 785 321 785 321 785 461 c 1,24,-1
 1011 461 l 1,25,26
 1011 302 1011 302 953 193 c 128,-1,27
 895 84 895 84 792 30.5 c 128,-1,28
 689 -23 689 -23 554 -23 c 0,29,30
 316 -23 316 -23 188 137.5 c 128,-1,31
 60 298 60 298 60 621 c 0,32,33
 60 943 60 943 188 1103.5 c 128,-1,34
 316 1264 316 1264 554 1264 c 0,35,7
 688 1264 688 1264 791 1212 c 128,-1,8
EndSplineSet
Position2: "'cpsp' Capital Spacing lookup 0 subtable" dx=5 dy=0 dh=10 dv=0
EndChar

StartChar: Ccedilla
Encoding: 199 199 21
Width: 1071
GlyphClass: 2
Flags: W
LayerCount: 2
Back
Fore
SplineSet
791 1212 m 128,-1,1
 894 1160 894 1160 952.5 1051.5 c 128,-1,2
 1011 943 1011 943 1011 780 c 1,3,-1
 773 780 l 1,4,5
 773 921 773 921 714.5 993 c 128,-1,6
 656 1065 656 1065 554 1065 c 0,7,8
 428 1065 428 1065 364 960.5 c 128,-1,9
 300 856 300 856 300 666 c 2,10,-1
 300 575 l 2,11,12
 300 385 300 385 365.5 281.5 c 128,-1,13
 431 178 431 178 562 178 c 0,14,15
 665 178 665 178 725 249.5 c 128,-1,16
 785 321 785 321 785 461 c 1,17,-1
 1011 461 l 1,18,19
 1011 311 1011 311 958.5 205.5 c 128,-1,20
 906 100 906 100 813 44 c 128,-1,21
 720 -12 720 -12 597 -20 c 1,22,-1
 593 -59 l 1,23,24
 657 -65 657 -65 696.5 -94.5 c 128,-1,25
 736 -124 736 -124 736 -182 c 0,26,27
 736 -264 736 -264 675 -297 c 128,-1,28
 614 -330 614 -330 538 -330 c 0,29,30
 458 -330 458 -330 386 -315 c 1,31,-1
 386 -227 l 1,32,-1
 515 -227 l 2,33,34
 547 -227 547 -227 564 -217 c 128,-1,35
 581 -207 581 -207 581 -182 c 0,36,37
 581 -160 581 -160 567 -149.5 c 128,-1,38
 553 -139 553 -139 519 -139 c 2,39,-1
 460 -139 l 1,40,-1
 474 -16 l 1,41,42
 273 8 273 8 166.5 167 c 128,-1,43
 60 326 60 326 60 621 c 0,44,45
 60 943 60 943 188 1103.5 c 128,-1,46
 316 1264 316 1264 554 1264 c 0,47,0
 688 1264 688 1264 791 1212 c 128,-1,1
EndSplineSet
Position2: "'cpsp' Capital Spacing lookup 0 subtable" dx=5 dy=0 dh=10 dv=0
EndChar

StartChar: Ccircumflex
Encoding: 264 264 22
Width: 1071
GlyphClass: 2
Flags: W
LayerCount: 2
Back
Fore
SplineSet
474 1354 m 1,0,-1
 310 1354 l 1,1,-1
 466 1599 l 1,2,-1
 644 1599 l 1,3,-1
 798 1354 l 1,4,-1
 636 1354 l 1,5,-1
 554 1479 l 1,6,-1
 474 1354 l 1,0,-1
791 1212 m 128,-1,8
 894 1160 894 1160 952.5 1051.5 c 128,-1,9
 1011 943 1011 943 1011 780 c 1,10,-1
 773 780 l 1,11,12
 773 921 773 921 714.5 993 c 128,-1,13
 656 1065 656 1065 554 1065 c 0,14,15
 428 1065 428 1065 364 960.5 c 128,-1,16
 300 856 300 856 300 666 c 2,17,-1
 300 575 l 2,18,19
 300 385 300 385 365.5 281.5 c 128,-1,20
 431 178 431 178 562 178 c 0,21,22
 665 178 665 178 725 249.5 c 128,-1,23
 785 321 785 321 785 461 c 1,24,-1
 1011 461 l 1,25,26
 1011 302 1011 302 953 193 c 128,-1,27
 895 84 895 84 792 30.5 c 128,-1,28
 689 -23 689 -23 554 -23 c 0,29,30
 316 -23 316 -23 188 137.5 c 128,-1,31
 60 298 60 298 60 621 c 0,32,33
 60 943 60 943 188 1103.5 c 128,-1,34
 316 1264 316 1264 554 1264 c 0,35,7
 688 1264 688 1264 791 1212 c 128,-1,8
EndSplineSet
Position2: "'cpsp' Capital Spacing lookup 0 subtable" dx=5 dy=0 dh=10 dv=0
EndChar

StartChar: Cdotaccent
Encoding: 266 266 23
Width: 1071
GlyphClass: 2
Flags: W
LayerCount: 2
Back
Fore
SplineSet
650 1599 m 1,0,-1
 650 1391 l 1,1,-1
 458 1391 l 1,2,-1
 458 1599 l 1,3,-1
 650 1599 l 1,0,-1
791 1212 m 128,-1,5
 894 1160 894 1160 952.5 1051.5 c 128,-1,6
 1011 943 1011 943 1011 780 c 1,7,-1
 773 780 l 1,8,9
 773 921 773 921 714.5 993 c 128,-1,10
 656 1065 656 1065 554 1065 c 0,11,12
 428 1065 428 1065 364 960.5 c 128,-1,13
 300 856 300 856 300 666 c 2,14,-1
 300 575 l 2,15,16
 300 385 300 385 365.5 281.5 c 128,-1,17
 431 178 431 178 562 178 c 0,18,19
 665 178 665 178 725 249.5 c 128,-1,20
 785 321 785 321 785 461 c 1,21,-1
 1011 461 l 1,22,23
 1011 302 1011 302 953 193 c 128,-1,24
 895 84 895 84 792 30.5 c 128,-1,25
 689 -23 689 -23 554 -23 c 0,26,27
 316 -23 316 -23 188 137.5 c 128,-1,28
 60 298 60 298 60 621 c 0,29,30
 60 943 60 943 188 1103.5 c 128,-1,31
 316 1264 316 1264 554 1264 c 0,32,4
 688 1264 688 1264 791 1212 c 128,-1,5
EndSplineSet
Position2: "'cpsp' Capital Spacing lookup 0 subtable" dx=5 dy=0 dh=10 dv=0
EndChar

StartChar: D
Encoding: 68 68 24
Width: 1071
GlyphClass: 2
Flags: W
AnchorPoint: "Anchor-1" 0 0 basechar 0
AnchorPoint: "Anchor-0" 537 1241 basechar 0
LayerCount: 2
Back
Fore
SplineSet
778.5 1173 m 128,-1,1
 890 1105 890 1105 949.5 970.5 c 128,-1,2
 1009 836 1009 836 1009 639 c 0,3,4
 1009 429 1009 429 949.5 286 c 128,-1,5
 890 143 890 143 778.5 71.5 c 128,-1,6
 667 0 667 0 511 0 c 2,7,-1
 108 0 l 1,8,-1
 108 1241 l 1,9,-1
 511 1241 l 2,10,0
 667 1241 667 1241 778.5 1173 c 128,-1,1
697 305.5 m 128,-1,12
 771 404 771 404 771 594 c 2,13,-1
 771 684 l 2,14,15
 771 856 771 856 697 946 c 128,-1,16
 623 1036 623 1036 491 1036 c 2,17,-1
 339 1036 l 1,18,-1
 339 207 l 1,19,-1
 491 207 l 2,20,11
 623 207 623 207 697 305.5 c 128,-1,12
EndSplineSet
Position2: "'cpsp' Capital Spacing lookup 0 subtable" dx=5 dy=0 dh=10 dv=0
EndChar

StartChar: Eth
Encoding: 208 208 25
Width: 1071
GlyphClass: 2
Flags: W
LayerCount: 2
Back
Fore
SplineSet
511 1241 m 2,0,1
 667 1241 667 1241 778.5 1173 c 128,-1,2
 890 1105 890 1105 949.5 970.5 c 128,-1,3
 1009 836 1009 836 1009 639 c 0,4,5
 1009 429 1009 429 949.5 286 c 128,-1,6
 890 143 890 143 778.5 71.5 c 128,-1,7
 667 0 667 0 511 0 c 2,8,-1
 108 0 l 1,9,-1
 108 565 l 1,10,-1
 17 565 l 1,11,-1
 17 719 l 1,12,-1
 108 719 l 1,13,-1
 108 1241 l 1,14,-1
 511 1241 l 2,0,1
566 565 m 1,15,-1
 339 565 l 1,16,-1
 339 207 l 1,17,-1
 491 207 l 2,18,19
 623 207 623 207 697 305.5 c 128,-1,20
 771 404 771 404 771 594 c 2,21,-1
 771 684 l 2,22,23
 771 856 771 856 697 946 c 128,-1,24
 623 1036 623 1036 491 1036 c 2,25,-1
 339 1036 l 1,26,-1
 339 719 l 1,27,-1
 566 719 l 1,28,-1
 566 565 l 1,15,-1
EndSplineSet
Position2: "'cpsp' Capital Spacing lookup 0 subtable" dx=5 dy=0 dh=10 dv=0
EndChar

StartChar: Dcaron
Encoding: 270 270 26
Width: 1071
GlyphClass: 2
Flags: W
LayerCount: 2
Back
Fore
SplineSet
378 1599 m 1,0,-1
 460 1475 l 1,1,-1
 538 1599 l 1,2,-1
 701 1599 l 1,3,-1
 548 1354 l 1,4,-1
 370 1354 l 1,5,-1
 214 1599 l 1,6,-1
 378 1599 l 1,0,-1
778.5 1173 m 128,-1,8
 890 1105 890 1105 949.5 970.5 c 128,-1,9
 1009 836 1009 836 1009 639 c 0,10,11
 1009 429 1009 429 949.5 286 c 128,-1,12
 890 143 890 143 778.5 71.5 c 128,-1,13
 667 0 667 0 511 0 c 2,14,-1
 108 0 l 1,15,-1
 108 1241 l 1,16,-1
 511 1241 l 2,17,7
 667 1241 667 1241 778.5 1173 c 128,-1,8
697 305.5 m 128,-1,19
 771 404 771 404 771 594 c 2,20,-1
 771 684 l 2,21,22
 771 856 771 856 697 946 c 128,-1,23
 623 1036 623 1036 491 1036 c 2,24,-1
 339 1036 l 1,25,-1
 339 207 l 1,26,-1
 491 207 l 2,27,18
 623 207 623 207 697 305.5 c 128,-1,19
EndSplineSet
Position2: "'cpsp' Capital Spacing lookup 0 subtable" dx=5 dy=0 dh=10 dv=0
EndChar

StartChar: Dcroat
Encoding: 272 272 27
Width: 1071
GlyphClass: 2
Flags: W
LayerCount: 2
Back
Fore
SplineSet
511 1241 m 2,0,1
 667 1241 667 1241 778.5 1173 c 128,-1,2
 890 1105 890 1105 949.5 970.5 c 128,-1,3
 1009 836 1009 836 1009 639 c 0,4,5
 1009 429 1009 429 949.5 286 c 128,-1,6
 890 143 890 143 778.5 71.5 c 128,-1,7
 667 0 667 0 511 0 c 2,8,-1
 108 0 l 1,9,-1
 108 565 l 1,10,-1
 17 565 l 1,11,-1
 17 719 l 1,12,-1
 108 719 l 1,13,-1
 108 1241 l 1,14,-1
 511 1241 l 2,0,1
566 565 m 1,15,-1
 339 565 l 1,16,-1
 339 207 l 1,17,-1
 491 207 l 2,18,19
 623 207 623 207 697 305.5 c 128,-1,20
 771 404 771 404 771 594 c 2,21,-1
 771 684 l 2,22,23
 771 856 771 856 697 946 c 128,-1,24
 623 1036 623 1036 491 1036 c 2,25,-1
 339 1036 l 1,26,-1
 339 719 l 1,27,-1
 566 719 l 1,28,-1
 566 565 l 1,15,-1
EndSplineSet
Position2: "'cpsp' Capital Spacing lookup 0 subtable" dx=5 dy=0 dh=10 dv=0
EndChar

StartChar: E
Encoding: 69 69 28
Width: 991
GlyphClass: 2
Flags: W
AnchorPoint: "Anchor-1" 496 0 basechar 0
AnchorPoint: "Anchor-0" 496 1241 basechar 0
LayerCount: 2
Back
Fore
SplineSet
898 1036 m 1,0,-1
 339 1036 l 1,1,-1
 339 739 l 1,2,-1
 818 739 l 1,3,-1
 818 532 l 1,4,-1
 339 532 l 1,5,-1
 339 207 l 1,6,-1
 910 207 l 1,7,-1
 910 0 l 1,8,-1
 108 0 l 1,9,-1
 108 1241 l 1,10,-1
 898 1241 l 1,11,-1
 898 1036 l 1,0,-1
EndSplineSet
Position2: "'cpsp' Capital Spacing lookup 0 subtable" dx=5 dy=0 dh=10 dv=0
EndChar

StartChar: Eacute
Encoding: 201 201 29
Width: 991
GlyphClass: 2
Flags: W
LayerCount: 2
Back
Fore
SplineSet
370 1360 m 1,0,-1
 525 1599 l 1,1,-1
 742 1599 l 1,2,-1
 744 1593 l 1,3,-1
 550 1360 l 1,4,-1
 370 1360 l 1,0,-1
339 739 m 1,5,-1
 818 739 l 1,6,-1
 818 532 l 1,7,-1
 339 532 l 1,8,-1
 339 207 l 1,9,-1
 910 207 l 1,10,-1
 910 0 l 1,11,-1
 108 0 l 1,12,-1
 108 1241 l 1,13,-1
 898 1241 l 1,14,-1
 898 1036 l 1,15,-1
 339 1036 l 1,16,-1
 339 739 l 1,5,-1
EndSplineSet
Position2: "'cpsp' Capital Spacing lookup 0 subtable" dx=5 dy=0 dh=10 dv=0
EndChar

StartChar: Ebreve
Encoding: 276 276 30
Width: 991
GlyphClass: 2
Flags: W
LayerCount: 2
Back
Fore
SplineSet
706 1507 m 128,-1,1
 676 1462 676 1462 620.5 1433.5 c 128,-1,2
 565 1405 565 1405 493 1405 c 0,3,4
 422 1405 422 1405 367.5 1433.5 c 128,-1,5
 313 1462 313 1462 283 1507 c 128,-1,6
 253 1552 253 1552 253 1599 c 1,7,-1
 386 1599 l 1,8,9
 391 1577 391 1577 421 1557.5 c 128,-1,10
 451 1538 451 1538 493 1538 c 0,11,12
 522 1538 522 1538 546.5 1547.5 c 128,-1,13
 571 1557 571 1557 585.5 1571.5 c 128,-1,14
 600 1586 600 1586 601 1599 c 1,15,-1
 736 1599 l 1,16,0
 736 1552 736 1552 706 1507 c 128,-1,1
898 1036 m 1,17,-1
 339 1036 l 1,18,-1
 339 739 l 1,19,-1
 818 739 l 1,20,-1
 818 532 l 1,21,-1
 339 532 l 1,22,-1
 339 207 l 1,23,-1
 910 207 l 1,24,-1
 910 0 l 1,25,-1
 108 0 l 1,26,-1
 108 1241 l 1,27,-1
 898 1241 l 1,28,-1
 898 1036 l 1,17,-1
EndSplineSet
Position2: "'cpsp' Capital Spacing lookup 0 subtable" dx=5 dy=0 dh=10 dv=0
EndChar

StartChar: Ecaron
Encoding: 282 282 31
Width: 991
GlyphClass: 2
Flags: W
LayerCount: 2
Back
Fore
SplineSet
413 1599 m 1,0,-1
 495 1475 l 1,1,-1
 574 1599 l 1,2,-1
 738 1599 l 1,3,-1
 585 1354 l 1,4,-1
 407 1354 l 1,5,-1
 251 1599 l 1,6,-1
 413 1599 l 1,0,-1
898 1036 m 1,7,-1
 339 1036 l 1,8,-1
 339 739 l 1,9,-1
 818 739 l 1,10,-1
 818 532 l 1,11,-1
 339 532 l 1,12,-1
 339 207 l 1,13,-1
 910 207 l 1,14,-1
 910 0 l 1,15,-1
 108 0 l 1,16,-1
 108 1241 l 1,17,-1
 898 1241 l 1,18,-1
 898 1036 l 1,7,-1
EndSplineSet
Position2: "'cpsp' Capital Spacing lookup 0 subtable" dx=5 dy=0 dh=10 dv=0
EndChar

StartChar: Ecircumflex
Encoding: 202 202 32
Width: 991
GlyphClass: 2
Flags: W
LayerCount: 2
Back
Fore
SplineSet
413 1354 m 1,0,-1
 251 1354 l 1,1,-1
 407 1599 l 1,2,-1
 585 1599 l 1,3,-1
 738 1354 l 1,4,-1
 574 1354 l 1,5,-1
 495 1479 l 1,6,-1
 413 1354 l 1,0,-1
898 1036 m 1,7,-1
 339 1036 l 1,8,-1
 339 739 l 1,9,-1
 818 739 l 1,10,-1
 818 532 l 1,11,-1
 339 532 l 1,12,-1
 339 207 l 1,13,-1
 910 207 l 1,14,-1
 910 0 l 1,15,-1
 108 0 l 1,16,-1
 108 1241 l 1,17,-1
 898 1241 l 1,18,-1
 898 1036 l 1,7,-1
EndSplineSet
Position2: "'cpsp' Capital Spacing lookup 0 subtable" dx=5 dy=0 dh=10 dv=0
EndChar

StartChar: Edieresis
Encoding: 203 203 33
Width: 991
GlyphClass: 2
Flags: W
LayerCount: 2
Back
Fore
SplineSet
245 1599 m 1,0,-1
 427 1599 l 1,1,-1
 427 1401 l 1,2,-1
 245 1401 l 1,3,-1
 245 1599 l 1,0,-1
562 1599 m 1,4,-1
 742 1599 l 1,5,-1
 742 1401 l 1,6,-1
 562 1401 l 1,7,-1
 562 1599 l 1,4,-1
339 739 m 1,8,-1
 818 739 l 1,9,-1
 818 532 l 1,10,-1
 339 532 l 1,11,-1
 339 207 l 1,12,-1
 910 207 l 1,13,-1
 910 0 l 1,14,-1
 108 0 l 1,15,-1
 108 1241 l 1,16,-1
 898 1241 l 1,17,-1
 898 1036 l 1,18,-1
 339 1036 l 1,19,-1
 339 739 l 1,8,-1
EndSplineSet
Position2: "'cpsp' Capital Spacing lookup 0 subtable" dx=5 dy=0 dh=10 dv=0
EndChar

StartChar: Edotaccent
Encoding: 278 278 34
Width: 991
GlyphClass: 2
Flags: W
LayerCount: 2
Back
Fore
SplineSet
591 1599 m 1,0,-1
 591 1391 l 1,1,-1
 396 1391 l 1,2,-1
 396 1599 l 1,3,-1
 591 1599 l 1,0,-1
898 1036 m 1,4,-1
 339 1036 l 1,5,-1
 339 739 l 1,6,-1
 818 739 l 1,7,-1
 818 532 l 1,8,-1
 339 532 l 1,9,-1
 339 207 l 1,10,-1
 910 207 l 1,11,-1
 910 0 l 1,12,-1
 108 0 l 1,13,-1
 108 1241 l 1,14,-1
 898 1241 l 1,15,-1
 898 1036 l 1,4,-1
EndSplineSet
Position2: "'cpsp' Capital Spacing lookup 0 subtable" dx=5 dy=0 dh=10 dv=0
EndChar

StartChar: Egrave
Encoding: 200 200 35
Width: 991
GlyphClass: 2
Flags: W
LayerCount: 2
Back
Fore
SplineSet
243 1593 m 1,0,-1
 245 1599 l 1,1,-1
 462 1599 l 1,2,-1
 617 1360 l 1,3,-1
 439 1360 l 1,4,-1
 243 1593 l 1,0,-1
339 739 m 1,5,-1
 818 739 l 1,6,-1
 818 532 l 1,7,-1
 339 532 l 1,8,-1
 339 207 l 1,9,-1
 910 207 l 1,10,-1
 910 0 l 1,11,-1
 108 0 l 1,12,-1
 108 1241 l 1,13,-1
 898 1241 l 1,14,-1
 898 1036 l 1,15,-1
 339 1036 l 1,16,-1
 339 739 l 1,5,-1
EndSplineSet
Position2: "'cpsp' Capital Spacing lookup 0 subtable" dx=5 dy=0 dh=10 dv=0
EndChar

StartChar: Emacron
Encoding: 274 274 36
Width: 991
GlyphClass: 2
Flags: W
LayerCount: 2
Back
Fore
SplineSet
724 1532 m 1,0,-1
 724 1374 l 1,1,-1
 263 1374 l 1,2,-1
 263 1532 l 1,3,-1
 724 1532 l 1,0,-1
898 1036 m 1,4,-1
 339 1036 l 1,5,-1
 339 739 l 1,6,-1
 818 739 l 1,7,-1
 818 532 l 1,8,-1
 339 532 l 1,9,-1
 339 207 l 1,10,-1
 910 207 l 1,11,-1
 910 0 l 1,12,-1
 108 0 l 1,13,-1
 108 1241 l 1,14,-1
 898 1241 l 1,15,-1
 898 1036 l 1,4,-1
EndSplineSet
Position2: "'cpsp' Capital Spacing lookup 0 subtable" dx=5 dy=0 dh=10 dv=0
EndChar

StartChar: Eogonek
Encoding: 280 280 37
Width: 991
GlyphClass: 2
Flags: W
LayerCount: 2
Back
Fore
SplineSet
818 739 m 1,0,-1
 818 532 l 1,1,-1
 339 532 l 1,2,-1
 339 207 l 1,3,-1
 910 207 l 1,4,-1
 910 0 l 1,5,6
 889 -24 889 -24 872 -58.5 c 128,-1,7
 855 -93 855 -93 855 -127 c 0,8,9
 855 -166 855 -166 875.5 -192.5 c 128,-1,10
 896 -219 896 -219 937 -219 c 2,11,-1
 976 -219 l 1,12,-1
 976 -319 l 1,13,14
 916 -344 916 -344 857 -344 c 0,15,16
 783 -344 783 -344 730 -305 c 128,-1,17
 677 -266 677 -266 677 -180 c 0,18,19
 677 -123 677 -123 698 -81.5 c 128,-1,20
 719 -40 719 -40 757 0 c 1,21,-1
 108 0 l 1,22,-1
 108 1241 l 1,23,-1
 898 1241 l 1,24,-1
 898 1036 l 1,25,-1
 339 1036 l 1,26,-1
 339 739 l 1,27,-1
 818 739 l 1,0,-1
EndSplineSet
Position2: "'cpsp' Capital Spacing lookup 0 subtable" dx=5 dy=0 dh=10 dv=0
EndChar

StartChar: F
Encoding: 70 70 38
Width: 907
GlyphClass: 2
Flags: W
LayerCount: 2
Back
Fore
SplineSet
837 1036 m 1,0,-1
 339 1036 l 1,1,-1
 339 723 l 1,2,-1
 765 723 l 1,3,-1
 765 516 l 1,4,-1
 339 516 l 1,5,-1
 339 0 l 1,6,-1
 108 0 l 1,7,-1
 108 1241 l 1,8,-1
 837 1241 l 1,9,-1
 837 1036 l 1,0,-1
EndSplineSet
Position2: "'cpsp' Capital Spacing lookup 0 subtable" dx=5 dy=0 dh=10 dv=0
EndChar

StartChar: G
Encoding: 71 71 39
Width: 1155
GlyphClass: 2
Flags: W
AnchorPoint: "Anchor-1" 578 0 basechar 0
AnchorPoint: "Anchor-0" 578 1241 basechar 0
LayerCount: 2
Back
Fore
SplineSet
1062 676 m 1,0,-1
 1062 0 l 1,1,-1
 912 0 l 1,2,-1
 871 137 l 1,3,4
 812 60 812 60 725.5 18.5 c 128,-1,5
 639 -23 639 -23 540 -23 c 0,6,7
 308 -23 308 -23 184 137 c 128,-1,8
 60 297 60 297 60 621 c 0,9,10
 60 944 60 944 196 1104 c 128,-1,11
 332 1264 332 1264 587 1264 c 0,12,13
 715 1264 715 1264 823.5 1210.5 c 128,-1,14
 932 1157 932 1157 997 1053.5 c 128,-1,15
 1062 950 1062 950 1062 807 c 1,16,-1
 824 807 l 1,17,18
 824 888 824 888 791.5 946.5 c 128,-1,19
 759 1005 759 1005 704 1035 c 128,-1,20
 649 1065 649 1065 581 1065 c 0,21,22
 439 1065 439 1065 369.5 961 c 128,-1,23
 300 857 300 857 300 666 c 2,24,-1
 300 575 l 2,25,26
 300 381 300 381 369.5 279.5 c 128,-1,27
 439 178 439 178 583 178 c 0,28,29
 653 178 653 178 708 214.5 c 128,-1,30
 763 251 763 251 793.5 318.5 c 128,-1,31
 824 386 824 386 824 475 c 1,32,-1
 546 475 l 1,33,-1
 546 676 l 1,34,-1
 1062 676 l 1,0,-1
EndSplineSet
Position2: "'cpsp' Capital Spacing lookup 0 subtable" dx=5 dy=0 dh=10 dv=0
EndChar

StartChar: Gbreve
Encoding: 286 286 40
Width: 1155
GlyphClass: 2
Flags: W
LayerCount: 2
Back
Fore
SplineSet
451 1433.5 m 128,-1,1
 396 1462 396 1462 365.5 1507 c 128,-1,2
 335 1552 335 1552 335 1599 c 1,3,-1
 470 1599 l 1,4,5
 472 1586 472 1586 486.5 1571.5 c 128,-1,6
 501 1557 501 1557 525 1547.5 c 128,-1,7
 549 1538 549 1538 577 1538 c 0,8,9
 606 1538 606 1538 630 1547.5 c 128,-1,10
 654 1557 654 1557 668.5 1571 c 128,-1,11
 683 1585 683 1585 685 1599 c 1,12,-1
 818 1599 l 1,13,14
 818 1552 818 1552 788 1507 c 128,-1,15
 758 1462 758 1462 703 1433.5 c 128,-1,16
 648 1405 648 1405 577 1405 c 256,17,0
 506 1405 506 1405 451 1433.5 c 128,-1,1
1062 676 m 1,18,-1
 1062 0 l 1,19,-1
 912 0 l 1,20,-1
 871 137 l 1,21,22
 812 60 812 60 725.5 18.5 c 128,-1,23
 639 -23 639 -23 540 -23 c 0,24,25
 308 -23 308 -23 184 137 c 128,-1,26
 60 297 60 297 60 621 c 0,27,28
 60 944 60 944 196 1104 c 128,-1,29
 332 1264 332 1264 587 1264 c 0,30,31
 715 1264 715 1264 823.5 1210.5 c 128,-1,32
 932 1157 932 1157 997 1053.5 c 128,-1,33
 1062 950 1062 950 1062 807 c 1,34,-1
 824 807 l 1,35,36
 824 888 824 888 791.5 946.5 c 128,-1,37
 759 1005 759 1005 704 1035 c 128,-1,38
 649 1065 649 1065 581 1065 c 0,39,40
 439 1065 439 1065 369.5 961 c 128,-1,41
 300 857 300 857 300 666 c 2,42,-1
 300 575 l 2,43,44
 300 381 300 381 369.5 279.5 c 128,-1,45
 439 178 439 178 583 178 c 0,46,47
 653 178 653 178 708 214.5 c 128,-1,48
 763 251 763 251 793.5 318.5 c 128,-1,49
 824 386 824 386 824 475 c 1,50,-1
 546 475 l 1,51,-1
 546 676 l 1,52,-1
 1062 676 l 1,18,-1
EndSplineSet
Position2: "'cpsp' Capital Spacing lookup 0 subtable" dx=5 dy=0 dh=10 dv=0
EndChar

StartChar: Gcircumflex
Encoding: 284 284 41
Width: 1155
GlyphClass: 2
Flags: W
LayerCount: 2
Back
Fore
SplineSet
335 1354 m 1,0,-1
 491 1599 l 1,1,-1
 667 1599 l 1,2,-1
 820 1354 l 1,3,-1
 658 1354 l 1,4,-1
 579 1479 l 1,5,-1
 497 1354 l 1,6,-1
 335 1354 l 1,0,-1
1062 676 m 1,7,-1
 1062 0 l 1,8,-1
 912 0 l 1,9,-1
 871 137 l 1,10,11
 812 60 812 60 725.5 18.5 c 128,-1,12
 639 -23 639 -23 540 -23 c 0,13,14
 308 -23 308 -23 184 137 c 128,-1,15
 60 297 60 297 60 621 c 0,16,17
 60 944 60 944 196 1104 c 128,-1,18
 332 1264 332 1264 587 1264 c 0,19,20
 715 1264 715 1264 823.5 1210.5 c 128,-1,21
 932 1157 932 1157 997 1053.5 c 128,-1,22
 1062 950 1062 950 1062 807 c 1,23,-1
 824 807 l 1,24,25
 824 888 824 888 791.5 946.5 c 128,-1,26
 759 1005 759 1005 704 1035 c 128,-1,27
 649 1065 649 1065 581 1065 c 0,28,29
 439 1065 439 1065 369.5 961 c 128,-1,30
 300 857 300 857 300 666 c 2,31,-1
 300 575 l 2,32,33
 300 381 300 381 369.5 279.5 c 128,-1,34
 439 178 439 178 583 178 c 0,35,36
 653 178 653 178 708 214.5 c 128,-1,37
 763 251 763 251 793.5 318.5 c 128,-1,38
 824 386 824 386 824 475 c 1,39,-1
 546 475 l 1,40,-1
 546 676 l 1,41,-1
 1062 676 l 1,7,-1
EndSplineSet
Position2: "'cpsp' Capital Spacing lookup 0 subtable" dx=5 dy=0 dh=10 dv=0
EndChar

StartChar: Gcommaaccent
Encoding: 290 290 42
Width: 1155
GlyphClass: 2
Flags: W
LayerCount: 2
Back
Fore
SplineSet
1062 676 m 1,0,-1
 1062 0 l 1,1,-1
 912 0 l 1,2,-1
 871 137 l 1,3,4
 812 60 812 60 725.5 18.5 c 128,-1,5
 639 -23 639 -23 540 -23 c 0,6,7
 308 -23 308 -23 184 137 c 128,-1,8
 60 297 60 297 60 621 c 0,9,10
 60 944 60 944 196 1104 c 128,-1,11
 332 1264 332 1264 587 1264 c 0,12,13
 715 1264 715 1264 823.5 1210.5 c 128,-1,14
 932 1157 932 1157 997 1053.5 c 128,-1,15
 1062 950 1062 950 1062 807 c 1,16,-1
 824 807 l 1,17,18
 824 888 824 888 791.5 946.5 c 128,-1,19
 759 1005 759 1005 704 1035 c 128,-1,20
 649 1065 649 1065 581 1065 c 0,21,22
 439 1065 439 1065 369.5 961 c 128,-1,23
 300 857 300 857 300 666 c 2,24,-1
 300 575 l 2,25,26
 300 381 300 381 369.5 279.5 c 128,-1,27
 439 178 439 178 583 178 c 0,28,29
 653 178 653 178 708 214.5 c 128,-1,30
 763 251 763 251 793.5 318.5 c 128,-1,31
 824 386 824 386 824 475 c 1,32,-1
 546 475 l 1,33,-1
 546 676 l 1,34,-1
 1062 676 l 1,0,-1
661 -100 m 1,35,-1
 661 -303 l 1,36,-1
 579 -475 l 1,37,-1
 460 -475 l 1,38,-1
 525 -322 l 1,39,-1
 437 -322 l 1,40,-1
 437 -100 l 1,41,-1
 661 -100 l 1,35,-1
EndSplineSet
Position2: "'cpsp' Capital Spacing lookup 0 subtable" dx=5 dy=0 dh=10 dv=0
EndChar

StartChar: Gdotaccent
Encoding: 288 288 43
Width: 1155
GlyphClass: 2
Flags: W
LayerCount: 2
Back
Fore
SplineSet
480 1391 m 1,0,-1
 480 1599 l 1,1,-1
 675 1599 l 1,2,-1
 675 1391 l 1,3,-1
 480 1391 l 1,0,-1
1062 676 m 1,4,-1
 1062 0 l 1,5,-1
 912 0 l 1,6,-1
 871 137 l 1,7,8
 812 60 812 60 725.5 18.5 c 128,-1,9
 639 -23 639 -23 540 -23 c 0,10,11
 308 -23 308 -23 184 137 c 128,-1,12
 60 297 60 297 60 621 c 0,13,14
 60 944 60 944 196 1104 c 128,-1,15
 332 1264 332 1264 587 1264 c 0,16,17
 715 1264 715 1264 823.5 1210.5 c 128,-1,18
 932 1157 932 1157 997 1053.5 c 128,-1,19
 1062 950 1062 950 1062 807 c 1,20,-1
 824 807 l 1,21,22
 824 888 824 888 791.5 946.5 c 128,-1,23
 759 1005 759 1005 704 1035 c 128,-1,24
 649 1065 649 1065 581 1065 c 0,25,26
 439 1065 439 1065 369.5 961 c 128,-1,27
 300 857 300 857 300 666 c 2,28,-1
 300 575 l 2,29,30
 300 381 300 381 369.5 279.5 c 128,-1,31
 439 178 439 178 583 178 c 0,32,33
 653 178 653 178 708 214.5 c 128,-1,34
 763 251 763 251 793.5 318.5 c 128,-1,35
 824 386 824 386 824 475 c 1,36,-1
 546 475 l 1,37,-1
 546 676 l 1,38,-1
 1062 676 l 1,4,-1
EndSplineSet
Position2: "'cpsp' Capital Spacing lookup 0 subtable" dx=5 dy=0 dh=10 dv=0
EndChar

StartChar: H
Encoding: 72 72 44
Width: 1071
GlyphClass: 2
Flags: W
AnchorPoint: "Anchor-1" 0 0 basechar 0
AnchorPoint: "Anchor-0" 537 1241 basechar 0
LayerCount: 2
Back
Fore
SplineSet
730 532 m 1,0,-1
 339 532 l 1,1,-1
 339 0 l 1,2,-1
 108 0 l 1,3,-1
 108 1241 l 1,4,-1
 339 1241 l 1,5,-1
 339 739 l 1,6,-1
 730 739 l 1,7,-1
 730 1241 l 1,8,-1
 962 1241 l 1,9,-1
 962 0 l 1,10,-1
 730 0 l 1,11,-1
 730 532 l 1,0,-1
EndSplineSet
Position2: "'cpsp' Capital Spacing lookup 0 subtable" dx=5 dy=0 dh=10 dv=0
EndChar

StartChar: Hbar
Encoding: 294 294 45
Width: 1071
GlyphClass: 2
Flags: W
LayerCount: 2
Back
Fore
SplineSet
730 0 m 1,0,-1
 730 520 l 1,1,-1
 339 520 l 1,2,-1
 339 0 l 1,3,-1
 108 0 l 1,4,-1
 108 887 l 1,5,-1
 17 887 l 1,6,-1
 17 1044 l 1,7,-1
 108 1044 l 1,8,-1
 108 1241 l 1,9,-1
 339 1241 l 1,10,-1
 339 1044 l 1,11,-1
 730 1044 l 1,12,-1
 730 1241 l 1,13,-1
 962 1241 l 1,14,-1
 962 1044 l 1,15,-1
 1052 1044 l 1,16,-1
 1052 887 l 1,17,-1
 962 887 l 1,18,-1
 962 0 l 1,19,-1
 730 0 l 1,0,-1
339 725 m 1,20,-1
 730 725 l 1,21,-1
 730 887 l 1,22,-1
 339 887 l 1,23,-1
 339 725 l 1,20,-1
EndSplineSet
Position2: "'cpsp' Capital Spacing lookup 0 subtable" dx=5 dy=0 dh=10 dv=0
EndChar

StartChar: Hcircumflex
Encoding: 292 292 46
Width: 1071
GlyphClass: 2
Flags: W
LayerCount: 2
Back
Fore
SplineSet
536 1479 m 1,0,-1
 454 1354 l 1,1,-1
 292 1354 l 1,2,-1
 448 1599 l 1,3,-1
 626 1599 l 1,4,-1
 779 1354 l 1,5,-1
 615 1354 l 1,6,-1
 536 1479 l 1,0,-1
730 532 m 1,7,-1
 339 532 l 1,8,-1
 339 0 l 1,9,-1
 108 0 l 1,10,-1
 108 1241 l 1,11,-1
 339 1241 l 1,12,-1
 339 739 l 1,13,-1
 730 739 l 1,14,-1
 730 1241 l 1,15,-1
 962 1241 l 1,16,-1
 962 0 l 1,17,-1
 730 0 l 1,18,-1
 730 532 l 1,7,-1
EndSplineSet
Position2: "'cpsp' Capital Spacing lookup 0 subtable" dx=5 dy=0 dh=10 dv=0
EndChar

StartChar: I
Encoding: 73 73 47
Width: 414
GlyphClass: 2
Flags: W
AnchorPoint: "Anchor-1" 0 0 basechar 0
AnchorPoint: "Anchor-0" 207 1241 basechar 0
LayerCount: 2
Back
Fore
SplineSet
321 1241 m 1,0,-1
 321 0 l 1,1,-1
 89 0 l 1,2,-1
 89 1241 l 1,3,-1
 321 1241 l 1,0,-1
EndSplineSet
Position2: "'cpsp' Capital Spacing lookup 0 subtable" dx=5 dy=0 dh=10 dv=0
EndChar

StartChar: IJ
Encoding: 306 306 48
Width: 1239
GlyphClass: 2
Flags: W
LayerCount: 2
Back
Fore
SplineSet
89 1241 m 1,0,-1
 321 1241 l 1,1,-1
 321 0 l 1,2,-1
 89 0 l 1,3,-1
 89 1241 l 1,0,-1
1039 58.5 m 128,-1,5
 949 -23 949 -23 779 -23 c 0,6,7
 610 -23 610 -23 519.5 58.5 c 128,-1,8
 429 140 429 140 429 295 c 2,9,-1
 429 391 l 1,10,-1
 658 391 l 1,11,-1
 658 313 l 2,12,13
 658 247 658 247 688.5 212.5 c 128,-1,14
 719 178 719 178 779 178 c 0,15,16
 837 178 837 178 866.5 212.5 c 128,-1,17
 896 247 896 247 896 313 c 2,18,-1
 896 1241 l 1,19,-1
 1129 1241 l 1,20,-1
 1129 295 l 2,21,4
 1129 140 1129 140 1039 58.5 c 128,-1,5
EndSplineSet
Position2: "'cpsp' Capital Spacing lookup 0 subtable" dx=5 dy=0 dh=10 dv=0
EndChar

StartChar: Iacute
Encoding: 205 205 49
Width: 414
GlyphClass: 2
Flags: W
LayerCount: 2
Back
Fore
SplineSet
81 1360 m 1,0,-1
 237 1599 l 1,1,-1
 454 1599 l 1,2,-1
 456 1593 l 1,3,-1
 261 1360 l 1,4,-1
 81 1360 l 1,0,-1
89 1241 m 1,5,-1
 321 1241 l 1,6,-1
 321 0 l 1,7,-1
 89 0 l 1,8,-1
 89 1241 l 1,5,-1
EndSplineSet
Position2: "'cpsp' Capital Spacing lookup 0 subtable" dx=5 dy=0 dh=10 dv=0
EndChar

StartChar: Ibreve
Encoding: 300 300 50
Width: 414
GlyphClass: 2
Flags: W
LayerCount: 2
Back
Fore
SplineSet
419 1507 m 128,-1,1
 389 1462 389 1462 333.5 1433.5 c 128,-1,2
 278 1405 278 1405 207 1405 c 0,3,4
 135 1405 135 1405 79.5 1433.5 c 128,-1,5
 24 1462 24 1462 -6.5 1507 c 128,-1,6
 -37 1552 -37 1552 -37 1599 c 1,7,-1
 100 1599 l 1,8,9
 102 1586 102 1586 116.5 1571.5 c 128,-1,10
 131 1557 131 1557 155 1547.5 c 128,-1,11
 179 1538 179 1538 207 1538 c 0,12,13
 236 1538 236 1538 260 1547.5 c 128,-1,14
 284 1557 284 1557 298.5 1571 c 128,-1,15
 313 1585 313 1585 315 1599 c 1,16,-1
 449 1599 l 1,17,0
 449 1552 449 1552 419 1507 c 128,-1,1
322 1241 m 1,18,-1
 322 0 l 1,19,-1
 90 0 l 1,20,-1
 90 1241 l 1,21,-1
 322 1241 l 1,18,-1
EndSplineSet
Position2: "'cpsp' Capital Spacing lookup 0 subtable" dx=5 dy=0 dh=10 dv=0
EndChar

StartChar: Icircumflex
Encoding: 206 206 51
Width: 414
GlyphClass: 2
Flags: W
LayerCount: 2
Back
Fore
SplineSet
127 1354 m 1,0,-1
 -39 1354 l 1,1,-1
 119 1599 l 1,2,-1
 297 1599 l 1,3,-1
 451 1354 l 1,4,-1
 289 1354 l 1,5,-1
 209 1479 l 1,6,-1
 127 1354 l 1,0,-1
322 1241 m 1,7,-1
 322 0 l 1,8,-1
 90 0 l 1,9,-1
 90 1241 l 1,10,-1
 322 1241 l 1,7,-1
EndSplineSet
Position2: "'cpsp' Capital Spacing lookup 0 subtable" dx=5 dy=0 dh=10 dv=0
EndChar

StartChar: Idieresis
Encoding: 207 207 52
Width: 414
GlyphClass: 2
Flags: W
LayerCount: 2
Back
Fore
SplineSet
-41 1599 m 1,0,-1
 139 1599 l 1,1,-1
 139 1401 l 1,2,-1
 -41 1401 l 1,3,-1
 -41 1599 l 1,0,-1
274 1599 m 1,4,-1
 457 1599 l 1,5,-1
 457 1401 l 1,6,-1
 274 1401 l 1,7,-1
 274 1599 l 1,4,-1
90 1241 m 1,8,-1
 322 1241 l 1,9,-1
 322 0 l 1,10,-1
 90 0 l 1,11,-1
 90 1241 l 1,8,-1
EndSplineSet
Position2: "'cpsp' Capital Spacing lookup 0 subtable" dx=5 dy=0 dh=10 dv=0
EndChar

StartChar: Idotaccent
Encoding: 304 304 53
Width: 414
GlyphClass: 2
Flags: W
LayerCount: 2
Back
Fore
SplineSet
304 1599 m 1,0,-1
 304 1391 l 1,1,-1
 110 1391 l 1,2,-1
 110 1599 l 1,3,-1
 304 1599 l 1,0,-1
321 1241 m 1,4,-1
 321 0 l 1,5,-1
 89 0 l 1,6,-1
 89 1241 l 1,7,-1
 321 1241 l 1,4,-1
EndSplineSet
Position2: "'cpsp' Capital Spacing lookup 0 subtable" dx=5 dy=0 dh=10 dv=0
EndChar

StartChar: Igrave
Encoding: 204 204 54
Width: 414
GlyphClass: 2
Flags: W
LayerCount: 2
Back
Fore
SplineSet
-43 1593 m 1,0,-1
 -41 1599 l 1,1,-1
 176 1599 l 1,2,-1
 332 1360 l 1,3,-1
 152 1360 l 1,4,-1
 -43 1593 l 1,0,-1
90 1241 m 1,5,-1
 322 1241 l 1,6,-1
 322 0 l 1,7,-1
 90 0 l 1,8,-1
 90 1241 l 1,5,-1
EndSplineSet
Position2: "'cpsp' Capital Spacing lookup 0 subtable" dx=5 dy=0 dh=10 dv=0
EndChar

StartChar: Imacron
Encoding: 298 298 55
Width: 414
GlyphClass: 2
Flags: W
LayerCount: 2
Back
Fore
SplineSet
438 1532 m 1,0,-1
 438 1374 l 1,1,-1
 -25 1374 l 1,2,-1
 -25 1532 l 1,3,-1
 438 1532 l 1,0,-1
322 1241 m 1,4,-1
 322 0 l 1,5,-1
 90 0 l 1,6,-1
 90 1241 l 1,7,-1
 322 1241 l 1,4,-1
EndSplineSet
Position2: "'cpsp' Capital Spacing lookup 0 subtable" dx=5 dy=0 dh=10 dv=0
EndChar

StartChar: Iogonek
Encoding: 302 302 56
Width: 414
GlyphClass: 2
Flags: W
LayerCount: 2
Back
Fore
SplineSet
267 -127 m 0,1,2
 267 -167 267 -167 286.5 -193 c 128,-1,3
 306 -219 306 -219 349 -219 c 2,4,-1
 388 -219 l 1,5,-1
 388 -319 l 1,6,7
 328 -344 328 -344 269 -344 c 0,8,9
 196 -344 196 -344 142.5 -305 c 128,-1,10
 89 -266 89 -266 89 -180 c 0,11,12
 89 -123 89 -123 110 -81.5 c 128,-1,13
 131 -40 131 -40 169 0 c 1,14,-1
 89 0 l 1,15,-1
 89 1241 l 1,16,-1
 321 1241 l 1,17,-1
 321 0 l 1,18,0
 267 -71 267 -71 267 -127 c 0,1,2
EndSplineSet
Position2: "'cpsp' Capital Spacing lookup 0 subtable" dx=5 dy=0 dh=10 dv=0
EndChar

StartChar: Itilde
Encoding: 296 296 57
Width: 414
GlyphClass: 2
Flags: W
LayerCount: 2
Back
Fore
SplineSet
493 1494.5 m 128,-1,1
 474 1444 474 1444 434 1411 c 128,-1,2
 394 1378 394 1378 334 1378 c 0,3,4
 304 1378 304 1378 276 1386.5 c 128,-1,5
 248 1395 248 1395 210 1412 c 0,6,7
 172 1428 172 1428 146.5 1436 c 128,-1,8
 121 1444 121 1444 94 1444 c 0,9,10
 64 1444 64 1444 46.5 1429 c 128,-1,11
 29 1414 29 1414 23 1378 c 1,12,-1
 -98 1378 l 1,13,14
 -98 1431 -98 1431 -79 1482 c 128,-1,15
 -60 1533 -60 1533 -20 1566 c 128,-1,16
 20 1599 20 1599 80 1599 c 0,17,18
 110 1599 110 1599 137.5 1590.5 c 128,-1,19
 165 1582 165 1582 207 1564 c 0,20,21
 246 1548 246 1548 270.5 1540 c 128,-1,22
 295 1532 295 1532 322 1532 c 0,23,24
 352 1532 352 1532 368.5 1547 c 128,-1,25
 385 1562 385 1562 391 1599 c 1,26,-1
 512 1599 l 1,27,0
 512 1545 512 1545 493 1494.5 c 128,-1,1
322 1241 m 1,28,-1
 322 0 l 1,29,-1
 90 0 l 1,30,-1
 90 1241 l 1,31,-1
 322 1241 l 1,28,-1
EndSplineSet
Position2: "'cpsp' Capital Spacing lookup 0 subtable" dx=5 dy=0 dh=10 dv=0
EndChar

StartChar: J
Encoding: 74 74 58
Width: 825
GlyphClass: 2
Flags: W
AnchorPoint: "Anchor-1" 0 0 basechar 0
AnchorPoint: "Anchor-0" 414 1241 basechar 0
LayerCount: 2
Back
Fore
SplineSet
625.5 58.5 m 128,-1,1
 535 -23 535 -23 366 -23 c 256,2,3
 197 -23 197 -23 106 58.5 c 128,-1,4
 15 140 15 140 15 295 c 2,5,-1
 15 391 l 1,6,-1
 245 391 l 1,7,-1
 245 313 l 2,8,9
 245 247 245 247 276 212.5 c 128,-1,10
 307 178 307 178 366 178 c 0,11,12
 424 178 424 178 454 212.5 c 128,-1,13
 484 247 484 247 484 313 c 2,14,-1
 484 1241 l 1,15,-1
 716 1241 l 1,16,-1
 716 295 l 2,17,0
 716 140 716 140 625.5 58.5 c 128,-1,1
EndSplineSet
Position2: "'cpsp' Capital Spacing lookup 0 subtable" dx=5 dy=0 dh=10 dv=0
EndChar

StartChar: Jcircumflex
Encoding: 308 308 59
Width: 825
GlyphClass: 2
Flags: W
LayerCount: 2
Back
Fore
SplineSet
624 1479 m 1,0,-1
 542 1354 l 1,1,-1
 380 1354 l 1,2,-1
 536 1599 l 1,3,-1
 714 1599 l 1,4,-1
 865 1354 l 1,5,-1
 706 1354 l 1,6,-1
 624 1479 l 1,0,-1
625.5 58.5 m 128,-1,8
 535 -23 535 -23 366 -23 c 256,9,10
 197 -23 197 -23 106 58.5 c 128,-1,11
 15 140 15 140 15 295 c 2,12,-1
 15 391 l 1,13,-1
 245 391 l 1,14,-1
 245 313 l 2,15,16
 245 247 245 247 276 212.5 c 128,-1,17
 307 178 307 178 366 178 c 0,18,19
 424 178 424 178 454 212.5 c 128,-1,20
 484 247 484 247 484 313 c 2,21,-1
 484 1241 l 1,22,-1
 716 1241 l 1,23,-1
 716 295 l 2,24,7
 716 140 716 140 625.5 58.5 c 128,-1,8
EndSplineSet
Position2: "'cpsp' Capital Spacing lookup 0 subtable" dx=5 dy=0 dh=10 dv=0
EndChar

StartChar: K
Encoding: 75 75 60
Width: 1071
GlyphClass: 2
Flags: W
AnchorPoint: "Anchor-1" 537 0 basechar 0
AnchorPoint: "Anchor-0" 537 1241 basechar 0
LayerCount: 2
Back
Fore
SplineSet
687 737 m 1,0,-1
 1066 0 l 1,1,-1
 804 0 l 1,2,-1
 536 555 l 1,3,-1
 341 317 l 1,4,-1
 341 0 l 1,5,-1
 108 0 l 1,6,-1
 108 1241 l 1,7,-1
 341 1241 l 1,8,-1
 341 606 l 1,9,-1
 796 1241 l 1,10,-1
 1054 1241 l 1,11,-1
 687 737 l 1,0,-1
EndSplineSet
Position2: "'cpsp' Capital Spacing lookup 0 subtable" dx=5 dy=0 dh=10 dv=0
EndChar

StartChar: Kcommaaccent
Encoding: 310 310 61
Width: 1071
GlyphClass: 2
Flags: W
LayerCount: 2
Back
Fore
SplineSet
687 737 m 1,0,-1
 1066 0 l 1,1,-1
 804 0 l 1,2,-1
 536 555 l 1,3,-1
 341 317 l 1,4,-1
 341 0 l 1,5,-1
 108 0 l 1,6,-1
 108 1241 l 1,7,-1
 341 1241 l 1,8,-1
 341 606 l 1,9,-1
 796 1241 l 1,10,-1
 1054 1241 l 1,11,-1
 687 737 l 1,0,-1
511 -322 m 1,12,-1
 423 -322 l 1,13,-1
 423 -100 l 1,14,-1
 646 -100 l 1,15,-1
 646 -303 l 1,16,-1
 564 -475 l 1,17,-1
 448 -475 l 1,18,-1
 511 -322 l 1,12,-1
EndSplineSet
Position2: "'cpsp' Capital Spacing lookup 0 subtable" dx=5 dy=0 dh=10 dv=0
EndChar

StartChar: L
Encoding: 76 76 62
Width: 907
GlyphClass: 2
Flags: W
AnchorPoint: "Anchor-1" 455 0 basechar 0
AnchorPoint: "Anchor-0" 455 1241 basechar 0
LayerCount: 2
Back
Fore
SplineSet
865 0 m 1,0,-1
 108 0 l 1,1,-1
 108 1241 l 1,2,-1
 339 1241 l 1,3,-1
 339 217 l 1,4,-1
 865 217 l 1,5,-1
 865 0 l 1,0,-1
EndSplineSet
Position2: "'cpsp' Capital Spacing lookup 0 subtable" dx=5 dy=0 dh=10 dv=0
EndChar

StartChar: Lacute
Encoding: 313 313 63
Width: 907
GlyphClass: 2
Flags: W
LayerCount: 2
Back
Fore
SplineSet
103 1360 m 1,0,-1
 259 1599 l 1,1,-1
 476 1599 l 1,2,-1
 478 1593 l 1,3,-1
 284 1360 l 1,4,-1
 103 1360 l 1,0,-1
865 0 m 1,5,-1
 108 0 l 1,6,-1
 108 1241 l 1,7,-1
 339 1241 l 1,8,-1
 339 217 l 1,9,-1
 865 217 l 1,10,-1
 865 0 l 1,5,-1
EndSplineSet
Position2: "'cpsp' Capital Spacing lookup 0 subtable" dx=5 dy=0 dh=10 dv=0
EndChar

StartChar: Lcaron
Encoding: 317 317 64
Width: 907
GlyphClass: 2
Flags: W
LayerCount: 2
Back
Fore
SplineSet
865 0 m 1,0,-1
 108 0 l 1,1,-1
 108 1241 l 1,2,-1
 339 1241 l 1,3,-1
 339 217 l 1,4,-1
 865 217 l 1,5,-1
 865 0 l 1,0,-1
615 711 m 1,6,-1
 714 993 l 1,7,-1
 615 993 l 1,8,-1
 615 1241 l 1,9,-1
 865 1241 l 1,10,-1
 865 1016 l 1,11,-1
 744 711 l 1,12,-1
 615 711 l 1,6,-1
EndSplineSet
Position2: "'cpsp' Capital Spacing lookup 0 subtable" dx=5 dy=0 dh=10 dv=0
EndChar

StartChar: Lcommaaccent
Encoding: 315 315 65
Width: 907
GlyphClass: 2
Flags: W
LayerCount: 2
Back
Fore
SplineSet
865 0 m 1,0,-1
 108 0 l 1,1,-1
 108 1241 l 1,2,-1
 339 1241 l 1,3,-1
 339 217 l 1,4,-1
 865 217 l 1,5,-1
 865 0 l 1,0,-1
366 -475 m 1,6,-1
 429 -322 l 1,7,-1
 341 -322 l 1,8,-1
 341 -100 l 1,9,-1
 564 -100 l 1,10,-1
 564 -303 l 1,11,-1
 482 -475 l 1,12,-1
 366 -475 l 1,6,-1
EndSplineSet
Position2: "'cpsp' Capital Spacing lookup 0 subtable" dx=5 dy=0 dh=10 dv=0
EndChar

StartChar: Ldot
Encoding: 319 319 66
Width: 907
GlyphClass: 2
Flags: W
LayerCount: 2
Back
Fore
SplineSet
865 0 m 1,0,-1
 108 0 l 1,1,-1
 108 1241 l 1,2,-1
 339 1241 l 1,3,-1
 339 217 l 1,4,-1
 865 217 l 1,5,-1
 865 0 l 1,0,-1
566 948 m 1,6,-1
 759 948 l 1,7,-1
 759 741 l 1,8,-1
 566 741 l 1,9,-1
 566 948 l 1,6,-1
EndSplineSet
Ligature2: "Ligature Substitution lookup 35 subtable" L periodcentered
Position2: "'cpsp' Capital Spacing lookup 0 subtable" dx=5 dy=0 dh=10 dv=0
EndChar

StartChar: Lslash
Encoding: 321 321 67
Width: 907
GlyphClass: 2
Flags: W
LayerCount: 2
Back
Fore
SplineSet
551 819 m 1,0,-1
 340 633 l 1,1,-1
 340 217 l 1,2,-1
 866 217 l 1,3,-1
 866 0 l 1,4,-1
 109 0 l 1,5,-1
 109 430 l 1,6,-1
 0 334 l 1,7,-1
 0 506 l 1,8,-1
 109 600 l 1,9,-1
 109 1241 l 1,10,-1
 340 1241 l 1,11,-1
 340 807 l 1,12,-1
 551 995 l 1,13,-1
 551 819 l 1,0,-1
EndSplineSet
Position2: "'cpsp' Capital Spacing lookup 0 subtable" dx=5 dy=0 dh=10 dv=0
EndChar

StartChar: M
Encoding: 77 77 68
Width: 1237
GlyphClass: 2
Flags: W
LayerCount: 2
Back
Fore
SplineSet
927 791 m 2,0,1
 927 827 927 827 930.5 897.5 c 128,-1,2
 934 968 934 968 935 991 c 1,3,-1
 927 991 l 1,4,-1
 920 956 l 2,5,6
 915 934 915 934 912 919 c 0,7,8
 902 873 902 873 896 850 c 2,9,-1
 710 0 l 1,10,-1
 509 0 l 1,11,-1
 335 797 l 2,12,13
 317 867 317 867 290 991 c 1,14,-1
 284 991 l 1,15,16
 285 967 285 967 288.5 894.5 c 128,-1,17
 292 822 292 822 292 791 c 2,18,-1
 292 0 l 1,19,-1
 95 0 l 1,20,-1
 95 1241 l 1,21,-1
 421 1241 l 1,22,-1
 574 557 l 2,23,24
 586 506 586 506 602.5 407 c 128,-1,25
 619 308 619 308 624 276 c 1,26,-1
 632 276 l 1,27,28
 636 310 636 310 649 411 c 128,-1,29
 662 512 662 512 673 557 c 2,30,-1
 824 1241 l 1,31,-1
 1140 1241 l 1,32,-1
 1140 0 l 1,33,-1
 927 0 l 1,34,-1
 927 791 l 2,0,1
EndSplineSet
Position2: "'cpsp' Capital Spacing lookup 0 subtable" dx=5 dy=0 dh=10 dv=0
EndChar

StartChar: N
Encoding: 78 78 69
Width: 1071
GlyphClass: 2
Flags: W
AnchorPoint: "Anchor-1" 537 0 basechar 0
AnchorPoint: "Anchor-0" 537 1241 basechar 0
LayerCount: 2
Back
Fore
SplineSet
372 684 m 2,0,1
 363 701 363 701 343 743.5 c 128,-1,2
 323 786 323 786 316 801 c 1,3,-1
 308 795 l 1,4,5
 309 784 309 784 310.5 753 c 128,-1,6
 312 722 312 722 312 692 c 2,7,-1
 312 0 l 1,8,-1
 108 0 l 1,9,-1
 108 1241 l 1,10,-1
 312 1241 l 1,11,-1
 695 557 l 2,12,13
 708 538 708 538 727.5 497 c 128,-1,14
 747 456 747 456 753 442 c 1,15,-1
 757 446 l 1,16,-1
 757 551 l 1,17,-1
 757 1241 l 1,18,-1
 962 1241 l 1,19,-1
 962 0 l 1,20,-1
 757 0 l 1,21,-1
 372 684 l 2,0,1
EndSplineSet
Position2: "'cpsp' Capital Spacing lookup 0 subtable" dx=5 dy=0 dh=10 dv=0
EndChar

StartChar: Nacute
Encoding: 323 323 70
Width: 1071
GlyphClass: 2
Flags: W
LayerCount: 2
Back
Fore
SplineSet
411 1360 m 1,0,-1
 566 1599 l 1,1,-1
 783 1599 l 1,2,-1
 785 1593 l 1,3,-1
 589 1360 l 1,4,-1
 411 1360 l 1,0,-1
372 684 m 2,5,6
 363 701 363 701 343 743.5 c 128,-1,7
 323 786 323 786 316 801 c 1,8,-1
 308 795 l 1,9,10
 309 784 309 784 310.5 753 c 128,-1,11
 312 722 312 722 312 692 c 2,12,-1
 312 0 l 1,13,-1
 108 0 l 1,14,-1
 108 1241 l 1,15,-1
 312 1241 l 1,16,-1
 695 557 l 2,17,18
 708 538 708 538 727.5 497 c 128,-1,19
 747 456 747 456 753 442 c 1,20,-1
 757 446 l 1,21,-1
 757 551 l 1,22,-1
 757 1241 l 1,23,-1
 962 1241 l 1,24,-1
 962 0 l 1,25,-1
 757 0 l 1,26,-1
 372 684 l 2,5,6
EndSplineSet
Position2: "'cpsp' Capital Spacing lookup 0 subtable" dx=5 dy=0 dh=10 dv=0
EndChar

StartChar: Ncaron
Encoding: 327 327 71
Width: 1071
GlyphClass: 2
Flags: W
LayerCount: 2
Back
Fore
SplineSet
292 1599 m 1,0,-1
 454 1599 l 1,1,-1
 536 1475 l 1,2,-1
 615 1599 l 1,3,-1
 779 1599 l 1,4,-1
 626 1354 l 1,5,-1
 448 1354 l 1,6,-1
 292 1599 l 1,0,-1
372 684 m 2,7,8
 363 701 363 701 343 743.5 c 128,-1,9
 323 786 323 786 316 801 c 1,10,-1
 308 795 l 1,11,12
 309 784 309 784 310.5 753 c 128,-1,13
 312 722 312 722 312 692 c 2,14,-1
 312 0 l 1,15,-1
 108 0 l 1,16,-1
 108 1241 l 1,17,-1
 312 1241 l 1,18,-1
 695 557 l 2,19,20
 708 538 708 538 727.5 497 c 128,-1,21
 747 456 747 456 753 442 c 1,22,-1
 757 446 l 1,23,-1
 757 551 l 1,24,-1
 757 1241 l 1,25,-1
 962 1241 l 1,26,-1
 962 0 l 1,27,-1
 757 0 l 1,28,-1
 372 684 l 2,7,8
EndSplineSet
Position2: "'cpsp' Capital Spacing lookup 0 subtable" dx=5 dy=0 dh=10 dv=0
EndChar

StartChar: Ncommaaccent
Encoding: 325 325 72
Width: 1071
GlyphClass: 2
Flags: W
LayerCount: 2
Back
Fore
SplineSet
372 684 m 2,0,1
 363 701 363 701 343 743.5 c 128,-1,2
 323 786 323 786 316 801 c 1,3,-1
 308 795 l 1,4,5
 309 784 309 784 310.5 753 c 128,-1,6
 312 722 312 722 312 692 c 2,7,-1
 312 0 l 1,8,-1
 108 0 l 1,9,-1
 108 1241 l 1,10,-1
 312 1241 l 1,11,-1
 695 557 l 2,12,13
 708 538 708 538 727.5 497 c 128,-1,14
 747 456 747 456 753 442 c 1,15,-1
 757 446 l 1,16,-1
 757 551 l 1,17,-1
 757 1241 l 1,18,-1
 962 1241 l 1,19,-1
 962 0 l 1,20,-1
 757 0 l 1,21,-1
 372 684 l 2,0,1
448 -475 m 1,22,-1
 511 -322 l 1,23,-1
 423 -322 l 1,24,-1
 423 -100 l 1,25,-1
 646 -100 l 1,26,-1
 646 -303 l 1,27,-1
 564 -475 l 1,28,-1
 448 -475 l 1,22,-1
EndSplineSet
Position2: "'cpsp' Capital Spacing lookup 0 subtable" dx=5 dy=0 dh=10 dv=0
EndChar

StartChar: Eng
Encoding: 330 330 73
Width: 1073
GlyphClass: 2
Flags: W
LayerCount: 2
Back
Fore
SplineSet
911 -257 m 128,-1,1
 860 -330 860 -330 740 -330 c 0,2,3
 702 -330 702 -330 658 -323 c 128,-1,4
 614 -316 614 -316 585 -307 c 1,5,-1
 585 -147 l 1,6,-1
 665 -147 l 2,7,8
 751 -147 751 -147 751 -59 c 2,9,-1
 751 0 l 1,10,-1
 372 684 l 2,11,12
 363 701 363 701 343 743.5 c 128,-1,13
 323 786 323 786 316 801 c 1,14,-1
 308 795 l 1,15,16
 309 784 309 784 310.5 753 c 128,-1,17
 312 722 312 722 312 692 c 2,18,-1
 312 0 l 1,19,-1
 108 0 l 1,20,-1
 108 1241 l 1,21,-1
 312 1241 l 1,22,-1
 695 557 l 2,23,24
 708 538 708 538 727.5 497 c 128,-1,25
 747 456 747 456 753 442 c 1,26,-1
 757 446 l 1,27,-1
 757 551 l 1,28,-1
 757 1241 l 1,29,-1
 962 1241 l 1,30,-1
 962 -74 l 2,31,0
 962 -184 962 -184 911 -257 c 128,-1,1
EndSplineSet
Position2: "'cpsp' Capital Spacing lookup 0 subtable" dx=5 dy=0 dh=10 dv=0
EndChar

StartChar: Ntilde
Encoding: 209 209 74
Width: 1071
GlyphClass: 2
Flags: W
LayerCount: 2
Back
Fore
SplineSet
820 1494.5 m 128,-1,1
 801 1444 801 1444 760.5 1411 c 128,-1,2
 720 1378 720 1378 661 1378 c 0,3,4
 631 1378 631 1378 602.5 1387 c 128,-1,5
 574 1396 574 1396 536 1412 c 0,6,7
 497 1428 497 1428 472.5 1436 c 128,-1,8
 448 1444 448 1444 421 1444 c 0,9,10
 390 1444 390 1444 372.5 1428.5 c 128,-1,11
 355 1413 355 1413 349 1378 c 1,12,-1
 230 1378 l 1,13,14
 230 1431 230 1431 249 1482 c 128,-1,15
 268 1533 268 1533 308.5 1566 c 128,-1,16
 349 1599 349 1599 409 1599 c 0,17,18
 439 1599 439 1599 466.5 1590 c 128,-1,19
 494 1581 494 1581 534 1564 c 0,20,21
 573 1548 573 1548 597.5 1540 c 128,-1,22
 622 1532 622 1532 648 1532 c 0,23,24
 679 1532 679 1532 696.5 1547 c 128,-1,25
 714 1562 714 1562 720 1599 c 1,26,-1
 839 1599 l 1,27,0
 839 1545 839 1545 820 1494.5 c 128,-1,1
372 684 m 2,28,29
 363 701 363 701 343 743.5 c 128,-1,30
 323 786 323 786 316 801 c 1,31,-1
 308 795 l 1,32,33
 309 784 309 784 310.5 753 c 128,-1,34
 312 722 312 722 312 692 c 2,35,-1
 312 0 l 1,36,-1
 108 0 l 1,37,-1
 108 1241 l 1,38,-1
 312 1241 l 1,39,-1
 695 557 l 2,40,41
 708 538 708 538 727.5 497 c 128,-1,42
 747 456 747 456 753 442 c 1,43,-1
 757 446 l 1,44,-1
 757 551 l 1,45,-1
 757 1241 l 1,46,-1
 962 1241 l 1,47,-1
 962 0 l 1,48,-1
 757 0 l 1,49,-1
 372 684 l 2,28,29
EndSplineSet
Position2: "'cpsp' Capital Spacing lookup 0 subtable" dx=5 dy=0 dh=10 dv=0
EndChar

StartChar: O
Encoding: 79 79 75
Width: 1155
GlyphClass: 2
Flags: W
AnchorPoint: "Anchor-1" 0 0 basechar 0
AnchorPoint: "Anchor-0" 578 1241 basechar 0
LayerCount: 2
Back
Fore
SplineSet
957.5 1103 m 128,-1,1
 1093 942 1093 942 1093 621 c 0,2,3
 1093 299 1093 299 957.5 138 c 128,-1,4
 822 -23 822 -23 577 -23 c 0,5,6
 331 -23 331 -23 195.5 138 c 128,-1,7
 60 299 60 299 60 621 c 0,8,9
 60 942 60 942 195.5 1103 c 128,-1,10
 331 1264 331 1264 577 1264 c 0,11,0
 822 1264 822 1264 957.5 1103 c 128,-1,1
370.5 960 m 128,-1,13
 300 855 300 855 300 666 c 2,14,-1
 300 575 l 2,15,16
 300 386 300 386 370.5 282 c 128,-1,17
 441 178 441 178 577 178 c 256,18,19
 713 178 713 178 783 282 c 128,-1,20
 853 386 853 386 853 575 c 2,21,-1
 853 666 l 2,22,23
 853 855 853 855 783 960 c 128,-1,24
 713 1065 713 1065 577 1065 c 256,25,12
 441 1065 441 1065 370.5 960 c 128,-1,13
EndSplineSet
Substitution2: "Single Substitution lookup 36 subtable" ordmasculine
Substitution2: "'aalt' Access All Alternates lookup 0 subtable" ordmasculine
Position2: "'cpsp' Capital Spacing lookup 0 subtable" dx=5 dy=0 dh=10 dv=0
EndChar

StartChar: Oacute
Encoding: 211 211 76
Width: 1155
GlyphClass: 2
Flags: W
LayerCount: 2
Back
Fore
SplineSet
452 1360 m 1,0,-1
 607 1599 l 1,1,-1
 826 1599 l 1,2,-1
 828 1593 l 1,3,-1
 632 1360 l 1,4,-1
 452 1360 l 1,0,-1
957.5 1103 m 128,-1,6
 1093 942 1093 942 1093 621 c 0,7,8
 1093 299 1093 299 957.5 138 c 128,-1,9
 822 -23 822 -23 577 -23 c 0,10,11
 331 -23 331 -23 195.5 138 c 128,-1,12
 60 299 60 299 60 621 c 0,13,14
 60 942 60 942 195.5 1103 c 128,-1,15
 331 1264 331 1264 577 1264 c 0,16,5
 822 1264 822 1264 957.5 1103 c 128,-1,6
370.5 960 m 128,-1,18
 300 855 300 855 300 666 c 2,19,-1
 300 575 l 2,20,21
 300 386 300 386 370.5 282 c 128,-1,22
 441 178 441 178 577 178 c 256,23,24
 713 178 713 178 783 282 c 128,-1,25
 853 386 853 386 853 575 c 2,26,-1
 853 666 l 2,27,28
 853 855 853 855 783 960 c 128,-1,29
 713 1065 713 1065 577 1065 c 256,30,17
 441 1065 441 1065 370.5 960 c 128,-1,18
EndSplineSet
Position2: "'cpsp' Capital Spacing lookup 0 subtable" dx=5 dy=0 dh=10 dv=0
EndChar

StartChar: Obreve
Encoding: 334 334 77
Width: 1155
GlyphClass: 2
Flags: W
LayerCount: 2
Back
Fore
SplineSet
788 1507 m 128,-1,1
 758 1462 758 1462 703 1433.5 c 128,-1,2
 648 1405 648 1405 577 1405 c 256,3,4
 506 1405 506 1405 451 1433.5 c 128,-1,5
 396 1462 396 1462 365.5 1507 c 128,-1,6
 335 1552 335 1552 335 1599 c 1,7,-1
 470 1599 l 1,8,9
 472 1586 472 1586 486.5 1571.5 c 128,-1,10
 501 1557 501 1557 525 1547.5 c 128,-1,11
 549 1538 549 1538 577 1538 c 0,12,13
 606 1538 606 1538 630 1547.5 c 128,-1,14
 654 1557 654 1557 668.5 1571 c 128,-1,15
 683 1585 683 1585 685 1599 c 1,16,-1
 818 1599 l 1,17,0
 818 1552 818 1552 788 1507 c 128,-1,1
957.5 1103 m 128,-1,19
 1093 942 1093 942 1093 621 c 0,20,21
 1093 299 1093 299 957.5 138 c 128,-1,22
 822 -23 822 -23 577 -23 c 0,23,24
 331 -23 331 -23 195.5 138 c 128,-1,25
 60 299 60 299 60 621 c 0,26,27
 60 942 60 942 195.5 1103 c 128,-1,28
 331 1264 331 1264 577 1264 c 0,29,18
 822 1264 822 1264 957.5 1103 c 128,-1,19
370.5 960 m 128,-1,31
 300 855 300 855 300 666 c 2,32,-1
 300 575 l 2,33,34
 300 386 300 386 370.5 282 c 128,-1,35
 441 178 441 178 577 178 c 256,36,37
 713 178 713 178 783 282 c 128,-1,38
 853 386 853 386 853 575 c 2,39,-1
 853 666 l 2,40,41
 853 855 853 855 783 960 c 128,-1,42
 713 1065 713 1065 577 1065 c 256,43,30
 441 1065 441 1065 370.5 960 c 128,-1,31
EndSplineSet
Position2: "'cpsp' Capital Spacing lookup 0 subtable" dx=5 dy=0 dh=10 dv=0
EndChar

StartChar: Ocircumflex
Encoding: 212 212 78
Width: 1155
GlyphClass: 2
Flags: W
LayerCount: 2
Back
Fore
SplineSet
497 1354 m 1,0,-1
 335 1354 l 1,1,-1
 491 1599 l 1,2,-1
 667 1599 l 1,3,-1
 820 1354 l 1,4,-1
 658 1354 l 1,5,-1
 579 1479 l 1,6,-1
 497 1354 l 1,0,-1
957.5 1103 m 128,-1,8
 1093 942 1093 942 1093 621 c 0,9,10
 1093 299 1093 299 957.5 138 c 128,-1,11
 822 -23 822 -23 577 -23 c 0,12,13
 331 -23 331 -23 195.5 138 c 128,-1,14
 60 299 60 299 60 621 c 0,15,16
 60 942 60 942 195.5 1103 c 128,-1,17
 331 1264 331 1264 577 1264 c 0,18,7
 822 1264 822 1264 957.5 1103 c 128,-1,8
370.5 960 m 128,-1,20
 300 855 300 855 300 666 c 2,21,-1
 300 575 l 2,22,23
 300 386 300 386 370.5 282 c 128,-1,24
 441 178 441 178 577 178 c 256,25,26
 713 178 713 178 783 282 c 128,-1,27
 853 386 853 386 853 575 c 2,28,-1
 853 666 l 2,29,30
 853 855 853 855 783 960 c 128,-1,31
 713 1065 713 1065 577 1065 c 256,32,19
 441 1065 441 1065 370.5 960 c 128,-1,20
EndSplineSet
Position2: "'cpsp' Capital Spacing lookup 0 subtable" dx=5 dy=0 dh=10 dv=0
EndChar

StartChar: Odieresis
Encoding: 214 214 79
Width: 1155
GlyphClass: 2
Flags: W
LayerCount: 2
Back
Fore
SplineSet
329 1599 m 1,0,-1
 509 1599 l 1,1,-1
 509 1401 l 1,2,-1
 329 1401 l 1,3,-1
 329 1599 l 1,0,-1
646 1599 m 1,4,-1
 826 1599 l 1,5,-1
 826 1401 l 1,6,-1
 646 1401 l 1,7,-1
 646 1599 l 1,4,-1
957.5 1103 m 128,-1,9
 1093 942 1093 942 1093 621 c 0,10,11
 1093 299 1093 299 957.5 138 c 128,-1,12
 822 -23 822 -23 577 -23 c 0,13,14
 331 -23 331 -23 195.5 138 c 128,-1,15
 60 299 60 299 60 621 c 0,16,17
 60 942 60 942 195.5 1103 c 128,-1,18
 331 1264 331 1264 577 1264 c 0,19,8
 822 1264 822 1264 957.5 1103 c 128,-1,9
370.5 960 m 128,-1,21
 300 855 300 855 300 666 c 2,22,-1
 300 575 l 2,23,24
 300 386 300 386 370.5 282 c 128,-1,25
 441 178 441 178 577 178 c 256,26,27
 713 178 713 178 783 282 c 128,-1,28
 853 386 853 386 853 575 c 2,29,-1
 853 666 l 2,30,31
 853 855 853 855 783 960 c 128,-1,32
 713 1065 713 1065 577 1065 c 256,33,20
 441 1065 441 1065 370.5 960 c 128,-1,21
EndSplineSet
Position2: "'cpsp' Capital Spacing lookup 0 subtable" dx=5 dy=0 dh=10 dv=0
EndChar

StartChar: Ograve
Encoding: 210 210 80
Width: 1155
GlyphClass: 2
Flags: W
LayerCount: 2
Back
Fore
SplineSet
327 1593 m 1,0,-1
 329 1599 l 1,1,-1
 546 1599 l 1,2,-1
 701 1360 l 1,3,-1
 521 1360 l 1,4,-1
 327 1593 l 1,0,-1
957.5 1103 m 128,-1,6
 1093 942 1093 942 1093 621 c 0,7,8
 1093 299 1093 299 957.5 138 c 128,-1,9
 822 -23 822 -23 577 -23 c 0,10,11
 331 -23 331 -23 195.5 138 c 128,-1,12
 60 299 60 299 60 621 c 0,13,14
 60 942 60 942 195.5 1103 c 128,-1,15
 331 1264 331 1264 577 1264 c 0,16,5
 822 1264 822 1264 957.5 1103 c 128,-1,6
370.5 960 m 128,-1,18
 300 855 300 855 300 666 c 2,19,-1
 300 575 l 2,20,21
 300 386 300 386 370.5 282 c 128,-1,22
 441 178 441 178 577 178 c 256,23,24
 713 178 713 178 783 282 c 128,-1,25
 853 386 853 386 853 575 c 2,26,-1
 853 666 l 2,27,28
 853 855 853 855 783 960 c 128,-1,29
 713 1065 713 1065 577 1065 c 256,30,17
 441 1065 441 1065 370.5 960 c 128,-1,18
EndSplineSet
Position2: "'cpsp' Capital Spacing lookup 0 subtable" dx=5 dy=0 dh=10 dv=0
EndChar

StartChar: Ohungarumlaut
Encoding: 336 336 81
Width: 1155
GlyphClass: 2
Flags: W
LayerCount: 2
Back
Fore
SplineSet
374 1360 m 1,0,-1
 486 1599 l 1,1,-1
 667 1599 l 1,2,-1
 669 1593 l 1,3,-1
 517 1360 l 1,4,-1
 374 1360 l 1,0,-1
628 1360 m 1,5,-1
 740 1599 l 1,6,-1
 921 1599 l 1,7,-1
 923 1593 l 1,8,-1
 771 1360 l 1,9,-1
 628 1360 l 1,5,-1
957.5 1103 m 128,-1,11
 1093 942 1093 942 1093 621 c 0,12,13
 1093 299 1093 299 957.5 138 c 128,-1,14
 822 -23 822 -23 577 -23 c 0,15,16
 331 -23 331 -23 195.5 138 c 128,-1,17
 60 299 60 299 60 621 c 0,18,19
 60 942 60 942 195.5 1103 c 128,-1,20
 331 1264 331 1264 577 1264 c 0,21,10
 822 1264 822 1264 957.5 1103 c 128,-1,11
370.5 960 m 128,-1,23
 300 855 300 855 300 666 c 2,24,-1
 300 575 l 2,25,26
 300 386 300 386 370.5 282 c 128,-1,27
 441 178 441 178 577 178 c 256,28,29
 713 178 713 178 783 282 c 128,-1,30
 853 386 853 386 853 575 c 2,31,-1
 853 666 l 2,32,33
 853 855 853 855 783 960 c 128,-1,34
 713 1065 713 1065 577 1065 c 256,35,22
 441 1065 441 1065 370.5 960 c 128,-1,23
EndSplineSet
Position2: "'cpsp' Capital Spacing lookup 0 subtable" dx=5 dy=0 dh=10 dv=0
EndChar

StartChar: Omacron
Encoding: 332 332 82
Width: 1155
GlyphClass: 2
Flags: W
LayerCount: 2
Back
Fore
SplineSet
808 1532 m 1,0,-1
 808 1374 l 1,1,-1
 347 1374 l 1,2,-1
 347 1532 l 1,3,-1
 808 1532 l 1,0,-1
957.5 1103 m 128,-1,5
 1093 942 1093 942 1093 621 c 0,6,7
 1093 299 1093 299 957.5 138 c 128,-1,8
 822 -23 822 -23 577 -23 c 0,9,10
 331 -23 331 -23 195.5 138 c 128,-1,11
 60 299 60 299 60 621 c 0,12,13
 60 942 60 942 195.5 1103 c 128,-1,14
 331 1264 331 1264 577 1264 c 0,15,4
 822 1264 822 1264 957.5 1103 c 128,-1,5
370.5 960 m 128,-1,17
 300 855 300 855 300 666 c 2,18,-1
 300 575 l 2,19,20
 300 386 300 386 370.5 282 c 128,-1,21
 441 178 441 178 577 178 c 256,22,23
 713 178 713 178 783 282 c 128,-1,24
 853 386 853 386 853 575 c 2,25,-1
 853 666 l 2,26,27
 853 855 853 855 783 960 c 128,-1,28
 713 1065 713 1065 577 1065 c 256,29,16
 441 1065 441 1065 370.5 960 c 128,-1,17
EndSplineSet
Position2: "'cpsp' Capital Spacing lookup 0 subtable" dx=5 dy=0 dh=10 dv=0
EndChar

StartChar: Oslash
Encoding: 216 216 83
Width: 1155
GlyphClass: 2
Flags: W
AnchorPoint: "Anchor-1" 0 0 basechar 0
AnchorPoint: "Anchor-0" 578 1241 basechar 0
LayerCount: 2
Back
Fore
SplineSet
1057.5 902.5 m 128,-1,1
 1093 781 1093 781 1093 621 c 0,2,3
 1093 299 1093 299 957.5 138 c 128,-1,4
 822 -23 822 -23 577 -23 c 0,5,6
 415 -23 415 -23 296 49 c 1,7,-1
 224 -68 l 1,8,-1
 71 -68 l 1,9,-1
 198 135 l 1,10,11
 60 303 60 303 60 621 c 0,12,13
 60 942 60 942 195.5 1103 c 128,-1,14
 331 1264 331 1264 577 1264 c 0,15,16
 742 1264 742 1264 857 1192 c 1,17,-1
 931 1309 l 1,18,-1
 1084 1309 l 1,19,-1
 955 1104 l 1,20,0
 1022 1024 1022 1024 1057.5 902.5 c 128,-1,1
370.5 960 m 128,-1,22
 300 855 300 855 300 666 c 2,23,-1
 300 575 l 2,24,25
 300 442 300 442 333 350 c 1,26,-1
 740 1008 l 1,27,28
 675 1065 675 1065 577 1065 c 0,29,21
 441 1065 441 1065 370.5 960 c 128,-1,22
577 178 m 0,31,32
 713 178 713 178 783 282 c 128,-1,33
 853 386 853 386 853 575 c 2,34,-1
 853 666 l 2,35,36
 853 803 853 803 818 887 c 1,37,-1
 413 233 l 1,38,30
 476 178 476 178 577 178 c 0,31,32
EndSplineSet
Position2: "'cpsp' Capital Spacing lookup 0 subtable" dx=5 dy=0 dh=10 dv=0
EndChar

StartChar: Oslashacute
Encoding: 510 510 84
Width: 1155
GlyphClass: 2
Flags: W
LayerCount: 2
Back
Fore
SplineSet
452 1360 m 1,0,-1
 607 1599 l 1,1,-1
 826 1599 l 1,2,-1
 828 1593 l 1,3,-1
 632 1360 l 1,4,-1
 452 1360 l 1,0,-1
1057.5 902.5 m 128,-1,6
 1093 781 1093 781 1093 621 c 0,7,8
 1093 299 1093 299 957.5 138 c 128,-1,9
 822 -23 822 -23 577 -23 c 0,10,11
 415 -23 415 -23 296 49 c 1,12,-1
 224 -68 l 1,13,-1
 71 -68 l 1,14,-1
 198 135 l 1,15,16
 60 303 60 303 60 621 c 0,17,18
 60 942 60 942 195.5 1103 c 128,-1,19
 331 1264 331 1264 577 1264 c 0,20,21
 742 1264 742 1264 857 1192 c 1,22,-1
 931 1309 l 1,23,-1
 1084 1309 l 1,24,-1
 955 1104 l 1,25,5
 1022 1024 1022 1024 1057.5 902.5 c 128,-1,6
370.5 960 m 128,-1,27
 300 855 300 855 300 666 c 2,28,-1
 300 575 l 2,29,30
 300 442 300 442 333 350 c 1,31,-1
 740 1008 l 1,32,33
 675 1065 675 1065 577 1065 c 0,34,26
 441 1065 441 1065 370.5 960 c 128,-1,27
577 178 m 0,36,37
 713 178 713 178 783 282 c 128,-1,38
 853 386 853 386 853 575 c 2,39,-1
 853 666 l 2,40,41
 853 803 853 803 818 887 c 1,42,-1
 413 233 l 1,43,35
 476 178 476 178 577 178 c 0,36,37
EndSplineSet
Position2: "'cpsp' Capital Spacing lookup 0 subtable" dx=5 dy=0 dh=10 dv=0
EndChar

StartChar: Otilde
Encoding: 213 213 85
Width: 1155
GlyphClass: 2
Flags: W
LayerCount: 2
Back
Fore
SplineSet
863 1494.5 m 128,-1,1
 844 1444 844 1444 803.5 1411 c 128,-1,2
 763 1378 763 1378 704 1378 c 0,3,4
 674 1378 674 1378 645.5 1387 c 128,-1,5
 617 1396 617 1396 579 1412 c 0,6,7
 540 1428 540 1428 515.5 1436 c 128,-1,8
 491 1444 491 1444 464 1444 c 0,9,10
 433 1444 433 1444 415.5 1428.5 c 128,-1,11
 398 1413 398 1413 394 1378 c 1,12,-1
 271 1378 l 1,13,14
 271 1431 271 1431 290.5 1482 c 128,-1,15
 310 1533 310 1533 351 1566 c 128,-1,16
 392 1599 392 1599 452 1599 c 0,17,18
 482 1599 482 1599 509 1590.5 c 128,-1,19
 536 1582 536 1582 575 1565 c 0,20,21
 613 1548 613 1548 639 1540 c 128,-1,22
 665 1532 665 1532 693 1532 c 0,23,24
 723 1532 723 1532 740 1547.5 c 128,-1,25
 757 1563 757 1563 761 1599 c 1,26,-1
 882 1599 l 1,27,0
 882 1545 882 1545 863 1494.5 c 128,-1,1
957.5 1103 m 128,-1,29
 1093 942 1093 942 1093 621 c 0,30,31
 1093 299 1093 299 957.5 138 c 128,-1,32
 822 -23 822 -23 577 -23 c 0,33,34
 331 -23 331 -23 195.5 138 c 128,-1,35
 60 299 60 299 60 621 c 0,36,37
 60 942 60 942 195.5 1103 c 128,-1,38
 331 1264 331 1264 577 1264 c 0,39,28
 822 1264 822 1264 957.5 1103 c 128,-1,29
370.5 960 m 128,-1,41
 300 855 300 855 300 666 c 2,42,-1
 300 575 l 2,43,44
 300 386 300 386 370.5 282 c 128,-1,45
 441 178 441 178 577 178 c 256,46,47
 713 178 713 178 783 282 c 128,-1,48
 853 386 853 386 853 575 c 2,49,-1
 853 666 l 2,50,51
 853 855 853 855 783 960 c 128,-1,52
 713 1065 713 1065 577 1065 c 256,53,40
 441 1065 441 1065 370.5 960 c 128,-1,41
EndSplineSet
Position2: "'cpsp' Capital Spacing lookup 0 subtable" dx=5 dy=0 dh=10 dv=0
EndChar

StartChar: OE
Encoding: 338 338 86
Width: 1485
GlyphClass: 2
Flags: W
AnchorPoint: "Anchor-1" 0 0 basechar 0
AnchorPoint: "Anchor-0" 741 1241 basechar 0
LayerCount: 2
Back
Fore
SplineSet
738 1130 m 1,1,-1
 738 1241 l 1,2,-1
 1420 1241 l 1,3,-1
 1420 1036 l 1,4,-1
 970 1036 l 1,5,-1
 970 739 l 1,6,-1
 1342 739 l 1,7,-1
 1342 532 l 1,8,-1
 970 532 l 1,9,-1
 970 207 l 1,10,-1
 1433 207 l 1,11,-1
 1433 0 l 1,12,-1
 738 0 l 1,13,-1
 738 111 l 1,14,15
 636 -23 636 -23 466 -23 c 0,16,17
 269 -23 269 -23 161.5 138 c 128,-1,18
 54 299 54 299 54 621 c 256,19,20
 54 943 54 943 161.5 1103.5 c 128,-1,21
 269 1264 269 1264 466 1264 c 0,22,0
 636 1264 636 1264 738 1130 c 1,1,-1
346.5 970.5 m 128,-1,24
 292 876 292 876 292 666 c 2,25,-1
 292 575 l 2,26,27
 292 366 292 366 346.5 272 c 128,-1,28
 401 178 401 178 513 178 c 0,29,30
 627 178 627 178 681.5 271.5 c 128,-1,31
 736 365 736 365 736 575 c 2,32,-1
 736 666 l 2,33,34
 736 876 736 876 681.5 970.5 c 128,-1,35
 627 1065 627 1065 513 1065 c 0,36,23
 401 1065 401 1065 346.5 970.5 c 128,-1,24
EndSplineSet
Position2: "'cpsp' Capital Spacing lookup 0 subtable" dx=5 dy=0 dh=10 dv=0
EndChar

StartChar: P
Encoding: 80 80 87
Width: 991
GlyphClass: 2
Flags: W
LayerCount: 2
Back
Fore
SplineSet
108 1241 m 1,0,-1
 552 1241 l 2,1,2
 677 1241 677 1241 764.5 1193.5 c 128,-1,3
 852 1146 852 1146 896.5 1062 c 128,-1,4
 941 978 941 978 941 868 c 0,5,6
 941 753 941 753 892.5 665 c 128,-1,7
 844 577 844 577 755.5 529 c 128,-1,8
 667 481 667 481 552 481 c 2,9,-1
 339 481 l 1,10,-1
 339 0 l 1,11,-1
 108 0 l 1,12,-1
 108 1241 l 1,0,-1
656 734.5 m 128,-1,14
 701 783 701 783 701 868 c 0,15,16
 701 946 701 946 655 991 c 128,-1,17
 609 1036 609 1036 527 1036 c 2,18,-1
 339 1036 l 1,19,-1
 339 686 l 1,20,-1
 527 686 l 2,21,13
 611 686 611 686 656 734.5 c 128,-1,14
EndSplineSet
Position2: "'cpsp' Capital Spacing lookup 0 subtable" dx=5 dy=0 dh=10 dv=0
EndChar

StartChar: Thorn
Encoding: 222 222 88
Width: 991
GlyphClass: 2
Flags: W
LayerCount: 2
Back
Fore
SplineSet
764.5 974 m 128,-1,1
 852 926 852 926 896.5 841.5 c 128,-1,2
 941 757 941 757 941 647 c 0,3,4
 941 532 941 532 892.5 444 c 128,-1,5
 844 356 844 356 755.5 308 c 128,-1,6
 667 260 667 260 552 260 c 2,7,-1
 339 260 l 1,8,-1
 339 0 l 1,9,-1
 108 0 l 1,10,-1
 108 1241 l 1,11,-1
 339 1241 l 1,12,-1
 339 1022 l 1,13,-1
 552 1022 l 2,14,0
 677 1022 677 1022 764.5 974 c 128,-1,1
527 465 m 2,15,16
 611 465 611 465 656 513.5 c 128,-1,17
 701 562 701 562 701 647 c 0,18,19
 701 725 701 725 655 770 c 128,-1,20
 609 815 609 815 527 815 c 2,21,-1
 339 815 l 1,22,-1
 339 465 l 1,23,-1
 527 465 l 2,15,16
EndSplineSet
Position2: "'cpsp' Capital Spacing lookup 0 subtable" dx=5 dy=0 dh=10 dv=0
EndChar

StartChar: Q
Encoding: 81 81 89
Width: 1155
GlyphClass: 2
Flags: W
LayerCount: 2
Back
Fore
SplineSet
195.5 1103 m 128,-1,1
 331 1264 331 1264 577 1264 c 0,2,3
 822 1264 822 1264 957.5 1103 c 128,-1,4
 1093 942 1093 942 1093 621 c 0,5,6
 1093 392 1093 392 1023 244.5 c 128,-1,7
 953 97 953 97 822 31 c 1,8,-1
 1062 -225 l 1,9,-1
 777 -225 l 1,10,-1
 599 -23 l 1,11,-1
 577 -23 l 2,12,13
 331 -23 331 -23 195.5 138 c 128,-1,14
 60 299 60 299 60 621 c 0,15,0
 60 942 60 942 195.5 1103 c 128,-1,1
370.5 282 m 128,-1,17
 441 178 441 178 577 178 c 256,18,19
 713 178 713 178 783 282 c 128,-1,20
 853 386 853 386 853 575 c 2,21,-1
 853 666 l 2,22,23
 853 855 853 855 783 960 c 128,-1,24
 713 1065 713 1065 577 1065 c 256,25,26
 441 1065 441 1065 370.5 960 c 128,-1,27
 300 855 300 855 300 666 c 2,28,-1
 300 575 l 2,29,16
 300 386 300 386 370.5 282 c 128,-1,17
EndSplineSet
Position2: "'cpsp' Capital Spacing lookup 0 subtable" dx=5 dy=0 dh=10 dv=0
EndChar

StartChar: R
Encoding: 82 82 90
Width: 1071
GlyphClass: 2
Flags: W
AnchorPoint: "Anchor-1" 537 0 basechar 0
AnchorPoint: "Anchor-0" 537 1241 basechar 0
LayerCount: 2
Back
Fore
SplineSet
836 1196 m 128,-1,1
 921 1151 921 1151 964 1071 c 128,-1,2
 1007 991 1007 991 1007 887 c 0,3,4
 1007 776 1007 776 951.5 692 c 128,-1,5
 896 608 896 608 800 569 c 1,6,-1
 1037 0 l 1,7,-1
 787 0 l 1,8,-1
 581 518 l 1,9,-1
 339 518 l 1,10,-1
 339 0 l 1,11,-1
 108 0 l 1,12,-1
 108 1241 l 1,13,-1
 628 1241 l 2,14,0
 751 1241 751 1241 836 1196 c 128,-1,1
595 723 m 2,15,16
 757 723 757 723 757 887 c 0,17,18
 757 957 757 957 719 996.5 c 128,-1,19
 681 1036 681 1036 603 1036 c 2,20,-1
 339 1036 l 1,21,-1
 339 723 l 1,22,-1
 595 723 l 2,15,16
EndSplineSet
Position2: "'cpsp' Capital Spacing lookup 0 subtable" dx=5 dy=0 dh=10 dv=0
EndChar

StartChar: Racute
Encoding: 340 340 91
Width: 1071
GlyphClass: 2
Flags: W
LayerCount: 2
Back
Fore
SplineSet
411 1360 m 1,0,-1
 566 1599 l 1,1,-1
 783 1599 l 1,2,-1
 785 1593 l 1,3,-1
 589 1360 l 1,4,-1
 411 1360 l 1,0,-1
836 1196 m 128,-1,6
 921 1151 921 1151 964 1071 c 128,-1,7
 1007 991 1007 991 1007 887 c 0,8,9
 1007 776 1007 776 951.5 692 c 128,-1,10
 896 608 896 608 800 569 c 1,11,-1
 1037 0 l 1,12,-1
 787 0 l 1,13,-1
 581 518 l 1,14,-1
 339 518 l 1,15,-1
 339 0 l 1,16,-1
 108 0 l 1,17,-1
 108 1241 l 1,18,-1
 628 1241 l 2,19,5
 751 1241 751 1241 836 1196 c 128,-1,6
595 723 m 2,20,21
 757 723 757 723 757 887 c 0,22,23
 757 957 757 957 719 996.5 c 128,-1,24
 681 1036 681 1036 603 1036 c 2,25,-1
 339 1036 l 1,26,-1
 339 723 l 1,27,-1
 595 723 l 2,20,21
EndSplineSet
Position2: "'cpsp' Capital Spacing lookup 0 subtable" dx=5 dy=0 dh=10 dv=0
EndChar

StartChar: Rcaron
Encoding: 344 344 92
Width: 1071
GlyphClass: 2
Flags: W
LayerCount: 2
Back
Fore
SplineSet
292 1599 m 1,0,-1
 454 1599 l 1,1,-1
 536 1475 l 1,2,-1
 615 1599 l 1,3,-1
 779 1599 l 1,4,-1
 626 1354 l 1,5,-1
 448 1354 l 1,6,-1
 292 1599 l 1,0,-1
836 1196 m 128,-1,8
 921 1151 921 1151 964 1071 c 128,-1,9
 1007 991 1007 991 1007 887 c 0,10,11
 1007 776 1007 776 951.5 692 c 128,-1,12
 896 608 896 608 800 569 c 1,13,-1
 1037 0 l 1,14,-1
 787 0 l 1,15,-1
 581 518 l 1,16,-1
 339 518 l 1,17,-1
 339 0 l 1,18,-1
 108 0 l 1,19,-1
 108 1241 l 1,20,-1
 628 1241 l 2,21,7
 751 1241 751 1241 836 1196 c 128,-1,8
595 723 m 2,22,23
 757 723 757 723 757 887 c 0,24,25
 757 957 757 957 719 996.5 c 128,-1,26
 681 1036 681 1036 603 1036 c 2,27,-1
 339 1036 l 1,28,-1
 339 723 l 1,29,-1
 595 723 l 2,22,23
EndSplineSet
Position2: "'cpsp' Capital Spacing lookup 0 subtable" dx=5 dy=0 dh=10 dv=0
EndChar

StartChar: Rcommaaccent
Encoding: 342 342 93
Width: 1071
GlyphClass: 2
Flags: W
LayerCount: 2
Back
Fore
SplineSet
836 1196 m 128,-1,1
 921 1151 921 1151 964 1071 c 128,-1,2
 1007 991 1007 991 1007 887 c 0,3,4
 1007 776 1007 776 951.5 692 c 128,-1,5
 896 608 896 608 800 569 c 1,6,-1
 1037 0 l 1,7,-1
 787 0 l 1,8,-1
 581 518 l 1,9,-1
 339 518 l 1,10,-1
 339 0 l 1,11,-1
 108 0 l 1,12,-1
 108 1241 l 1,13,-1
 628 1241 l 2,14,0
 751 1241 751 1241 836 1196 c 128,-1,1
595 723 m 2,15,16
 757 723 757 723 757 887 c 0,17,18
 757 957 757 957 719 996.5 c 128,-1,19
 681 1036 681 1036 603 1036 c 2,20,-1
 339 1036 l 1,21,-1
 339 723 l 1,22,-1
 595 723 l 2,15,16
448 -475 m 1,23,-1
 511 -322 l 1,24,-1
 423 -322 l 1,25,-1
 423 -100 l 1,26,-1
 646 -100 l 1,27,-1
 646 -303 l 1,28,-1
 564 -475 l 1,29,-1
 448 -475 l 1,23,-1
EndSplineSet
Position2: "'cpsp' Capital Spacing lookup 0 subtable" dx=5 dy=0 dh=10 dv=0
EndChar

StartChar: S
Encoding: 83 83 94
Width: 991
GlyphClass: 2
Flags: W
AnchorPoint: "Anchor-1" 496 0 basechar 0
AnchorPoint: "Anchor-0" 496 1241 basechar 0
LayerCount: 2
Back
Fore
SplineSet
699 1224.5 m 128,-1,1
 790 1185 790 1185 843 1102.5 c 128,-1,2
 896 1020 896 1020 896 897 c 2,3,-1
 896 877 l 1,4,-1
 661 877 l 1,5,-1
 661 893 l 2,6,7
 661 972 661 972 615.5 1018.5 c 128,-1,8
 570 1065 570 1065 491 1065 c 0,9,10
 410 1065 410 1065 364 1028 c 128,-1,11
 318 991 318 991 318 932 c 0,12,13
 318 882 318 882 348.5 849 c 128,-1,14
 379 816 379 816 425 796 c 128,-1,15
 471 776 471 776 553 750 c 0,16,17
 669 714 669 714 742.5 678 c 128,-1,18
 816 642 816 642 868.5 568.5 c 128,-1,19
 921 495 921 495 921 373 c 0,20,21
 921 169 921 169 804 73 c 128,-1,22
 687 -23 687 -23 482 -23 c 0,23,24
 366 -23 366 -23 268.5 21.5 c 128,-1,25
 171 66 171 66 112.5 154 c 128,-1,26
 54 242 54 242 54 365 c 2,27,-1
 54 403 l 1,28,-1
 296 403 l 1,29,-1
 295 393 l 1,30,-1
 294 375 l 1,31,32
 294 286 294 286 346.5 232 c 128,-1,33
 399 178 399 178 493 178 c 0,34,35
 590 178 590 178 635.5 220.5 c 128,-1,36
 681 263 681 263 681 324 c 256,37,38
 681 385 681 385 648.5 423.5 c 128,-1,39
 616 462 616 462 567.5 484.5 c 128,-1,40
 519 507 519 507 433 535 c 0,41,42
 320 573 320 573 249.5 609 c 128,-1,43
 179 645 179 645 129 719 c 128,-1,44
 79 793 79 793 79 915 c 0,45,46
 79 1028 79 1028 135 1107 c 128,-1,47
 191 1186 191 1186 285 1225 c 128,-1,48
 379 1264 379 1264 493 1264 c 0,49,0
 608 1264 608 1264 699 1224.5 c 128,-1,1
EndSplineSet
Position2: "'cpsp' Capital Spacing lookup 0 subtable" dx=5 dy=0 dh=10 dv=0
EndChar

StartChar: Sacute
Encoding: 346 346 95
Width: 991
GlyphClass: 2
Flags: W
LayerCount: 2
Back
Fore
SplineSet
370 1360 m 1,0,-1
 525 1599 l 1,1,-1
 742 1599 l 1,2,-1
 744 1593 l 1,3,-1
 550 1360 l 1,4,-1
 370 1360 l 1,0,-1
699 1224.5 m 128,-1,6
 790 1185 790 1185 843 1102.5 c 128,-1,7
 896 1020 896 1020 896 897 c 2,8,-1
 896 877 l 1,9,-1
 661 877 l 1,10,-1
 661 893 l 2,11,12
 661 972 661 972 615.5 1018.5 c 128,-1,13
 570 1065 570 1065 491 1065 c 0,14,15
 410 1065 410 1065 364 1028 c 128,-1,16
 318 991 318 991 318 932 c 0,17,18
 318 882 318 882 348.5 849 c 128,-1,19
 379 816 379 816 425 796 c 128,-1,20
 471 776 471 776 553 750 c 0,21,22
 669 714 669 714 742.5 678 c 128,-1,23
 816 642 816 642 868.5 568.5 c 128,-1,24
 921 495 921 495 921 373 c 0,25,26
 921 169 921 169 804 73 c 128,-1,27
 687 -23 687 -23 482 -23 c 0,28,29
 366 -23 366 -23 268.5 21.5 c 128,-1,30
 171 66 171 66 112.5 154 c 128,-1,31
 54 242 54 242 54 365 c 2,32,-1
 54 403 l 1,33,-1
 296 403 l 1,34,-1
 295 393 l 1,35,-1
 294 375 l 1,36,37
 294 286 294 286 346.5 232 c 128,-1,38
 399 178 399 178 493 178 c 0,39,40
 590 178 590 178 635.5 220.5 c 128,-1,41
 681 263 681 263 681 324 c 256,42,43
 681 385 681 385 648.5 423.5 c 128,-1,44
 616 462 616 462 567.5 484.5 c 128,-1,45
 519 507 519 507 433 535 c 0,46,47
 320 573 320 573 249.5 609 c 128,-1,48
 179 645 179 645 129 719 c 128,-1,49
 79 793 79 793 79 915 c 0,50,51
 79 1028 79 1028 135 1107 c 128,-1,52
 191 1186 191 1186 285 1225 c 128,-1,53
 379 1264 379 1264 493 1264 c 0,54,5
 608 1264 608 1264 699 1224.5 c 128,-1,6
EndSplineSet
Position2: "'cpsp' Capital Spacing lookup 0 subtable" dx=5 dy=0 dh=10 dv=0
EndChar

StartChar: Scaron
Encoding: 352 352 96
Width: 991
GlyphClass: 2
Flags: W
LayerCount: 2
Back
Fore
SplineSet
413 1599 m 1,0,-1
 495 1475 l 1,1,-1
 574 1599 l 1,2,-1
 738 1599 l 1,3,-1
 585 1354 l 1,4,-1
 407 1354 l 1,5,-1
 251 1599 l 1,6,-1
 413 1599 l 1,0,-1
699 1224.5 m 128,-1,8
 790 1185 790 1185 843 1102.5 c 128,-1,9
 896 1020 896 1020 896 897 c 2,10,-1
 896 877 l 1,11,-1
 661 877 l 1,12,-1
 661 893 l 2,13,14
 661 972 661 972 615.5 1018.5 c 128,-1,15
 570 1065 570 1065 491 1065 c 0,16,17
 410 1065 410 1065 364 1028 c 128,-1,18
 318 991 318 991 318 932 c 0,19,20
 318 882 318 882 348.5 849 c 128,-1,21
 379 816 379 816 425 796 c 128,-1,22
 471 776 471 776 553 750 c 0,23,24
 669 714 669 714 742.5 678 c 128,-1,25
 816 642 816 642 868.5 568.5 c 128,-1,26
 921 495 921 495 921 373 c 0,27,28
 921 169 921 169 804 73 c 128,-1,29
 687 -23 687 -23 482 -23 c 0,30,31
 366 -23 366 -23 268.5 21.5 c 128,-1,32
 171 66 171 66 112.5 154 c 128,-1,33
 54 242 54 242 54 365 c 2,34,-1
 54 403 l 1,35,-1
 296 403 l 1,36,-1
 295 393 l 1,37,-1
 294 375 l 1,38,39
 294 286 294 286 346.5 232 c 128,-1,40
 399 178 399 178 493 178 c 0,41,42
 590 178 590 178 635.5 220.5 c 128,-1,43
 681 263 681 263 681 324 c 256,44,45
 681 385 681 385 648.5 423.5 c 128,-1,46
 616 462 616 462 567.5 484.5 c 128,-1,47
 519 507 519 507 433 535 c 0,48,49
 320 573 320 573 249.5 609 c 128,-1,50
 179 645 179 645 129 719 c 128,-1,51
 79 793 79 793 79 915 c 0,52,53
 79 1028 79 1028 135 1107 c 128,-1,54
 191 1186 191 1186 285 1225 c 128,-1,55
 379 1264 379 1264 493 1264 c 0,56,7
 608 1264 608 1264 699 1224.5 c 128,-1,8
EndSplineSet
Position2: "'cpsp' Capital Spacing lookup 0 subtable" dx=5 dy=0 dh=10 dv=0
EndChar

StartChar: Scedilla
Encoding: 350 350 97
Width: 991
GlyphClass: 2
Flags: W
LayerCount: 2
Back
Fore
SplineSet
699 1224.5 m 128,-1,1
 790 1185 790 1185 843 1102.5 c 128,-1,2
 896 1020 896 1020 896 897 c 2,3,-1
 896 877 l 1,4,-1
 661 877 l 1,5,-1
 661 893 l 2,6,7
 661 972 661 972 615.5 1018.5 c 128,-1,8
 570 1065 570 1065 491 1065 c 0,9,10
 410 1065 410 1065 364 1028 c 128,-1,11
 318 991 318 991 318 932 c 0,12,13
 318 882 318 882 348.5 849 c 128,-1,14
 379 816 379 816 425 796 c 128,-1,15
 471 776 471 776 553 750 c 0,16,17
 669 714 669 714 742.5 678 c 128,-1,18
 816 642 816 642 868.5 568.5 c 128,-1,19
 921 495 921 495 921 373 c 0,20,21
 921 181 921 181 817 86 c 128,-1,22
 713 -9 713 -9 529 -20 c 1,23,-1
 525 -59 l 1,24,25
 589 -65 589 -65 629 -94.5 c 128,-1,26
 669 -124 669 -124 669 -182 c 0,27,28
 669 -264 669 -264 609 -297 c 128,-1,29
 549 -330 549 -330 472 -330 c 256,30,31
 395 -330 395 -330 318 -315 c 1,32,-1
 318 -227 l 1,33,-1
 448 -227 l 2,34,35
 480 -227 480 -227 496.5 -217 c 128,-1,36
 513 -207 513 -207 513 -182 c 0,37,38
 513 -160 513 -160 499.5 -149.5 c 128,-1,39
 486 -139 486 -139 452 -139 c 2,40,-1
 392 -139 l 1,41,-1
 407 -16 l 1,42,43
 306 -4 306 -4 226 43.5 c 128,-1,44
 146 91 146 91 100 172.5 c 128,-1,45
 54 254 54 254 54 365 c 2,46,-1
 54 403 l 1,47,-1
 296 403 l 1,48,-1
 295 393 l 1,49,-1
 294 375 l 1,50,51
 294 286 294 286 346.5 232 c 128,-1,52
 399 178 399 178 493 178 c 0,53,54
 590 178 590 178 635.5 220.5 c 128,-1,55
 681 263 681 263 681 324 c 256,56,57
 681 385 681 385 648.5 423.5 c 128,-1,58
 616 462 616 462 567.5 484.5 c 128,-1,59
 519 507 519 507 433 535 c 0,60,61
 320 573 320 573 249.5 609 c 128,-1,62
 179 645 179 645 129 719 c 128,-1,63
 79 793 79 793 79 915 c 0,64,65
 79 1028 79 1028 135 1107 c 128,-1,66
 191 1186 191 1186 285 1225 c 128,-1,67
 379 1264 379 1264 493 1264 c 0,68,0
 608 1264 608 1264 699 1224.5 c 128,-1,1
EndSplineSet
Substitution2: "'locl' Localized Forms in Latin lookup 6 subtable" Scommaaccent
Substitution2: "'locl' Localized Forms in Latin lookup 5 subtable" Scommaaccent
Substitution2: "'aalt' Access All Alternates lookup 0 subtable" Scommaaccent
Position2: "'cpsp' Capital Spacing lookup 0 subtable" dx=5 dy=0 dh=10 dv=0
EndChar

StartChar: Scircumflex
Encoding: 348 348 98
Width: 991
GlyphClass: 2
Flags: W
LayerCount: 2
Back
Fore
SplineSet
413 1354 m 1,0,-1
 251 1354 l 1,1,-1
 407 1599 l 1,2,-1
 585 1599 l 1,3,-1
 738 1354 l 1,4,-1
 574 1354 l 1,5,-1
 495 1479 l 1,6,-1
 413 1354 l 1,0,-1
699 1224.5 m 128,-1,8
 790 1185 790 1185 843 1102.5 c 128,-1,9
 896 1020 896 1020 896 897 c 2,10,-1
 896 877 l 1,11,-1
 661 877 l 1,12,-1
 661 893 l 2,13,14
 661 972 661 972 615.5 1018.5 c 128,-1,15
 570 1065 570 1065 491 1065 c 0,16,17
 410 1065 410 1065 364 1028 c 128,-1,18
 318 991 318 991 318 932 c 0,19,20
 318 882 318 882 348.5 849 c 128,-1,21
 379 816 379 816 425 796 c 128,-1,22
 471 776 471 776 553 750 c 0,23,24
 669 714 669 714 742.5 678 c 128,-1,25
 816 642 816 642 868.5 568.5 c 128,-1,26
 921 495 921 495 921 373 c 0,27,28
 921 169 921 169 804 73 c 128,-1,29
 687 -23 687 -23 482 -23 c 0,30,31
 366 -23 366 -23 268.5 21.5 c 128,-1,32
 171 66 171 66 112.5 154 c 128,-1,33
 54 242 54 242 54 365 c 2,34,-1
 54 403 l 1,35,-1
 296 403 l 1,36,-1
 295 393 l 1,37,-1
 294 375 l 1,38,39
 294 286 294 286 346.5 232 c 128,-1,40
 399 178 399 178 493 178 c 0,41,42
 590 178 590 178 635.5 220.5 c 128,-1,43
 681 263 681 263 681 324 c 256,44,45
 681 385 681 385 648.5 423.5 c 128,-1,46
 616 462 616 462 567.5 484.5 c 128,-1,47
 519 507 519 507 433 535 c 0,48,49
 320 573 320 573 249.5 609 c 128,-1,50
 179 645 179 645 129 719 c 128,-1,51
 79 793 79 793 79 915 c 0,52,53
 79 1028 79 1028 135 1107 c 128,-1,54
 191 1186 191 1186 285 1225 c 128,-1,55
 379 1264 379 1264 493 1264 c 0,56,7
 608 1264 608 1264 699 1224.5 c 128,-1,8
EndSplineSet
Position2: "'cpsp' Capital Spacing lookup 0 subtable" dx=5 dy=0 dh=10 dv=0
EndChar

StartChar: T
Encoding: 84 84 100
Width: 907
GlyphClass: 2
Flags: W
AnchorPoint: "Anchor-1" 455 0 basechar 0
AnchorPoint: "Anchor-0" 455 1241 basechar 0
LayerCount: 2
Back
Fore
SplineSet
568 0 m 1,0,-1
 337 0 l 1,1,-1
 337 1036 l 1,2,-1
 30 1036 l 1,3,-1
 30 1241 l 1,4,-1
 878 1241 l 1,5,-1
 878 1036 l 1,6,-1
 568 1036 l 1,7,-1
 568 0 l 1,0,-1
EndSplineSet
Position2: "'cpsp' Capital Spacing lookup 0 subtable" dx=5 dy=0 dh=10 dv=0
EndChar

StartChar: Tbar
Encoding: 358 358 101
Width: 907
GlyphClass: 2
Flags: W
LayerCount: 2
Back
Fore
SplineSet
568 711 m 1,0,-1
 771 711 l 1,1,-1
 771 555 l 1,2,-1
 568 555 l 1,3,-1
 568 0 l 1,4,-1
 337 0 l 1,5,-1
 337 555 l 1,6,-1
 132 555 l 1,7,-1
 132 711 l 1,8,-1
 337 711 l 1,9,-1
 337 1036 l 1,10,-1
 30 1036 l 1,11,-1
 30 1241 l 1,12,-1
 878 1241 l 1,13,-1
 878 1036 l 1,14,-1
 568 1036 l 1,15,-1
 568 711 l 1,0,-1
EndSplineSet
Position2: "'cpsp' Capital Spacing lookup 0 subtable" dx=5 dy=0 dh=10 dv=0
EndChar

StartChar: Tcaron
Encoding: 356 356 102
Width: 907
GlyphClass: 2
Flags: W
LayerCount: 2
Back
Fore
SplineSet
210 1599 m 1,0,-1
 372 1599 l 1,1,-1
 454 1475 l 1,2,-1
 534 1599 l 1,3,-1
 695 1599 l 1,4,-1
 542 1354 l 1,5,-1
 366 1354 l 1,6,-1
 210 1599 l 1,0,-1
568 0 m 1,7,-1
 337 0 l 1,8,-1
 337 1036 l 1,9,-1
 30 1036 l 1,10,-1
 30 1241 l 1,11,-1
 878 1241 l 1,12,-1
 878 1036 l 1,13,-1
 568 1036 l 1,14,-1
 568 0 l 1,7,-1
EndSplineSet
Position2: "'cpsp' Capital Spacing lookup 0 subtable" dx=5 dy=0 dh=10 dv=0
EndChar

StartChar: Tcedilla
Encoding: 354 354 103
Width: 907
GlyphClass: 2
Flags: W
AnchorPoint: "Anchor-1" 455 0 basechar 0
AnchorPoint: "Anchor-0" 455 1241 basechar 0
LayerCount: 2
Back
Fore
SplineSet
484 -59 m 1,0,1
 548 -65 548 -65 587 -94.5 c 128,-1,2
 626 -124 626 -124 626 -182 c 0,3,4
 626 -264 626 -264 566 -297 c 128,-1,5
 506 -330 506 -330 429 -330 c 0,6,7
 350 -330 350 -330 278 -315 c 1,8,-1
 278 -227 l 1,9,-1
 407 -227 l 2,10,11
 438 -227 438 -227 454 -217 c 128,-1,12
 470 -207 470 -207 470 -182 c 0,13,14
 470 -160 470 -160 456.5 -149.5 c 128,-1,15
 443 -139 443 -139 409 -139 c 2,16,-1
 349 -139 l 1,17,-1
 367 0 l 1,18,-1
 337 0 l 1,19,-1
 337 1036 l 1,20,-1
 30 1036 l 1,21,-1
 30 1241 l 1,22,-1
 878 1241 l 1,23,-1
 878 1036 l 1,24,-1
 568 1036 l 1,25,-1
 568 0 l 1,26,-1
 491 0 l 1,27,-1
 484 -59 l 1,0,1
EndSplineSet
Substitution2: "'locl' Localized Forms in Latin lookup 6 subtable" uni021A
Substitution2: "'locl' Localized Forms in Latin lookup 5 subtable" uni021A
Substitution2: "'aalt' Access All Alternates lookup 0 subtable" uni021A
Position2: "'cpsp' Capital Spacing lookup 0 subtable" dx=5 dy=0 dh=10 dv=0
EndChar

StartChar: uni021A
Encoding: 538 538 104
Width: 907
GlyphClass: 2
Flags: W
LayerCount: 2
Back
Fore
SplineSet
568 0 m 1,0,-1
 337 0 l 1,1,-1
 337 1036 l 1,2,-1
 30 1036 l 1,3,-1
 30 1241 l 1,4,-1
 878 1241 l 1,5,-1
 878 1036 l 1,6,-1
 568 1036 l 1,7,-1
 568 0 l 1,0,-1
366 -475 m 1,8,-1
 429 -322 l 1,9,-1
 341 -322 l 1,10,-1
 341 -100 l 1,11,-1
 564 -100 l 1,12,-1
 564 -303 l 1,13,-1
 482 -475 l 1,14,-1
 366 -475 l 1,8,-1
EndSplineSet
Position2: "'cpsp' Capital Spacing lookup 0 subtable" dx=5 dy=0 dh=10 dv=0
EndChar

StartChar: U
Encoding: 85 85 105
Width: 1071
GlyphClass: 2
Flags: W
AnchorPoint: "Anchor-1" 0 0 basechar 0
AnchorPoint: "Anchor-0" 537 1241 basechar 0
LayerCount: 2
Back
Fore
SplineSet
850 83 m 128,-1,1
 738 -23 738 -23 536 -23 c 0,2,3
 333 -23 333 -23 221.5 83 c 128,-1,4
 110 189 110 189 110 389 c 2,5,-1
 110 1241 l 1,6,-1
 341 1241 l 1,7,-1
 341 397 l 2,8,9
 341 291 341 291 392 234.5 c 128,-1,10
 443 178 443 178 536 178 c 0,11,12
 628 178 628 178 679 234.5 c 128,-1,13
 730 291 730 291 730 397 c 2,14,-1
 730 1241 l 1,15,-1
 962 1241 l 1,16,-1
 962 389 l 2,17,0
 962 189 962 189 850 83 c 128,-1,1
EndSplineSet
Position2: "'cpsp' Capital Spacing lookup 0 subtable" dx=5 dy=0 dh=10 dv=0
EndChar

StartChar: Uacute
Encoding: 218 218 106
Width: 1071
GlyphClass: 2
Flags: W
LayerCount: 2
Back
Fore
SplineSet
411 1360 m 1,0,-1
 566 1599 l 1,1,-1
 783 1599 l 1,2,-1
 785 1593 l 1,3,-1
 589 1360 l 1,4,-1
 411 1360 l 1,0,-1
850 83 m 128,-1,6
 738 -23 738 -23 536 -23 c 0,7,8
 333 -23 333 -23 221.5 83 c 128,-1,9
 110 189 110 189 110 389 c 2,10,-1
 110 1241 l 1,11,-1
 341 1241 l 1,12,-1
 341 397 l 2,13,14
 341 291 341 291 392 234.5 c 128,-1,15
 443 178 443 178 536 178 c 0,16,17
 628 178 628 178 679 234.5 c 128,-1,18
 730 291 730 291 730 397 c 2,19,-1
 730 1241 l 1,20,-1
 962 1241 l 1,21,-1
 962 389 l 2,22,5
 962 189 962 189 850 83 c 128,-1,6
EndSplineSet
Position2: "'cpsp' Capital Spacing lookup 0 subtable" dx=5 dy=0 dh=10 dv=0
EndChar

StartChar: Ubreve
Encoding: 364 364 107
Width: 1071
GlyphClass: 2
Flags: W
LayerCount: 2
Back
Fore
SplineSet
746.5 1507 m 128,-1,1
 716 1462 716 1462 660.5 1433.5 c 128,-1,2
 605 1405 605 1405 534 1405 c 0,3,4
 462 1405 462 1405 407.5 1433.5 c 128,-1,5
 353 1462 353 1462 323.5 1507 c 128,-1,6
 294 1552 294 1552 294 1599 c 1,7,-1
 429 1599 l 1,8,9
 432 1577 432 1577 462 1557.5 c 128,-1,10
 492 1538 492 1538 534 1538 c 0,11,12
 564 1538 564 1538 588.5 1547.5 c 128,-1,13
 613 1557 613 1557 627 1571.5 c 128,-1,14
 641 1586 641 1586 642 1599 c 1,15,-1
 777 1599 l 1,16,0
 777 1552 777 1552 746.5 1507 c 128,-1,1
850 83 m 128,-1,18
 738 -23 738 -23 536 -23 c 0,19,20
 333 -23 333 -23 221.5 83 c 128,-1,21
 110 189 110 189 110 389 c 2,22,-1
 110 1241 l 1,23,-1
 341 1241 l 1,24,-1
 341 397 l 2,25,26
 341 291 341 291 392 234.5 c 128,-1,27
 443 178 443 178 536 178 c 0,28,29
 628 178 628 178 679 234.5 c 128,-1,30
 730 291 730 291 730 397 c 2,31,-1
 730 1241 l 1,32,-1
 962 1241 l 1,33,-1
 962 389 l 2,34,17
 962 189 962 189 850 83 c 128,-1,18
EndSplineSet
Position2: "'cpsp' Capital Spacing lookup 0 subtable" dx=5 dy=0 dh=10 dv=0
EndChar

StartChar: Ucircumflex
Encoding: 219 219 108
Width: 1071
GlyphClass: 2
Flags: W
LayerCount: 2
Back
Fore
SplineSet
536 1479 m 1,0,-1
 454 1354 l 1,1,-1
 292 1354 l 1,2,-1
 448 1599 l 1,3,-1
 626 1599 l 1,4,-1
 779 1354 l 1,5,-1
 615 1354 l 1,6,-1
 536 1479 l 1,0,-1
850 83 m 128,-1,8
 738 -23 738 -23 536 -23 c 0,9,10
 333 -23 333 -23 221.5 83 c 128,-1,11
 110 189 110 189 110 389 c 2,12,-1
 110 1241 l 1,13,-1
 341 1241 l 1,14,-1
 341 397 l 2,15,16
 341 291 341 291 392 234.5 c 128,-1,17
 443 178 443 178 536 178 c 0,18,19
 628 178 628 178 679 234.5 c 128,-1,20
 730 291 730 291 730 397 c 2,21,-1
 730 1241 l 1,22,-1
 962 1241 l 1,23,-1
 962 389 l 2,24,7
 962 189 962 189 850 83 c 128,-1,8
EndSplineSet
Position2: "'cpsp' Capital Spacing lookup 0 subtable" dx=5 dy=0 dh=10 dv=0
EndChar

StartChar: Udieresis
Encoding: 220 220 109
Width: 1071
GlyphClass: 2
Flags: W
LayerCount: 2
Back
Fore
SplineSet
288 1599 m 1,0,-1
 468 1599 l 1,1,-1
 468 1401 l 1,2,-1
 288 1401 l 1,3,-1
 288 1599 l 1,0,-1
601 1599 m 1,4,-1
 785 1599 l 1,5,-1
 785 1401 l 1,6,-1
 601 1401 l 1,7,-1
 601 1599 l 1,4,-1
850 83 m 128,-1,9
 738 -23 738 -23 536 -23 c 0,10,11
 333 -23 333 -23 221.5 83 c 128,-1,12
 110 189 110 189 110 389 c 2,13,-1
 110 1241 l 1,14,-1
 341 1241 l 1,15,-1
 341 397 l 2,16,17
 341 291 341 291 392 234.5 c 128,-1,18
 443 178 443 178 536 178 c 0,19,20
 628 178 628 178 679 234.5 c 128,-1,21
 730 291 730 291 730 397 c 2,22,-1
 730 1241 l 1,23,-1
 962 1241 l 1,24,-1
 962 389 l 2,25,8
 962 189 962 189 850 83 c 128,-1,9
EndSplineSet
Position2: "'cpsp' Capital Spacing lookup 0 subtable" dx=5 dy=0 dh=10 dv=0
EndChar

StartChar: Ugrave
Encoding: 217 217 110
Width: 1071
GlyphClass: 2
Flags: W
LayerCount: 2
Back
Fore
SplineSet
286 1593 m 1,0,-1
 288 1599 l 1,1,-1
 505 1599 l 1,2,-1
 661 1360 l 1,3,-1
 480 1360 l 1,4,-1
 286 1593 l 1,0,-1
850 83 m 128,-1,6
 738 -23 738 -23 536 -23 c 0,7,8
 333 -23 333 -23 221.5 83 c 128,-1,9
 110 189 110 189 110 389 c 2,10,-1
 110 1241 l 1,11,-1
 341 1241 l 1,12,-1
 341 397 l 2,13,14
 341 291 341 291 392 234.5 c 128,-1,15
 443 178 443 178 536 178 c 0,16,17
 628 178 628 178 679 234.5 c 128,-1,18
 730 291 730 291 730 397 c 2,19,-1
 730 1241 l 1,20,-1
 962 1241 l 1,21,-1
 962 389 l 2,22,5
 962 189 962 189 850 83 c 128,-1,6
EndSplineSet
Position2: "'cpsp' Capital Spacing lookup 0 subtable" dx=5 dy=0 dh=10 dv=0
EndChar

StartChar: Uhungarumlaut
Encoding: 368 368 111
Width: 1071
GlyphClass: 2
Flags: W
LayerCount: 2
Back
Fore
SplineSet
331 1360 m 1,0,-1
 443 1599 l 1,1,-1
 624 1599 l 1,2,-1
 626 1593 l 1,3,-1
 474 1360 l 1,4,-1
 331 1360 l 1,0,-1
585 1360 m 1,5,-1
 695 1599 l 1,6,-1
 878 1599 l 1,7,-1
 880 1593 l 1,8,-1
 726 1360 l 1,9,-1
 585 1360 l 1,5,-1
850 83 m 128,-1,11
 738 -23 738 -23 536 -23 c 0,12,13
 333 -23 333 -23 221.5 83 c 128,-1,14
 110 189 110 189 110 389 c 2,15,-1
 110 1241 l 1,16,-1
 341 1241 l 1,17,-1
 341 397 l 2,18,19
 341 291 341 291 392 234.5 c 128,-1,20
 443 178 443 178 536 178 c 0,21,22
 628 178 628 178 679 234.5 c 128,-1,23
 730 291 730 291 730 397 c 2,24,-1
 730 1241 l 1,25,-1
 962 1241 l 1,26,-1
 962 389 l 2,27,10
 962 189 962 189 850 83 c 128,-1,11
EndSplineSet
Position2: "'cpsp' Capital Spacing lookup 0 subtable" dx=5 dy=0 dh=10 dv=0
EndChar

StartChar: Umacron
Encoding: 362 362 112
Width: 1071
GlyphClass: 2
Flags: W
LayerCount: 2
Back
Fore
SplineSet
304 1532 m 1,0,-1
 767 1532 l 1,1,-1
 767 1374 l 1,2,-1
 304 1374 l 1,3,-1
 304 1532 l 1,0,-1
850 83 m 128,-1,5
 738 -23 738 -23 536 -23 c 0,6,7
 333 -23 333 -23 221.5 83 c 128,-1,8
 110 189 110 189 110 389 c 2,9,-1
 110 1241 l 1,10,-1
 341 1241 l 1,11,-1
 341 397 l 2,12,13
 341 291 341 291 392 234.5 c 128,-1,14
 443 178 443 178 536 178 c 0,15,16
 628 178 628 178 679 234.5 c 128,-1,17
 730 291 730 291 730 397 c 2,18,-1
 730 1241 l 1,19,-1
 962 1241 l 1,20,-1
 962 389 l 2,21,4
 962 189 962 189 850 83 c 128,-1,5
EndSplineSet
Position2: "'cpsp' Capital Spacing lookup 0 subtable" dx=5 dy=0 dh=10 dv=0
EndChar

StartChar: Uogonek
Encoding: 370 370 113
Width: 1071
GlyphClass: 2
Flags: W
LayerCount: 2
Back
Fore
SplineSet
962 403 m 2,0,1
 962 251 962 251 903 151.5 c 128,-1,2
 844 52 844 52 732 8 c 1,3,4
 712 -14 712 -14 694.5 -49 c 128,-1,5
 677 -84 677 -84 677 -117 c 0,6,7
 677 -157 677 -157 697 -184 c 128,-1,8
 717 -211 717 -211 759 -211 c 2,9,-1
 800 -211 l 1,10,-1
 800 -309 l 1,11,12
 732 -336 732 -336 679 -336 c 0,13,14
 607 -336 607 -336 554 -297 c 128,-1,15
 501 -258 501 -258 501 -172 c 0,16,17
 501 -89 501 -89 553 -23 c 1,18,-1
 536 -23 l 2,19,20
 334 -23 334 -23 222 87 c 128,-1,21
 110 197 110 197 110 403 c 2,22,-1
 110 1241 l 1,23,-1
 341 1241 l 1,24,-1
 341 412 l 2,25,26
 341 298 341 298 392 238 c 128,-1,27
 443 178 443 178 536 178 c 256,28,29
 629 178 629 178 679.5 238 c 128,-1,30
 730 298 730 298 730 412 c 2,31,-1
 730 1241 l 1,32,-1
 962 1241 l 1,33,-1
 962 403 l 2,0,1
EndSplineSet
Position2: "'cpsp' Capital Spacing lookup 0 subtable" dx=5 dy=0 dh=10 dv=0
EndChar

StartChar: Uring
Encoding: 366 366 114
Width: 1071
GlyphClass: 2
Flags: W
LayerCount: 2
Back
Fore
SplineSet
623 1629 m 128,-1,1
 663 1605 663 1605 686.5 1565 c 128,-1,2
 710 1525 710 1525 710 1479 c 0,3,4
 710 1431 710 1431 686.5 1391 c 128,-1,5
 663 1351 663 1351 623 1328 c 128,-1,6
 583 1305 583 1305 536 1305 c 256,7,8
 489 1305 489 1305 449 1328 c 128,-1,9
 409 1351 409 1351 385 1391 c 128,-1,10
 361 1431 361 1431 361 1479 c 0,11,12
 361 1526 361 1526 384.5 1566 c 128,-1,13
 408 1606 408 1606 448 1629.5 c 128,-1,14
 488 1653 488 1653 536 1653 c 0,15,0
 583 1653 583 1653 623 1629 c 128,-1,1
476 1538.5 m 128,-1,17
 452 1514 452 1514 452 1479 c 256,18,19
 452 1444 452 1444 476 1420.5 c 128,-1,20
 500 1397 500 1397 536 1397 c 0,21,22
 570 1397 570 1397 593.5 1420.5 c 128,-1,23
 617 1444 617 1444 617 1479 c 256,24,25
 617 1514 617 1514 593.5 1538.5 c 128,-1,26
 570 1563 570 1563 536 1563 c 0,27,16
 500 1563 500 1563 476 1538.5 c 128,-1,17
850 83 m 128,-1,29
 738 -23 738 -23 536 -23 c 0,30,31
 333 -23 333 -23 221.5 83 c 128,-1,32
 110 189 110 189 110 389 c 2,33,-1
 110 1241 l 1,34,-1
 341 1241 l 1,35,-1
 341 397 l 2,36,37
 341 291 341 291 392 234.5 c 128,-1,38
 443 178 443 178 536 178 c 0,39,40
 628 178 628 178 679 234.5 c 128,-1,41
 730 291 730 291 730 397 c 2,42,-1
 730 1241 l 1,43,-1
 962 1241 l 1,44,-1
 962 389 l 2,45,28
 962 189 962 189 850 83 c 128,-1,29
EndSplineSet
Position2: "'cpsp' Capital Spacing lookup 0 subtable" dx=5 dy=0 dh=10 dv=0
EndChar

StartChar: Utilde
Encoding: 360 360 115
Width: 1071
GlyphClass: 2
Flags: W
LayerCount: 2
Back
Fore
SplineSet
820 1494.5 m 128,-1,1
 801 1444 801 1444 760.5 1411 c 128,-1,2
 720 1378 720 1378 661 1378 c 0,3,4
 631 1378 631 1378 602.5 1387 c 128,-1,5
 574 1396 574 1396 536 1412 c 0,6,7
 497 1428 497 1428 472.5 1436 c 128,-1,8
 448 1444 448 1444 421 1444 c 0,9,10
 390 1444 390 1444 372.5 1428.5 c 128,-1,11
 355 1413 355 1413 349 1378 c 1,12,-1
 230 1378 l 1,13,14
 230 1431 230 1431 249 1482 c 128,-1,15
 268 1533 268 1533 308.5 1566 c 128,-1,16
 349 1599 349 1599 409 1599 c 0,17,18
 439 1599 439 1599 466.5 1590 c 128,-1,19
 494 1581 494 1581 534 1564 c 0,20,21
 573 1548 573 1548 597.5 1540 c 128,-1,22
 622 1532 622 1532 648 1532 c 0,23,24
 679 1532 679 1532 696.5 1547 c 128,-1,25
 714 1562 714 1562 720 1599 c 1,26,-1
 839 1599 l 1,27,0
 839 1545 839 1545 820 1494.5 c 128,-1,1
850 83 m 128,-1,29
 738 -23 738 -23 536 -23 c 0,30,31
 333 -23 333 -23 221.5 83 c 128,-1,32
 110 189 110 189 110 389 c 2,33,-1
 110 1241 l 1,34,-1
 341 1241 l 1,35,-1
 341 397 l 2,36,37
 341 291 341 291 392 234.5 c 128,-1,38
 443 178 443 178 536 178 c 0,39,40
 628 178 628 178 679 234.5 c 128,-1,41
 730 291 730 291 730 397 c 2,42,-1
 730 1241 l 1,43,-1
 962 1241 l 1,44,-1
 962 389 l 2,45,28
 962 189 962 189 850 83 c 128,-1,29
EndSplineSet
Position2: "'cpsp' Capital Spacing lookup 0 subtable" dx=5 dy=0 dh=10 dv=0
EndChar

StartChar: V
Encoding: 86 86 116
Width: 991
GlyphClass: 2
Flags: W
LayerCount: 2
Back
Fore
SplineSet
240 1241 m 1,0,-1
 500 352 l 1,1,-1
 508 352 l 1,2,-1
 764 1241 l 1,3,-1
 991 1241 l 1,4,-1
 612 0 l 1,5,-1
 379 0 l 1,6,-1
 0 1241 l 1,7,-1
 240 1241 l 1,0,-1
EndSplineSet
Position2: "'cpsp' Capital Spacing lookup 0 subtable" dx=5 dy=0 dh=10 dv=0
EndChar

StartChar: W
Encoding: 87 87 117
Width: 1401
GlyphClass: 2
Flags: W
AnchorPoint: "Anchor-1" 0 0 basechar 0
AnchorPoint: "Anchor-0" 700 1241 basechar 0
LayerCount: 2
Back
Fore
SplineSet
711 889 m 128,-1,1
 704 948 704 948 702 967 c 1,2,-1
 694 967 l 1,3,4
 692 947 692 947 684 885.5 c 128,-1,5
 676 824 676 824 670 791 c 2,6,-1
 504 0 l 1,7,-1
 270 0 l 1,8,-1
 0 1241 l 1,9,-1
 229 1241 l 1,10,-1
 379 477 l 2,11,12
 385 444 385 444 392 384 c 128,-1,13
 399 324 399 324 401 305 c 1,14,-1
 410 305 l 1,15,16
 412 325 412 325 419 385 c 128,-1,17
 426 445 426 445 432 477 c 2,18,-1
 584 1241 l 1,19,-1
 846 1241 l 1,20,-1
 993 477 l 2,21,22
 1000 448 1000 448 1008 386.5 c 128,-1,23
 1016 325 1016 325 1018 305 c 1,24,-1
 1024 305 l 1,25,26
 1026 323 1026 323 1033.5 381 c 128,-1,27
 1041 439 1041 439 1049 477 c 2,28,-1
 1200 1241 l 1,29,-1
 1399 1241 l 1,30,-1
 1130 0 l 1,31,-1
 897 0 l 1,32,-1
 727 791 l 2,33,0
 718 830 718 830 711 889 c 128,-1,1
EndSplineSet
Position2: "'cpsp' Capital Spacing lookup 0 subtable" dx=5 dy=0 dh=10 dv=0
EndChar

StartChar: Wacute
Encoding: 7810 7810 118
Width: 1401
GlyphClass: 2
Flags: W
LayerCount: 2
Back
Fore
SplineSet
575 1360 m 1,0,-1
 731 1599 l 1,1,-1
 948 1599 l 1,2,-1
 950 1593 l 1,3,-1
 756 1360 l 1,4,-1
 575 1360 l 1,0,-1
727 791 m 2,5,6
 718 830 718 830 711 889 c 128,-1,7
 704 948 704 948 702 967 c 1,8,-1
 694 967 l 1,9,10
 692 947 692 947 684 885.5 c 128,-1,11
 676 824 676 824 670 791 c 2,12,-1
 504 0 l 1,13,-1
 270 0 l 1,14,-1
 0 1241 l 1,15,-1
 229 1241 l 1,16,-1
 379 477 l 2,17,18
 385 444 385 444 392 384 c 128,-1,19
 399 324 399 324 401 305 c 1,20,-1
 410 305 l 1,21,22
 412 325 412 325 419 385 c 128,-1,23
 426 445 426 445 432 477 c 2,24,-1
 584 1241 l 1,25,-1
 846 1241 l 1,26,-1
 993 477 l 2,27,28
 1000 448 1000 448 1008 386.5 c 128,-1,29
 1016 325 1016 325 1018 305 c 1,30,-1
 1024 305 l 1,31,32
 1026 323 1026 323 1033.5 381 c 128,-1,33
 1041 439 1041 439 1049 477 c 2,34,-1
 1200 1241 l 1,35,-1
 1399 1241 l 1,36,-1
 1130 0 l 1,37,-1
 897 0 l 1,38,-1
 727 791 l 2,5,6
EndSplineSet
Position2: "'cpsp' Capital Spacing lookup 0 subtable" dx=5 dy=0 dh=10 dv=0
EndChar

StartChar: Wcircumflex
Encoding: 372 372 119
Width: 1401
GlyphClass: 2
Flags: W
LayerCount: 2
Back
Fore
SplineSet
621 1354 m 1,0,-1
 459 1354 l 1,1,-1
 614 1599 l 1,2,-1
 791 1599 l 1,3,-1
 944 1354 l 1,4,-1
 782 1354 l 1,5,-1
 702 1479 l 1,6,-1
 621 1354 l 1,0,-1
711 889 m 128,-1,8
 704 948 704 948 702 967 c 1,9,-1
 694 967 l 1,10,11
 692 947 692 947 684 885.5 c 128,-1,12
 676 824 676 824 670 791 c 2,13,-1
 504 0 l 1,14,-1
 270 0 l 1,15,-1
 0 1241 l 1,16,-1
 229 1241 l 1,17,-1
 379 477 l 2,18,19
 385 444 385 444 392 384 c 128,-1,20
 399 324 399 324 401 305 c 1,21,-1
 410 305 l 1,22,23
 412 325 412 325 419 385 c 128,-1,24
 426 445 426 445 432 477 c 2,25,-1
 584 1241 l 1,26,-1
 846 1241 l 1,27,-1
 993 477 l 2,28,29
 1000 448 1000 448 1008 386.5 c 128,-1,30
 1016 325 1016 325 1018 305 c 1,31,-1
 1024 305 l 1,32,33
 1026 323 1026 323 1033.5 381 c 128,-1,34
 1041 439 1041 439 1049 477 c 2,35,-1
 1200 1241 l 1,36,-1
 1399 1241 l 1,37,-1
 1130 0 l 1,38,-1
 897 0 l 1,39,-1
 727 791 l 2,40,7
 718 830 718 830 711 889 c 128,-1,8
EndSplineSet
Position2: "'cpsp' Capital Spacing lookup 0 subtable" dx=5 dy=0 dh=10 dv=0
EndChar

StartChar: Wdieresis
Encoding: 7812 7812 120
Width: 1401
GlyphClass: 2
Flags: W
LayerCount: 2
Back
Fore
SplineSet
453 1599 m 1,0,-1
 633 1599 l 1,1,-1
 633 1401 l 1,2,-1
 453 1401 l 1,3,-1
 453 1599 l 1,0,-1
770 1599 m 1,4,-1
 950 1599 l 1,5,-1
 950 1401 l 1,6,-1
 770 1401 l 1,7,-1
 770 1599 l 1,4,-1
727 791 m 2,8,9
 718 830 718 830 711 889 c 128,-1,10
 704 948 704 948 702 967 c 1,11,-1
 694 967 l 1,12,13
 692 947 692 947 684 885.5 c 128,-1,14
 676 824 676 824 670 791 c 2,15,-1
 504 0 l 1,16,-1
 270 0 l 1,17,-1
 0 1241 l 1,18,-1
 229 1241 l 1,19,-1
 379 477 l 2,20,21
 385 444 385 444 392 384 c 128,-1,22
 399 324 399 324 401 305 c 1,23,-1
 410 305 l 1,24,25
 412 325 412 325 419 385 c 128,-1,26
 426 445 426 445 432 477 c 2,27,-1
 584 1241 l 1,28,-1
 846 1241 l 1,29,-1
 993 477 l 2,30,31
 1000 448 1000 448 1008 386.5 c 128,-1,32
 1016 325 1016 325 1018 305 c 1,33,-1
 1024 305 l 1,34,35
 1026 323 1026 323 1033.5 381 c 128,-1,36
 1041 439 1041 439 1049 477 c 2,37,-1
 1200 1241 l 1,38,-1
 1399 1241 l 1,39,-1
 1130 0 l 1,40,-1
 897 0 l 1,41,-1
 727 791 l 2,8,9
EndSplineSet
Position2: "'cpsp' Capital Spacing lookup 0 subtable" dx=5 dy=0 dh=10 dv=0
EndChar

StartChar: Wgrave
Encoding: 7808 7808 121
Width: 1401
GlyphClass: 2
Flags: W
LayerCount: 2
Back
Fore
SplineSet
451 1593 m 1,0,-1
 453 1599 l 1,1,-1
 670 1599 l 1,2,-1
 825 1360 l 1,3,-1
 647 1360 l 1,4,-1
 451 1593 l 1,0,-1
727 791 m 2,5,6
 718 830 718 830 711 889 c 128,-1,7
 704 948 704 948 702 967 c 1,8,-1
 694 967 l 1,9,10
 692 947 692 947 684 885.5 c 128,-1,11
 676 824 676 824 670 791 c 2,12,-1
 504 0 l 1,13,-1
 270 0 l 1,14,-1
 0 1241 l 1,15,-1
 229 1241 l 1,16,-1
 379 477 l 2,17,18
 385 444 385 444 392 384 c 128,-1,19
 399 324 399 324 401 305 c 1,20,-1
 410 305 l 1,21,22
 412 325 412 325 419 385 c 128,-1,23
 426 445 426 445 432 477 c 2,24,-1
 584 1241 l 1,25,-1
 846 1241 l 1,26,-1
 993 477 l 2,27,28
 1000 448 1000 448 1008 386.5 c 128,-1,29
 1016 325 1016 325 1018 305 c 1,30,-1
 1024 305 l 1,31,32
 1026 323 1026 323 1033.5 381 c 128,-1,33
 1041 439 1041 439 1049 477 c 2,34,-1
 1200 1241 l 1,35,-1
 1399 1241 l 1,36,-1
 1130 0 l 1,37,-1
 897 0 l 1,38,-1
 727 791 l 2,5,6
EndSplineSet
Position2: "'cpsp' Capital Spacing lookup 0 subtable" dx=5 dy=0 dh=10 dv=0
EndChar

StartChar: X
Encoding: 88 88 122
Width: 991
GlyphClass: 2
Flags: W
LayerCount: 2
Back
Fore
SplineSet
731 0 m 1,0,-1
 489 469 l 1,1,-1
 481 469 l 1,2,-1
 242 0 l 1,3,-1
 0 0 l 1,4,-1
 350 651 l 1,5,-1
 33 1241 l 1,6,-1
 291 1241 l 1,7,-1
 500 836 l 1,8,-1
 508 836 l 1,9,-1
 715 1241 l 1,10,-1
 956 1241 l 1,11,-1
 635 655 l 1,12,-1
 989 0 l 1,13,-1
 731 0 l 1,0,-1
EndSplineSet
Position2: "'cpsp' Capital Spacing lookup 0 subtable" dx=5 dy=0 dh=10 dv=0
EndChar

StartChar: Y
Encoding: 89 89 123
Width: 991
GlyphClass: 2
Flags: W
AnchorPoint: "Anchor-1" 0 0 basechar 0
AnchorPoint: "Anchor-0" 496 1241 basechar 0
LayerCount: 2
Back
Fore
SplineSet
381 469 m 1,0,-1
 0 1241 l 1,1,-1
 244 1241 l 1,2,-1
 498 696 l 1,3,-1
 506 696 l 1,4,-1
 758 1241 l 1,5,-1
 991 1241 l 1,6,-1
 612 469 l 1,7,-1
 612 0 l 1,8,-1
 381 0 l 1,9,-1
 381 469 l 1,0,-1
EndSplineSet
Position2: "'cpsp' Capital Spacing lookup 0 subtable" dx=5 dy=0 dh=10 dv=0
EndChar

StartChar: Yacute
Encoding: 221 221 124
Width: 991
GlyphClass: 2
Flags: W
LayerCount: 2
Back
Fore
SplineSet
371 1360 m 1,0,-1
 526 1599 l 1,1,-1
 743 1599 l 1,2,-1
 745 1593 l 1,3,-1
 551 1360 l 1,4,-1
 371 1360 l 1,0,-1
381 0 m 1,5,-1
 381 469 l 1,6,-1
 0 1241 l 1,7,-1
 244 1241 l 1,8,-1
 498 696 l 1,9,-1
 506 696 l 1,10,-1
 758 1241 l 1,11,-1
 991 1241 l 1,12,-1
 612 469 l 1,13,-1
 612 0 l 1,14,-1
 381 0 l 1,5,-1
EndSplineSet
Position2: "'cpsp' Capital Spacing lookup 0 subtable" dx=5 dy=0 dh=10 dv=0
EndChar

StartChar: Ycircumflex
Encoding: 374 374 125
Width: 991
GlyphClass: 2
Flags: W
LayerCount: 2
Back
Fore
SplineSet
414 1354 m 1,0,-1
 252 1354 l 1,1,-1
 408 1599 l 1,2,-1
 586 1599 l 1,3,-1
 739 1354 l 1,4,-1
 575 1354 l 1,5,-1
 496 1479 l 1,6,-1
 414 1354 l 1,0,-1
381 469 m 1,7,-1
 0 1241 l 1,8,-1
 244 1241 l 1,9,-1
 498 696 l 1,10,-1
 506 696 l 1,11,-1
 758 1241 l 1,12,-1
 991 1241 l 1,13,-1
 612 469 l 1,14,-1
 612 0 l 1,15,-1
 381 0 l 1,16,-1
 381 469 l 1,7,-1
EndSplineSet
Position2: "'cpsp' Capital Spacing lookup 0 subtable" dx=5 dy=0 dh=10 dv=0
EndChar

StartChar: Ydieresis
Encoding: 376 376 126
Width: 991
GlyphClass: 2
Flags: W
LayerCount: 2
Back
Fore
SplineSet
246 1599 m 1,0,-1
 428 1599 l 1,1,-1
 428 1401 l 1,2,-1
 246 1401 l 1,3,-1
 246 1599 l 1,0,-1
563 1599 m 1,4,-1
 743 1599 l 1,5,-1
 743 1401 l 1,6,-1
 563 1401 l 1,7,-1
 563 1599 l 1,4,-1
381 0 m 1,8,-1
 381 469 l 1,9,-1
 0 1241 l 1,10,-1
 244 1241 l 1,11,-1
 498 696 l 1,12,-1
 506 696 l 1,13,-1
 758 1241 l 1,14,-1
 991 1241 l 1,15,-1
 612 469 l 1,16,-1
 612 0 l 1,17,-1
 381 0 l 1,8,-1
EndSplineSet
Position2: "'cpsp' Capital Spacing lookup 0 subtable" dx=5 dy=0 dh=10 dv=0
EndChar

StartChar: Ygrave
Encoding: 7922 7922 127
Width: 991
GlyphClass: 2
Flags: W
LayerCount: 2
Back
Fore
SplineSet
244 1593 m 1,0,-1
 246 1599 l 1,1,-1
 463 1599 l 1,2,-1
 618 1360 l 1,3,-1
 440 1360 l 1,4,-1
 244 1593 l 1,0,-1
381 0 m 1,5,-1
 381 469 l 1,6,-1
 0 1241 l 1,7,-1
 244 1241 l 1,8,-1
 498 696 l 1,9,-1
 506 696 l 1,10,-1
 758 1241 l 1,11,-1
 991 1241 l 1,12,-1
 612 469 l 1,13,-1
 612 0 l 1,14,-1
 381 0 l 1,5,-1
EndSplineSet
Position2: "'cpsp' Capital Spacing lookup 0 subtable" dx=5 dy=0 dh=10 dv=0
EndChar

StartChar: Z
Encoding: 90 90 128
Width: 907
GlyphClass: 2
Flags: W
AnchorPoint: "Anchor-1" 0 0 basechar 0
AnchorPoint: "Anchor-0" 455 1241 basechar 0
LayerCount: 2
Back
Fore
SplineSet
867 207 m 1,0,-1
 867 0 l 1,1,-1
 28 0 l 1,2,-1
 28 88 l 1,3,-1
 538 1036 l 1,4,-1
 67 1036 l 1,5,-1
 67 1241 l 1,6,-1
 855 1241 l 1,7,-1
 855 1151 l 1,8,-1
 345 207 l 1,9,-1
 867 207 l 1,0,-1
EndSplineSet
Position2: "'cpsp' Capital Spacing lookup 0 subtable" dx=5 dy=0 dh=10 dv=0
EndChar

StartChar: Zacute
Encoding: 377 377 129
Width: 907
GlyphClass: 2
Flags: W
LayerCount: 2
Back
Fore
SplineSet
329 1360 m 1,0,-1
 484 1599 l 1,1,-1
 701 1599 l 1,2,-1
 704 1593 l 1,3,-1
 507 1360 l 1,4,-1
 329 1360 l 1,0,-1
867 207 m 1,5,-1
 867 0 l 1,6,-1
 28 0 l 1,7,-1
 28 88 l 1,8,-1
 538 1036 l 1,9,-1
 67 1036 l 1,10,-1
 67 1241 l 1,11,-1
 855 1241 l 1,12,-1
 855 1151 l 1,13,-1
 345 207 l 1,14,-1
 867 207 l 1,5,-1
EndSplineSet
Position2: "'cpsp' Capital Spacing lookup 0 subtable" dx=5 dy=0 dh=10 dv=0
EndChar

StartChar: Zcaron
Encoding: 381 381 130
Width: 907
GlyphClass: 2
Flags: W
LayerCount: 2
Back
Fore
SplineSet
210 1599 m 1,0,-1
 372 1599 l 1,1,-1
 454 1475 l 1,2,-1
 534 1599 l 1,3,-1
 695 1599 l 1,4,-1
 542 1354 l 1,5,-1
 366 1354 l 1,6,-1
 210 1599 l 1,0,-1
867 207 m 1,7,-1
 867 0 l 1,8,-1
 28 0 l 1,9,-1
 28 88 l 1,10,-1
 538 1036 l 1,11,-1
 67 1036 l 1,12,-1
 67 1241 l 1,13,-1
 855 1241 l 1,14,-1
 855 1151 l 1,15,-1
 345 207 l 1,16,-1
 867 207 l 1,7,-1
EndSplineSet
Position2: "'cpsp' Capital Spacing lookup 0 subtable" dx=5 dy=0 dh=10 dv=0
EndChar

StartChar: Zdotaccent
Encoding: 379 379 131
Width: 907
GlyphClass: 2
Flags: W
LayerCount: 2
Back
Fore
SplineSet
355 1599 m 1,0,-1
 550 1599 l 1,1,-1
 550 1391 l 1,2,-1
 355 1391 l 1,3,-1
 355 1599 l 1,0,-1
867 207 m 1,4,-1
 867 0 l 1,5,-1
 28 0 l 1,6,-1
 28 88 l 1,7,-1
 538 1036 l 1,8,-1
 67 1036 l 1,9,-1
 67 1241 l 1,10,-1
 855 1241 l 1,11,-1
 855 1151 l 1,12,-1
 345 207 l 1,13,-1
 867 207 l 1,4,-1
EndSplineSet
Position2: "'cpsp' Capital Spacing lookup 0 subtable" dx=5 dy=0 dh=10 dv=0
EndChar

StartChar: a
Encoding: 97 97 132
Width: 825
GlyphClass: 2
Flags: W
AnchorPoint: "Anchor-1" 0 0 basechar 0
AnchorPoint: "Anchor-0" 414 952 basechar 0
LayerCount: 2
Back
Fore
SplineSet
635 902 m 128,-1,1
 716 829 716 829 716 694 c 2,2,-1
 716 225 l 2,3,4
 716 193 716 193 730.5 177.5 c 128,-1,5
 745 162 745 162 767 162 c 2,6,-1
 810 162 l 1,7,-1
 810 8 l 1,8,9
 759 -23 759 -23 681 -23 c 0,10,11
 618 -23 618 -23 574.5 11 c 128,-1,12
 531 45 531 45 513 102 c 1,13,-1
 505 102 l 1,14,15
 459 39 459 39 405.5 8 c 128,-1,16
 352 -23 352 -23 263 -23 c 0,17,18
 210 -23 210 -23 155.5 0.5 c 128,-1,19
 101 24 101 24 62.5 84 c 128,-1,20
 24 144 24 144 24 246 c 0,21,22
 24 428 24 428 147.5 504 c 128,-1,23
 271 580 271 580 497 580 c 1,24,-1
 497 678 l 2,25,26
 497 734 497 734 475.5 765.5 c 128,-1,27
 454 797 454 797 396 797 c 0,28,29
 336 797 336 797 310 767 c 128,-1,30
 284 737 284 737 284 696 c 2,31,-1
 284 670 l 1,32,-1
 71 670 l 1,33,34
 69 680 69 680 69 711 c 0,35,36
 69 789 69 789 109 849 c 128,-1,37
 149 909 149 909 222 942 c 128,-1,38
 295 975 295 975 392 975 c 0,39,0
 554 975 554 975 635 902 c 128,-1,1
317 386.5 m 128,-1,41
 247 351 247 351 247 266 c 0,42,43
 247 216 247 216 273.5 188 c 128,-1,44
 300 160 300 160 353 160 c 0,45,46
 427 160 427 160 462 218 c 128,-1,47
 497 276 497 276 497 367 c 2,48,-1
 497 422 l 1,49,40
 387 422 387 422 317 386.5 c 128,-1,41
EndSplineSet
Substitution2: "Single Substitution lookup 36 subtable" ordfeminine
Substitution2: "'aalt' Access All Alternates lookup 0 subtable" ordfeminine
EndChar

StartChar: aacute
Encoding: 225 225 133
Width: 825
GlyphClass: 2
Flags: W
LayerCount: 2
Back
Fore
SplineSet
267 1069 m 1,0,-1
 423 1309 l 1,1,-1
 640 1309 l 1,2,-1
 642 1303 l 1,3,-1
 445 1069 l 1,4,-1
 267 1069 l 1,0,-1
635 902 m 128,-1,6
 716 829 716 829 716 694 c 2,7,-1
 716 225 l 2,8,9
 716 193 716 193 730.5 177.5 c 128,-1,10
 745 162 745 162 767 162 c 2,11,-1
 810 162 l 1,12,-1
 810 8 l 1,13,14
 759 -23 759 -23 681 -23 c 0,15,16
 618 -23 618 -23 574.5 11 c 128,-1,17
 531 45 531 45 513 102 c 1,18,-1
 505 102 l 1,19,20
 459 39 459 39 405.5 8 c 128,-1,21
 352 -23 352 -23 263 -23 c 0,22,23
 210 -23 210 -23 155.5 0.5 c 128,-1,24
 101 24 101 24 62.5 84 c 128,-1,25
 24 144 24 144 24 246 c 0,26,27
 24 428 24 428 147.5 504 c 128,-1,28
 271 580 271 580 497 580 c 1,29,-1
 497 678 l 2,30,31
 497 734 497 734 475.5 765.5 c 128,-1,32
 454 797 454 797 396 797 c 0,33,34
 336 797 336 797 310 767 c 128,-1,35
 284 737 284 737 284 696 c 2,36,-1
 284 670 l 1,37,-1
 71 670 l 1,38,39
 69 680 69 680 69 711 c 0,40,41
 69 789 69 789 109 849 c 128,-1,42
 149 909 149 909 222 942 c 128,-1,43
 295 975 295 975 392 975 c 0,44,5
 554 975 554 975 635 902 c 128,-1,6
317 386.5 m 128,-1,46
 247 351 247 351 247 266 c 0,47,48
 247 216 247 216 273.5 188 c 128,-1,49
 300 160 300 160 353 160 c 0,50,51
 427 160 427 160 462 218 c 128,-1,52
 497 276 497 276 497 367 c 2,53,-1
 497 422 l 1,54,45
 387 422 387 422 317 386.5 c 128,-1,46
EndSplineSet
EndChar

StartChar: abreve
Encoding: 259 259 134
Width: 825
GlyphClass: 2
Flags: W
LayerCount: 2
Back
Fore
SplineSet
603.5 1218 m 128,-1,1
 573 1173 573 1173 517.5 1144.5 c 128,-1,2
 462 1116 462 1116 390 1116 c 0,3,4
 319 1116 319 1116 264 1144.5 c 128,-1,5
 209 1173 209 1173 179 1218 c 128,-1,6
 149 1263 149 1263 149 1309 c 1,7,-1
 286 1309 l 1,8,9
 288 1296 288 1296 302.5 1282 c 128,-1,10
 317 1268 317 1268 340 1258.5 c 128,-1,11
 363 1249 363 1249 390 1249 c 0,12,13
 419 1249 419 1249 443.5 1258.5 c 128,-1,14
 468 1268 468 1268 482.5 1282 c 128,-1,15
 497 1296 497 1296 499 1309 c 1,16,-1
 634 1309 l 1,17,0
 634 1263 634 1263 603.5 1218 c 128,-1,1
635 902 m 128,-1,19
 716 829 716 829 716 694 c 2,20,-1
 716 225 l 2,21,22
 716 193 716 193 730.5 177.5 c 128,-1,23
 745 162 745 162 767 162 c 2,24,-1
 810 162 l 1,25,-1
 810 8 l 1,26,27
 759 -23 759 -23 681 -23 c 0,28,29
 618 -23 618 -23 574.5 11 c 128,-1,30
 531 45 531 45 513 102 c 1,31,-1
 505 102 l 1,32,33
 459 39 459 39 405.5 8 c 128,-1,34
 352 -23 352 -23 263 -23 c 0,35,36
 210 -23 210 -23 155.5 0.5 c 128,-1,37
 101 24 101 24 62.5 84 c 128,-1,38
 24 144 24 144 24 246 c 0,39,40
 24 428 24 428 147.5 504 c 128,-1,41
 271 580 271 580 497 580 c 1,42,-1
 497 678 l 2,43,44
 497 734 497 734 475.5 765.5 c 128,-1,45
 454 797 454 797 396 797 c 0,46,47
 336 797 336 797 310 767 c 128,-1,48
 284 737 284 737 284 696 c 2,49,-1
 284 670 l 1,50,-1
 71 670 l 1,51,52
 69 680 69 680 69 711 c 0,53,54
 69 789 69 789 109 849 c 128,-1,55
 149 909 149 909 222 942 c 128,-1,56
 295 975 295 975 392 975 c 0,57,18
 554 975 554 975 635 902 c 128,-1,19
317 386.5 m 128,-1,59
 247 351 247 351 247 266 c 0,60,61
 247 216 247 216 273.5 188 c 128,-1,62
 300 160 300 160 353 160 c 0,63,64
 427 160 427 160 462 218 c 128,-1,65
 497 276 497 276 497 367 c 2,66,-1
 497 422 l 1,67,58
 387 422 387 422 317 386.5 c 128,-1,59
EndSplineSet
EndChar

StartChar: acircumflex
Encoding: 226 226 135
Width: 825
GlyphClass: 2
Flags: W
LayerCount: 2
Back
Fore
SplineSet
310 1065 m 1,0,-1
 149 1065 l 1,1,-1
 304 1309 l 1,2,-1
 482 1309 l 1,3,-1
 636 1065 l 1,4,-1
 474 1065 l 1,5,-1
 392 1190 l 1,6,-1
 310 1065 l 1,0,-1
635 902 m 128,-1,8
 716 829 716 829 716 694 c 2,9,-1
 716 225 l 2,10,11
 716 193 716 193 730.5 177.5 c 128,-1,12
 745 162 745 162 767 162 c 2,13,-1
 810 162 l 1,14,-1
 810 8 l 1,15,16
 759 -23 759 -23 681 -23 c 0,17,18
 618 -23 618 -23 574.5 11 c 128,-1,19
 531 45 531 45 513 102 c 1,20,-1
 505 102 l 1,21,22
 459 39 459 39 405.5 8 c 128,-1,23
 352 -23 352 -23 263 -23 c 0,24,25
 210 -23 210 -23 155.5 0.5 c 128,-1,26
 101 24 101 24 62.5 84 c 128,-1,27
 24 144 24 144 24 246 c 0,28,29
 24 428 24 428 147.5 504 c 128,-1,30
 271 580 271 580 497 580 c 1,31,-1
 497 678 l 2,32,33
 497 734 497 734 475.5 765.5 c 128,-1,34
 454 797 454 797 396 797 c 0,35,36
 336 797 336 797 310 767 c 128,-1,37
 284 737 284 737 284 696 c 2,38,-1
 284 670 l 1,39,-1
 71 670 l 1,40,41
 69 680 69 680 69 711 c 0,42,43
 69 789 69 789 109 849 c 128,-1,44
 149 909 149 909 222 942 c 128,-1,45
 295 975 295 975 392 975 c 0,46,7
 554 975 554 975 635 902 c 128,-1,8
317 386.5 m 128,-1,48
 247 351 247 351 247 266 c 0,49,50
 247 216 247 216 273.5 188 c 128,-1,51
 300 160 300 160 353 160 c 0,52,53
 427 160 427 160 462 218 c 128,-1,54
 497 276 497 276 497 367 c 2,55,-1
 497 422 l 1,56,47
 387 422 387 422 317 386.5 c 128,-1,48
EndSplineSet
EndChar

StartChar: adieresis
Encoding: 228 228 136
Width: 825
GlyphClass: 2
Flags: W
LayerCount: 2
Back
Fore
SplineSet
144 1309 m 1,0,-1
 325 1309 l 1,1,-1
 325 1112 l 1,2,-1
 144 1112 l 1,3,-1
 144 1309 l 1,0,-1
460 1309 m 1,4,-1
 640 1309 l 1,5,-1
 640 1112 l 1,6,-1
 460 1112 l 1,7,-1
 460 1309 l 1,4,-1
635 902 m 128,-1,9
 716 829 716 829 716 694 c 2,10,-1
 716 225 l 2,11,12
 716 193 716 193 730.5 177.5 c 128,-1,13
 745 162 745 162 767 162 c 2,14,-1
 810 162 l 1,15,-1
 810 8 l 1,16,17
 759 -23 759 -23 681 -23 c 0,18,19
 618 -23 618 -23 574.5 11 c 128,-1,20
 531 45 531 45 513 102 c 1,21,-1
 505 102 l 1,22,23
 459 39 459 39 405.5 8 c 128,-1,24
 352 -23 352 -23 263 -23 c 0,25,26
 210 -23 210 -23 155.5 0.5 c 128,-1,27
 101 24 101 24 62.5 84 c 128,-1,28
 24 144 24 144 24 246 c 0,29,30
 24 428 24 428 147.5 504 c 128,-1,31
 271 580 271 580 497 580 c 1,32,-1
 497 678 l 2,33,34
 497 734 497 734 475.5 765.5 c 128,-1,35
 454 797 454 797 396 797 c 0,36,37
 336 797 336 797 310 767 c 128,-1,38
 284 737 284 737 284 696 c 2,39,-1
 284 670 l 1,40,-1
 71 670 l 1,41,42
 69 680 69 680 69 711 c 0,43,44
 69 789 69 789 109 849 c 128,-1,45
 149 909 149 909 222 942 c 128,-1,46
 295 975 295 975 392 975 c 0,47,8
 554 975 554 975 635 902 c 128,-1,9
317 386.5 m 128,-1,49
 247 351 247 351 247 266 c 0,50,51
 247 216 247 216 273.5 188 c 128,-1,52
 300 160 300 160 353 160 c 0,53,54
 427 160 427 160 462 218 c 128,-1,55
 497 276 497 276 497 367 c 2,56,-1
 497 422 l 1,57,48
 387 422 387 422 317 386.5 c 128,-1,49
EndSplineSet
EndChar

StartChar: agrave
Encoding: 224 224 137
Width: 825
GlyphClass: 2
Flags: W
LayerCount: 2
Back
Fore
SplineSet
142 1303 m 1,0,-1
 144 1309 l 1,1,-1
 361 1309 l 1,2,-1
 517 1069 l 1,3,-1
 337 1069 l 1,4,-1
 142 1303 l 1,0,-1
635 902 m 128,-1,6
 716 829 716 829 716 694 c 2,7,-1
 716 225 l 2,8,9
 716 193 716 193 730.5 177.5 c 128,-1,10
 745 162 745 162 767 162 c 2,11,-1
 810 162 l 1,12,-1
 810 8 l 1,13,14
 759 -23 759 -23 681 -23 c 0,15,16
 618 -23 618 -23 574.5 11 c 128,-1,17
 531 45 531 45 513 102 c 1,18,-1
 505 102 l 1,19,20
 459 39 459 39 405.5 8 c 128,-1,21
 352 -23 352 -23 263 -23 c 0,22,23
 210 -23 210 -23 155.5 0.5 c 128,-1,24
 101 24 101 24 62.5 84 c 128,-1,25
 24 144 24 144 24 246 c 0,26,27
 24 428 24 428 147.5 504 c 128,-1,28
 271 580 271 580 497 580 c 1,29,-1
 497 678 l 2,30,31
 497 734 497 734 475.5 765.5 c 128,-1,32
 454 797 454 797 396 797 c 0,33,34
 336 797 336 797 310 767 c 128,-1,35
 284 737 284 737 284 696 c 2,36,-1
 284 670 l 1,37,-1
 71 670 l 1,38,39
 69 680 69 680 69 711 c 0,40,41
 69 789 69 789 109 849 c 128,-1,42
 149 909 149 909 222 942 c 128,-1,43
 295 975 295 975 392 975 c 0,44,5
 554 975 554 975 635 902 c 128,-1,6
317 386.5 m 128,-1,46
 247 351 247 351 247 266 c 0,47,48
 247 216 247 216 273.5 188 c 128,-1,49
 300 160 300 160 353 160 c 0,50,51
 427 160 427 160 462 218 c 128,-1,52
 497 276 497 276 497 367 c 2,53,-1
 497 422 l 1,54,45
 387 422 387 422 317 386.5 c 128,-1,46
EndSplineSet
EndChar

StartChar: amacron
Encoding: 257 257 138
Width: 825
GlyphClass: 2
Flags: W
LayerCount: 2
Back
Fore
SplineSet
624 1241 m 1,0,-1
 624 1085 l 1,1,-1
 161 1085 l 1,2,-1
 161 1241 l 1,3,-1
 624 1241 l 1,0,-1
635 902 m 128,-1,5
 716 829 716 829 716 694 c 2,6,-1
 716 225 l 2,7,8
 716 193 716 193 730.5 177.5 c 128,-1,9
 745 162 745 162 767 162 c 2,10,-1
 810 162 l 1,11,-1
 810 8 l 1,12,13
 759 -23 759 -23 681 -23 c 0,14,15
 618 -23 618 -23 574.5 11 c 128,-1,16
 531 45 531 45 513 102 c 1,17,-1
 505 102 l 1,18,19
 459 39 459 39 405.5 8 c 128,-1,20
 352 -23 352 -23 263 -23 c 0,21,22
 210 -23 210 -23 155.5 0.5 c 128,-1,23
 101 24 101 24 62.5 84 c 128,-1,24
 24 144 24 144 24 246 c 0,25,26
 24 428 24 428 147.5 504 c 128,-1,27
 271 580 271 580 497 580 c 1,28,-1
 497 678 l 2,29,30
 497 734 497 734 475.5 765.5 c 128,-1,31
 454 797 454 797 396 797 c 0,32,33
 336 797 336 797 310 767 c 128,-1,34
 284 737 284 737 284 696 c 2,35,-1
 284 670 l 1,36,-1
 71 670 l 1,37,38
 69 680 69 680 69 711 c 0,39,40
 69 789 69 789 109 849 c 128,-1,41
 149 909 149 909 222 942 c 128,-1,42
 295 975 295 975 392 975 c 0,43,4
 554 975 554 975 635 902 c 128,-1,5
317 386.5 m 128,-1,45
 247 351 247 351 247 266 c 0,46,47
 247 216 247 216 273.5 188 c 128,-1,48
 300 160 300 160 353 160 c 0,49,50
 427 160 427 160 462 218 c 128,-1,51
 497 276 497 276 497 367 c 2,52,-1
 497 422 l 1,53,44
 387 422 387 422 317 386.5 c 128,-1,45
EndSplineSet
EndChar

StartChar: aogonek
Encoding: 261 261 139
Width: 825
GlyphClass: 2
Flags: W
LayerCount: 2
Back
Fore
SplineSet
757 -336 m 0,1,2
 685 -336 685 -336 632 -297.5 c 128,-1,3
 579 -259 579 -259 579 -174 c 0,4,5
 579 -123 579 -123 593 -85.5 c 128,-1,6
 607 -48 607 -48 634 -16 c 1,7,8
 589 -6 589 -6 558 25 c 128,-1,9
 527 56 527 56 513 102 c 1,10,-1
 505 102 l 1,11,12
 459 39 459 39 405.5 8 c 128,-1,13
 352 -23 352 -23 263 -23 c 0,14,15
 210 -23 210 -23 155.5 0.5 c 128,-1,16
 101 24 101 24 62.5 84 c 128,-1,17
 24 144 24 144 24 246 c 0,18,19
 24 428 24 428 147.5 504 c 128,-1,20
 271 580 271 580 497 580 c 1,21,-1
 497 678 l 2,22,23
 497 734 497 734 475.5 765.5 c 128,-1,24
 454 797 454 797 396 797 c 0,25,26
 336 797 336 797 310 767 c 128,-1,27
 284 737 284 737 284 696 c 2,28,-1
 284 670 l 1,29,-1
 71 670 l 1,30,31
 69 680 69 680 69 711 c 0,32,33
 69 789 69 789 109 849 c 128,-1,34
 149 909 149 909 222 942 c 128,-1,35
 295 975 295 975 392 975 c 0,36,37
 554 975 554 975 635 902 c 128,-1,38
 716 829 716 829 716 694 c 2,39,-1
 716 225 l 2,40,41
 716 193 716 193 730.5 177.5 c 128,-1,42
 745 162 745 162 767 162 c 2,43,-1
 810 162 l 1,44,-1
 810 8 l 1,45,46
 790 -18 790 -18 773.5 -52 c 128,-1,47
 757 -86 757 -86 757 -119 c 0,48,49
 757 -159 757 -159 776 -185 c 128,-1,50
 795 -211 795 -211 837 -211 c 2,51,-1
 878 -211 l 1,52,-1
 878 -311 l 1,53,0
 815 -336 815 -336 757 -336 c 0,1,2
317 386.5 m 128,-1,55
 247 351 247 351 247 266 c 0,56,57
 247 216 247 216 273.5 188 c 128,-1,58
 300 160 300 160 353 160 c 0,59,60
 427 160 427 160 462 218 c 128,-1,61
 497 276 497 276 497 367 c 2,62,-1
 497 422 l 1,63,54
 387 422 387 422 317 386.5 c 128,-1,55
EndSplineSet
EndChar

StartChar: aring
Encoding: 229 229 140
Width: 825
GlyphClass: 2
Flags: W
LayerCount: 2
Back
Fore
SplineSet
480 1340.5 m 128,-1,1
 520 1317 520 1317 543 1277 c 128,-1,2
 566 1237 566 1237 566 1190 c 256,3,4
 566 1143 566 1143 542.5 1103 c 128,-1,5
 519 1063 519 1063 479 1039.5 c 128,-1,6
 439 1016 439 1016 392 1016 c 0,7,8
 346 1016 346 1016 305.5 1039 c 128,-1,9
 265 1062 265 1062 241.5 1102 c 128,-1,10
 218 1142 218 1142 218 1190 c 0,11,12
 218 1237 218 1237 241.5 1277 c 128,-1,13
 265 1317 265 1317 305 1340.5 c 128,-1,14
 345 1364 345 1364 392 1364 c 0,15,0
 440 1364 440 1364 480 1340.5 c 128,-1,1
332.5 1248.5 m 128,-1,17
 308 1225 308 1225 308 1190 c 256,18,19
 308 1155 308 1155 332.5 1130.5 c 128,-1,20
 357 1106 357 1106 392 1106 c 0,21,22
 426 1106 426 1106 450 1130.5 c 128,-1,23
 474 1155 474 1155 474 1190 c 256,24,25
 474 1225 474 1225 450 1248.5 c 128,-1,26
 426 1272 426 1272 392 1272 c 0,27,16
 357 1272 357 1272 332.5 1248.5 c 128,-1,17
635 902 m 128,-1,29
 716 829 716 829 716 694 c 2,30,-1
 716 225 l 2,31,32
 716 193 716 193 730.5 177.5 c 128,-1,33
 745 162 745 162 767 162 c 2,34,-1
 810 162 l 1,35,-1
 810 8 l 1,36,37
 759 -23 759 -23 681 -23 c 0,38,39
 618 -23 618 -23 574.5 11 c 128,-1,40
 531 45 531 45 513 102 c 1,41,-1
 505 102 l 1,42,43
 459 39 459 39 405.5 8 c 128,-1,44
 352 -23 352 -23 263 -23 c 0,45,46
 210 -23 210 -23 155.5 0.5 c 128,-1,47
 101 24 101 24 62.5 84 c 128,-1,48
 24 144 24 144 24 246 c 0,49,50
 24 428 24 428 147.5 504 c 128,-1,51
 271 580 271 580 497 580 c 1,52,-1
 497 678 l 2,53,54
 497 734 497 734 475.5 765.5 c 128,-1,55
 454 797 454 797 396 797 c 0,56,57
 336 797 336 797 310 767 c 128,-1,58
 284 737 284 737 284 696 c 2,59,-1
 284 670 l 1,60,-1
 71 670 l 1,61,62
 69 680 69 680 69 711 c 0,63,64
 69 789 69 789 109 849 c 128,-1,65
 149 909 149 909 222 942 c 128,-1,66
 295 975 295 975 392 975 c 0,67,28
 554 975 554 975 635 902 c 128,-1,29
317 386.5 m 128,-1,69
 247 351 247 351 247 266 c 0,70,71
 247 216 247 216 273.5 188 c 128,-1,72
 300 160 300 160 353 160 c 0,73,74
 427 160 427 160 462 218 c 128,-1,75
 497 276 497 276 497 367 c 2,76,-1
 497 422 l 1,77,68
 387 422 387 422 317 386.5 c 128,-1,69
EndSplineSet
EndChar

StartChar: aringacute
Encoding: 507 507 141
Width: 905
GlyphClass: 2
Flags: W
LayerCount: 2
Back
Fore
SplineSet
314 1391 m 1,0,-1
 450 1599 l 1,1,-1
 667 1599 l 1,2,-1
 669 1593 l 1,3,-1
 493 1391 l 1,4,-1
 314 1391 l 1,0,-1
480 1329 m 128,-1,6
 520 1306 520 1306 543 1267.5 c 128,-1,7
 566 1229 566 1229 566 1184 c 256,8,9
 566 1139 566 1139 542.5 1100 c 128,-1,10
 519 1061 519 1061 479 1038.5 c 128,-1,11
 439 1016 439 1016 392 1016 c 0,12,13
 346 1016 346 1016 306 1038.5 c 128,-1,14
 266 1061 266 1061 242 1099.5 c 128,-1,15
 218 1138 218 1138 218 1184 c 0,16,17
 218 1229 218 1229 241.5 1268 c 128,-1,18
 265 1307 265 1307 305 1329.5 c 128,-1,19
 345 1352 345 1352 392 1352 c 0,20,5
 440 1352 440 1352 480 1329 c 128,-1,6
332.5 1241 m 128,-1,22
 308 1218 308 1218 308 1184 c 0,23,24
 308 1149 308 1149 332.5 1125.5 c 128,-1,25
 357 1102 357 1102 392 1102 c 0,26,27
 426 1102 426 1102 450 1125.5 c 128,-1,28
 474 1149 474 1149 474 1184 c 0,29,30
 474 1218 474 1218 450 1241 c 128,-1,31
 426 1264 426 1264 392 1264 c 0,32,21
 357 1264 357 1264 332.5 1241 c 128,-1,22
635 902 m 128,-1,34
 716 829 716 829 716 694 c 2,35,-1
 716 225 l 2,36,37
 716 193 716 193 730.5 177.5 c 128,-1,38
 745 162 745 162 767 162 c 2,39,-1
 810 162 l 1,40,-1
 810 8 l 1,41,42
 759 -23 759 -23 681 -23 c 0,43,44
 618 -23 618 -23 574.5 11 c 128,-1,45
 531 45 531 45 513 102 c 1,46,-1
 505 102 l 1,47,48
 459 39 459 39 405.5 8 c 128,-1,49
 352 -23 352 -23 263 -23 c 0,50,51
 210 -23 210 -23 155.5 0.5 c 128,-1,52
 101 24 101 24 62.5 84 c 128,-1,53
 24 144 24 144 24 246 c 0,54,55
 24 428 24 428 147.5 504 c 128,-1,56
 271 580 271 580 497 580 c 1,57,-1
 497 678 l 2,58,59
 497 734 497 734 475.5 765.5 c 128,-1,60
 454 797 454 797 396 797 c 0,61,62
 336 797 336 797 310 767 c 128,-1,63
 284 737 284 737 284 696 c 2,64,-1
 284 670 l 1,65,-1
 71 670 l 1,66,67
 69 680 69 680 69 711 c 0,68,69
 69 789 69 789 109 849 c 128,-1,70
 149 909 149 909 222 942 c 128,-1,71
 295 975 295 975 392 975 c 0,72,33
 554 975 554 975 635 902 c 128,-1,34
317 386.5 m 128,-1,74
 247 351 247 351 247 266 c 0,75,76
 247 216 247 216 273.5 188 c 128,-1,77
 300 160 300 160 353 160 c 0,78,79
 427 160 427 160 462 218 c 128,-1,80
 497 276 497 276 497 367 c 2,81,-1
 497 422 l 1,82,73
 387 422 387 422 317 386.5 c 128,-1,74
EndSplineSet
EndChar

StartChar: atilde
Encoding: 227 227 142
Width: 825
GlyphClass: 2
Flags: W
LayerCount: 2
Back
Fore
SplineSet
676.5 1204.5 m 128,-1,1
 658 1154 658 1154 618 1120.5 c 128,-1,2
 578 1087 578 1087 517 1087 c 0,3,4
 487 1087 487 1087 460.5 1095.5 c 128,-1,5
 434 1104 434 1104 392 1122 c 0,6,7
 357 1138 357 1138 331 1146.5 c 128,-1,8
 305 1155 305 1155 278 1155 c 0,9,10
 216 1155 216 1155 208 1087 c 1,11,-1
 87 1087 l 1,12,13
 87 1141 87 1141 106 1192 c 128,-1,14
 125 1243 125 1243 165 1276 c 128,-1,15
 205 1309 205 1309 265 1309 c 0,16,17
 295 1309 295 1309 321.5 1300.5 c 128,-1,18
 348 1292 348 1292 390 1274 c 0,19,20
 428 1258 428 1258 454 1249.5 c 128,-1,21
 480 1241 480 1241 507 1241 c 0,22,23
 536 1241 536 1241 553.5 1256.5 c 128,-1,24
 571 1272 571 1272 577 1309 c 1,25,-1
 695 1309 l 1,26,0
 695 1255 695 1255 676.5 1204.5 c 128,-1,1
635 902 m 128,-1,28
 716 829 716 829 716 694 c 2,29,-1
 716 225 l 2,30,31
 716 193 716 193 730.5 177.5 c 128,-1,32
 745 162 745 162 767 162 c 2,33,-1
 810 162 l 1,34,-1
 810 8 l 1,35,36
 759 -23 759 -23 681 -23 c 0,37,38
 618 -23 618 -23 574.5 11 c 128,-1,39
 531 45 531 45 513 102 c 1,40,-1
 505 102 l 1,41,42
 459 39 459 39 405.5 8 c 128,-1,43
 352 -23 352 -23 263 -23 c 0,44,45
 210 -23 210 -23 155.5 0.5 c 128,-1,46
 101 24 101 24 62.5 84 c 128,-1,47
 24 144 24 144 24 246 c 0,48,49
 24 428 24 428 147.5 504 c 128,-1,50
 271 580 271 580 497 580 c 1,51,-1
 497 678 l 2,52,53
 497 734 497 734 475.5 765.5 c 128,-1,54
 454 797 454 797 396 797 c 0,55,56
 336 797 336 797 310 767 c 128,-1,57
 284 737 284 737 284 696 c 2,58,-1
 284 670 l 1,59,-1
 71 670 l 1,60,61
 69 680 69 680 69 711 c 0,62,63
 69 789 69 789 109 849 c 128,-1,64
 149 909 149 909 222 942 c 128,-1,65
 295 975 295 975 392 975 c 0,66,27
 554 975 554 975 635 902 c 128,-1,28
317 386.5 m 128,-1,68
 247 351 247 351 247 266 c 0,69,70
 247 216 247 216 273.5 188 c 128,-1,71
 300 160 300 160 353 160 c 0,72,73
 427 160 427 160 462 218 c 128,-1,74
 497 276 497 276 497 367 c 2,75,-1
 497 422 l 1,76,67
 387 422 387 422 317 386.5 c 128,-1,68
EndSplineSet
EndChar

StartChar: ae
Encoding: 230 230 143
Width: 1319
GlyphClass: 2
Flags: W
AnchorPoint: "Anchor-1" 0 0 basechar 0
AnchorPoint: "Anchor-0" 662 952 basechar 0
LayerCount: 2
Back
Fore
SplineSet
1163 853 m 128,-1,1
 1248 731 1248 731 1248 475 c 2,2,-1
 1248 422 l 1,3,-1
 765 422 l 1,4,5
 767 289 767 289 800.5 222.5 c 128,-1,6
 834 156 834 156 912 156 c 0,7,8
 968 156 968 156 1000.5 204 c 128,-1,9
 1033 252 1033 252 1033 336 c 1,10,-1
 1248 336 l 1,11,12
 1248 217 1248 217 1205 136.5 c 128,-1,13
 1162 56 1162 56 1086.5 16.5 c 128,-1,14
 1011 -23 1011 -23 912 -23 c 0,15,16
 720 -23 720 -23 628 106 c 1,17,18
 570 44 570 44 502 10.5 c 128,-1,19
 434 -23 434 -23 341 -23 c 0,20,21
 279 -23 279 -23 217 0.5 c 128,-1,22
 155 24 155 24 111 84 c 128,-1,23
 67 144 67 144 67 246 c 0,24,25
 67 429 67 429 190 504.5 c 128,-1,26
 313 580 313 580 538 580 c 1,27,-1
 538 678 l 2,28,29
 538 734 538 734 517 765.5 c 128,-1,30
 496 797 496 797 439 797 c 0,31,32
 378 797 378 797 351.5 767 c 128,-1,33
 325 737 325 737 325 696 c 2,34,-1
 325 670 l 1,35,-1
 114 670 l 1,36,37
 112 680 112 680 112 711 c 0,38,39
 112 789 112 789 152 849 c 128,-1,40
 192 909 192 909 264.5 942 c 128,-1,41
 337 975 337 975 433 975 c 0,42,43
 594 975 594 975 677 883 c 1,44,45
 766 975 766 975 904 975 c 0,46,0
 1078 975 1078 975 1163 853 c 128,-1,1
804.5 742 m 128,-1,48
 772 687 772 687 767 580 c 1,49,-1
 1021 580 l 1,50,51
 1021 685 1021 685 992 741 c 128,-1,52
 963 797 963 797 904 797 c 0,53,47
 837 797 837 797 804.5 742 c 128,-1,48
358.5 386.5 m 128,-1,55
 288 351 288 351 288 266 c 0,56,57
 288 216 288 216 314.5 188 c 128,-1,58
 341 160 341 160 396 160 c 0,59,60
 469 160 469 160 503.5 218 c 128,-1,61
 538 276 538 276 538 367 c 2,62,-1
 538 422 l 1,63,54
 429 422 429 422 358.5 386.5 c 128,-1,55
EndSplineSet
EndChar

StartChar: aeacute
Encoding: 509 509 144
Width: 1319
GlyphClass: 2
Flags: W
LayerCount: 2
Back
Fore
SplineSet
536 1069 m 1,0,-1
 691 1309 l 1,1,-1
 908 1309 l 1,2,-1
 910 1303 l 1,3,-1
 714 1069 l 1,4,-1
 536 1069 l 1,0,-1
1163 853 m 128,-1,6
 1248 731 1248 731 1248 475 c 2,7,-1
 1248 422 l 1,8,-1
 765 422 l 1,9,10
 767 289 767 289 800.5 222.5 c 128,-1,11
 834 156 834 156 912 156 c 0,12,13
 968 156 968 156 1000.5 204 c 128,-1,14
 1033 252 1033 252 1033 336 c 1,15,-1
 1248 336 l 1,16,17
 1248 217 1248 217 1205 136.5 c 128,-1,18
 1162 56 1162 56 1086.5 16.5 c 128,-1,19
 1011 -23 1011 -23 912 -23 c 0,20,21
 720 -23 720 -23 628 106 c 1,22,23
 570 44 570 44 502 10.5 c 128,-1,24
 434 -23 434 -23 341 -23 c 0,25,26
 279 -23 279 -23 217 0.5 c 128,-1,27
 155 24 155 24 111 84 c 128,-1,28
 67 144 67 144 67 246 c 0,29,30
 67 429 67 429 190 504.5 c 128,-1,31
 313 580 313 580 538 580 c 1,32,-1
 538 678 l 2,33,34
 538 734 538 734 517 765.5 c 128,-1,35
 496 797 496 797 439 797 c 0,36,37
 378 797 378 797 351.5 767 c 128,-1,38
 325 737 325 737 325 696 c 2,39,-1
 325 670 l 1,40,-1
 114 670 l 1,41,42
 112 680 112 680 112 711 c 0,43,44
 112 789 112 789 152 849 c 128,-1,45
 192 909 192 909 264.5 942 c 128,-1,46
 337 975 337 975 433 975 c 0,47,48
 594 975 594 975 677 883 c 1,49,50
 766 975 766 975 904 975 c 0,51,5
 1078 975 1078 975 1163 853 c 128,-1,6
804.5 742 m 128,-1,53
 772 687 772 687 767 580 c 1,54,-1
 1021 580 l 1,55,56
 1021 685 1021 685 992 741 c 128,-1,57
 963 797 963 797 904 797 c 0,58,52
 837 797 837 797 804.5 742 c 128,-1,53
358.5 386.5 m 128,-1,60
 288 351 288 351 288 266 c 0,61,62
 288 216 288 216 314.5 188 c 128,-1,63
 341 160 341 160 396 160 c 0,64,65
 469 160 469 160 503.5 218 c 128,-1,66
 538 276 538 276 538 367 c 2,67,-1
 538 422 l 1,68,59
 429 422 429 422 358.5 386.5 c 128,-1,60
EndSplineSet
EndChar

StartChar: b
Encoding: 98 98 145
Width: 907
GlyphClass: 2
Flags: W
LayerCount: 2
Back
Fore
SplineSet
407.5 943 m 128,-1,1
 465 975 465 975 538 975 c 0,2,3
 625 975 625 975 691 921.5 c 128,-1,4
 757 868 757 868 795 756.5 c 128,-1,5
 833 645 833 645 833 477 c 0,6,7
 833 226 833 226 752 101.5 c 128,-1,8
 671 -23 671 -23 525 -23 c 0,9,10
 457 -23 457 -23 401 13 c 128,-1,11
 345 49 345 49 310 117 c 1,12,-1
 302 117 l 1,13,-1
 280 0 l 1,14,-1
 99 0 l 1,15,-1
 99 1309 l 1,16,-1
 316 1309 l 1,17,-1
 316 854 l 1,18,-1
 325 854 l 1,19,0
 350 911 350 911 407.5 943 c 128,-1,1
350 708.5 m 128,-1,21
 316 641 316 641 316 508 c 2,22,-1
 316 442 l 2,23,24
 316 309 316 309 349.5 242.5 c 128,-1,25
 383 176 383 176 460 176 c 256,26,27
 537 176 537 176 571 242.5 c 128,-1,28
 605 309 605 309 605 442 c 2,29,-1
 605 510 l 2,30,31
 605 643 605 643 571 709.5 c 128,-1,32
 537 776 537 776 460 776 c 0,33,20
 384 776 384 776 350 708.5 c 128,-1,21
EndSplineSet
EndChar

StartChar: c
Encoding: 99 99 146
Width: 825
GlyphClass: 2
Flags: W
AnchorPoint: "Anchor-1" 414 0 basechar 0
AnchorPoint: "Anchor-0" 414 952 basechar 0
LayerCount: 2
Back
Fore
SplineSet
672 881.5 m 128,-1,1
 759 788 759 788 759 594 c 1,2,-1
 538 594 l 1,3,4
 538 791 538 791 427 791 c 0,5,6
 360 791 360 791 330 721.5 c 128,-1,7
 300 652 300 652 300 510 c 2,8,-1
 300 442 l 2,9,10
 300 300 300 300 330.5 231 c 128,-1,11
 361 162 361 162 433 162 c 0,12,13
 491 162 491 162 517.5 210 c 128,-1,14
 544 258 544 258 544 358 c 1,15,-1
 759 358 l 1,16,17
 759 165 759 165 673.5 71 c 128,-1,18
 588 -23 588 -23 433 -23 c 0,19,20
 247 -23 247 -23 160 97.5 c 128,-1,21
 73 218 73 218 73 475 c 0,22,23
 73 731 73 731 161 853 c 128,-1,24
 249 975 249 975 427 975 c 0,25,0
 585 975 585 975 672 881.5 c 128,-1,1
EndSplineSet
EndChar

StartChar: cacute
Encoding: 263 263 147
Width: 825
GlyphClass: 2
Flags: W
LayerCount: 2
Back
Fore
SplineSet
304 1069 m 1,0,-1
 460 1309 l 1,1,-1
 677 1309 l 1,2,-1
 677 1303 l 1,3,-1
 484 1069 l 1,4,-1
 304 1069 l 1,0,-1
672 881.5 m 128,-1,6
 759 788 759 788 759 594 c 1,7,-1
 538 594 l 1,8,9
 538 791 538 791 427 791 c 0,10,11
 360 791 360 791 330 721.5 c 128,-1,12
 300 652 300 652 300 510 c 2,13,-1
 300 442 l 2,14,15
 300 300 300 300 330.5 231 c 128,-1,16
 361 162 361 162 433 162 c 0,17,18
 491 162 491 162 517.5 210 c 128,-1,19
 544 258 544 258 544 358 c 1,20,-1
 759 358 l 1,21,22
 759 165 759 165 673.5 71 c 128,-1,23
 588 -23 588 -23 433 -23 c 0,24,25
 247 -23 247 -23 160 97.5 c 128,-1,26
 73 218 73 218 73 475 c 0,27,28
 73 731 73 731 161 853 c 128,-1,29
 249 975 249 975 427 975 c 0,30,5
 585 975 585 975 672 881.5 c 128,-1,6
EndSplineSet
EndChar

StartChar: ccaron
Encoding: 269 269 148
Width: 825
GlyphClass: 2
Flags: W
LayerCount: 2
Back
Fore
SplineSet
349 1309 m 1,0,-1
 429 1184 l 1,1,-1
 509 1309 l 1,2,-1
 673 1309 l 1,3,-1
 519 1065 l 1,4,-1
 341 1065 l 1,5,-1
 185 1309 l 1,6,-1
 349 1309 l 1,0,-1
672 881.5 m 128,-1,8
 759 788 759 788 759 594 c 1,9,-1
 538 594 l 1,10,11
 538 791 538 791 427 791 c 0,12,13
 360 791 360 791 330 721.5 c 128,-1,14
 300 652 300 652 300 510 c 2,15,-1
 300 442 l 2,16,17
 300 300 300 300 330.5 231 c 128,-1,18
 361 162 361 162 433 162 c 0,19,20
 491 162 491 162 517.5 210 c 128,-1,21
 544 258 544 258 544 358 c 1,22,-1
 759 358 l 1,23,24
 759 165 759 165 673.5 71 c 128,-1,25
 588 -23 588 -23 433 -23 c 0,26,27
 247 -23 247 -23 160 97.5 c 128,-1,28
 73 218 73 218 73 475 c 0,29,30
 73 731 73 731 161 853 c 128,-1,31
 249 975 249 975 427 975 c 0,32,7
 585 975 585 975 672 881.5 c 128,-1,8
EndSplineSet
EndChar

StartChar: ccedilla
Encoding: 231 231 149
Width: 825
GlyphClass: 2
Flags: W
LayerCount: 2
Back
Fore
SplineSet
672 881.5 m 128,-1,1
 759 788 759 788 759 594 c 1,2,-1
 538 594 l 1,3,4
 538 791 538 791 427 791 c 0,5,6
 360 791 360 791 330 721.5 c 128,-1,7
 300 652 300 652 300 510 c 2,8,-1
 300 442 l 2,9,10
 300 300 300 300 330.5 231 c 128,-1,11
 361 162 361 162 433 162 c 0,12,13
 491 162 491 162 517.5 210 c 128,-1,14
 544 258 544 258 544 358 c 1,15,-1
 759 358 l 1,16,17
 759 179 759 179 684.5 85.5 c 128,-1,18
 610 -8 610 -8 474 -20 c 1,19,-1
 470 -59 l 1,20,21
 534 -65 534 -65 573.5 -94.5 c 128,-1,22
 613 -124 613 -124 613 -182 c 0,23,24
 613 -264 613 -264 552.5 -297 c 128,-1,25
 492 -330 492 -330 415 -330 c 0,26,27
 378 -330 378 -330 336.5 -326 c 128,-1,28
 295 -322 295 -322 263 -315 c 1,29,-1
 263 -227 l 1,30,-1
 392 -227 l 2,31,32
 424 -227 424 -227 441 -217 c 128,-1,33
 458 -207 458 -207 458 -182 c 0,34,35
 458 -160 458 -160 444 -149.5 c 128,-1,36
 430 -139 430 -139 396 -139 c 2,37,-1
 337 -139 l 1,38,-1
 351 -14 l 1,39,40
 209 8 209 8 141 128.5 c 128,-1,41
 73 249 73 249 73 475 c 0,42,43
 73 731 73 731 161 853 c 128,-1,44
 249 975 249 975 427 975 c 0,45,0
 585 975 585 975 672 881.5 c 128,-1,1
EndSplineSet
EndChar

StartChar: ccircumflex
Encoding: 265 265 150
Width: 825
GlyphClass: 2
Flags: W
LayerCount: 2
Back
Fore
SplineSet
349 1065 m 1,0,-1
 185 1065 l 1,1,-1
 341 1309 l 1,2,-1
 519 1309 l 1,3,-1
 673 1065 l 1,4,-1
 509 1065 l 1,5,-1
 429 1190 l 1,6,-1
 349 1065 l 1,0,-1
672 881.5 m 128,-1,8
 759 788 759 788 759 594 c 1,9,-1
 538 594 l 1,10,11
 538 791 538 791 427 791 c 0,12,13
 360 791 360 791 330 721.5 c 128,-1,14
 300 652 300 652 300 510 c 2,15,-1
 300 442 l 2,16,17
 300 300 300 300 330.5 231 c 128,-1,18
 361 162 361 162 433 162 c 0,19,20
 491 162 491 162 517.5 210 c 128,-1,21
 544 258 544 258 544 358 c 1,22,-1
 759 358 l 1,23,24
 759 165 759 165 673.5 71 c 128,-1,25
 588 -23 588 -23 433 -23 c 0,26,27
 247 -23 247 -23 160 97.5 c 128,-1,28
 73 218 73 218 73 475 c 0,29,30
 73 731 73 731 161 853 c 128,-1,31
 249 975 249 975 427 975 c 0,32,7
 585 975 585 975 672 881.5 c 128,-1,8
EndSplineSet
EndChar

StartChar: cdotaccent
Encoding: 267 267 151
Width: 825
GlyphClass: 2
Flags: W
LayerCount: 2
Back
Fore
SplineSet
525 1309 m 1,0,-1
 525 1100 l 1,1,-1
 333 1100 l 1,2,-1
 333 1309 l 1,3,-1
 525 1309 l 1,0,-1
672 881.5 m 128,-1,5
 759 788 759 788 759 594 c 1,6,-1
 538 594 l 1,7,8
 538 791 538 791 427 791 c 0,9,10
 360 791 360 791 330 721.5 c 128,-1,11
 300 652 300 652 300 510 c 2,12,-1
 300 442 l 2,13,14
 300 300 300 300 330.5 231 c 128,-1,15
 361 162 361 162 433 162 c 0,16,17
 491 162 491 162 517.5 210 c 128,-1,18
 544 258 544 258 544 358 c 1,19,-1
 759 358 l 1,20,21
 759 165 759 165 673.5 71 c 128,-1,22
 588 -23 588 -23 433 -23 c 0,23,24
 247 -23 247 -23 160 97.5 c 128,-1,25
 73 218 73 218 73 475 c 0,26,27
 73 731 73 731 161 853 c 128,-1,28
 249 975 249 975 427 975 c 0,29,4
 585 975 585 975 672 881.5 c 128,-1,5
EndSplineSet
EndChar

StartChar: d
Encoding: 100 100 152
Width: 907
GlyphClass: 2
Flags: W
LayerCount: 2
Back
Fore
SplineSet
595 117 m 1,0,1
 560 49 560 49 504 13 c 128,-1,2
 448 -23 448 -23 380 -23 c 0,3,4
 235 -23 235 -23 154 101.5 c 128,-1,5
 73 226 73 226 73 477 c 0,6,7
 73 645 73 645 111 756.5 c 128,-1,8
 149 868 149 868 215 921.5 c 128,-1,9
 281 975 281 975 368 975 c 0,10,11
 441 975 441 975 498 943 c 128,-1,12
 555 911 555 911 581 854 c 1,13,-1
 589 854 l 1,14,-1
 589 1309 l 1,15,-1
 806 1309 l 1,16,-1
 806 0 l 1,17,-1
 626 0 l 1,18,-1
 603 117 l 1,19,-1
 595 117 l 1,0,1
333.5 709.5 m 128,-1,21
 300 643 300 643 300 510 c 2,22,-1
 300 442 l 2,23,24
 300 309 300 309 333.5 242.5 c 128,-1,25
 367 176 367 176 443 176 c 0,26,27
 521 176 521 176 555 242 c 128,-1,28
 589 308 589 308 589 442 c 2,29,-1
 589 508 l 2,30,31
 589 641 589 641 555 708.5 c 128,-1,32
 521 776 521 776 443 776 c 0,33,20
 367 776 367 776 333.5 709.5 c 128,-1,21
EndSplineSet
EndChar

StartChar: eth
Encoding: 240 240 153
Width: 907
GlyphClass: 2
Flags: W
LayerCount: 2
Back
Fore
SplineSet
528 1250 m 2,1,-1
 556 1223 l 1,2,-1
 792 1243 l 1,3,-1
 792 1112 l 1,4,-1
 656 1100 l 1,5,6
 835 838 835 838 835 475 c 0,7,8
 835 220 835 220 740.5 98.5 c 128,-1,9
 646 -23 646 -23 454 -23 c 256,10,11
 262 -23 262 -23 167.5 98.5 c 128,-1,12
 73 220 73 220 73 475 c 0,13,14
 73 637 73 637 113 749 c 128,-1,15
 153 861 153 861 226.5 918 c 128,-1,16
 300 975 300 975 402 975 c 0,17,18
 444 975 444 975 491 961 c 1,19,-1
 497 967 l 1,20,21
 467 1021 467 1021 429 1077 c 1,22,-1
 194 1057 l 1,23,-1
 194 1190 l 1,24,-1
 331 1202 l 1,25,26
 298 1239 298 1239 274 1261 c 0,27,28
 238 1299 238 1299 235 1303 c 1,29,-1
 239 1309 l 1,30,-1
 466 1309 l 1,31,0
 484 1294 484 1294 528 1250 c 2,1,-1
336 721.5 m 128,-1,33
 300 652 300 652 300 510 c 2,34,-1
 300 442 l 2,35,36
 300 300 300 300 335.5 231 c 128,-1,37
 371 162 371 162 454 162 c 0,38,39
 536 162 536 162 571.5 231 c 128,-1,40
 607 300 607 300 607 442 c 2,41,-1
 607 510 l 2,42,43
 607 652 607 652 571.5 721.5 c 128,-1,44
 536 791 536 791 454 791 c 256,45,32
 372 791 372 791 336 721.5 c 128,-1,33
EndSplineSet
EndChar

StartChar: dcaron
Encoding: 271 271 154
Width: 1067
GlyphClass: 2
Flags: W
LayerCount: 2
Back
Fore
SplineSet
595 117 m 1,0,1
 560 49 560 49 504 13 c 128,-1,2
 448 -23 448 -23 380 -23 c 0,3,4
 235 -23 235 -23 154 101.5 c 128,-1,5
 73 226 73 226 73 477 c 0,6,7
 73 645 73 645 111 756.5 c 128,-1,8
 149 868 149 868 215 921.5 c 128,-1,9
 281 975 281 975 368 975 c 0,10,11
 441 975 441 975 498 943 c 128,-1,12
 555 911 555 911 581 854 c 1,13,-1
 589 854 l 1,14,-1
 589 1309 l 1,15,-1
 806 1309 l 1,16,-1
 806 0 l 1,17,-1
 626 0 l 1,18,-1
 603 117 l 1,19,-1
 595 117 l 1,0,1
962 993 m 1,20,-1
 863 993 l 1,21,-1
 863 1241 l 1,22,-1
 1113 1241 l 1,23,-1
 1113 1016 l 1,24,-1
 992 711 l 1,25,-1
 863 711 l 1,26,-1
 962 993 l 1,20,-1
333.5 709.5 m 128,-1,28
 300 643 300 643 300 510 c 2,29,-1
 300 442 l 2,30,31
 300 309 300 309 333.5 242.5 c 128,-1,32
 367 176 367 176 443 176 c 0,33,34
 521 176 521 176 555 242 c 128,-1,35
 589 308 589 308 589 442 c 2,36,-1
 589 508 l 2,37,38
 589 641 589 641 555 708.5 c 128,-1,39
 521 776 521 776 443 776 c 0,40,27
 367 776 367 776 333.5 709.5 c 128,-1,28
EndSplineSet
EndChar

StartChar: dcroat
Encoding: 273 273 155
Width: 913
GlyphClass: 2
Flags: W
LayerCount: 2
Back
Fore
SplineSet
904 1055 m 1,0,-1
 806 1055 l 1,1,-1
 806 0 l 1,2,-1
 626 0 l 1,3,-1
 603 117 l 1,4,-1
 595 117 l 1,5,6
 560 49 560 49 504 13 c 128,-1,7
 448 -23 448 -23 380 -23 c 0,8,9
 235 -23 235 -23 154 101.5 c 128,-1,10
 73 226 73 226 73 477 c 0,11,12
 73 645 73 645 111 756.5 c 128,-1,13
 149 868 149 868 215 921.5 c 128,-1,14
 281 975 281 975 368 975 c 0,15,16
 441 975 441 975 498 943 c 128,-1,17
 555 911 555 911 581 854 c 1,18,-1
 589 854 l 1,19,-1
 589 1055 l 1,20,-1
 349 1055 l 1,21,-1
 349 1212 l 1,22,-1
 589 1212 l 1,23,-1
 589 1309 l 1,24,-1
 806 1309 l 1,25,-1
 806 1212 l 1,26,-1
 904 1212 l 1,27,-1
 904 1055 l 1,0,-1
333.5 709.5 m 128,-1,29
 300 643 300 643 300 510 c 2,30,-1
 300 442 l 2,31,32
 300 309 300 309 333.5 242.5 c 128,-1,33
 367 176 367 176 443 176 c 0,34,35
 521 176 521 176 555 242 c 128,-1,36
 589 308 589 308 589 442 c 2,37,-1
 589 508 l 2,38,39
 589 641 589 641 555 708.5 c 128,-1,40
 521 776 521 776 443 776 c 0,41,28
 367 776 367 776 333.5 709.5 c 128,-1,29
EndSplineSet
EndChar

StartChar: e
Encoding: 101 101 156
Width: 825
GlyphClass: 2
Flags: W
AnchorPoint: "Anchor-1" 414 0 basechar 0
AnchorPoint: "Anchor-0" 414 952 basechar 0
LayerCount: 2
Back
Fore
SplineSet
679.5 853 m 128,-1,1
 765 731 765 731 765 475 c 2,2,-1
 765 422 l 1,3,-1
 282 422 l 1,4,5
 284 289 284 289 317.5 222.5 c 128,-1,6
 351 156 351 156 429 156 c 0,7,8
 485 156 485 156 517.5 204 c 128,-1,9
 550 252 550 252 550 336 c 1,10,-1
 765 336 l 1,11,12
 765 217 765 217 722 136.5 c 128,-1,13
 679 56 679 56 603.5 16.5 c 128,-1,14
 528 -23 528 -23 429 -23 c 0,15,16
 242 -23 242 -23 148 99 c 128,-1,17
 54 221 54 221 54 475 c 0,18,19
 54 975 54 975 421 975 c 0,20,0
 594 975 594 975 679.5 853 c 128,-1,1
321.5 742 m 128,-1,22
 289 687 289 687 284 580 c 1,23,-1
 538 580 l 1,24,25
 538 685 538 685 509 741 c 128,-1,26
 480 797 480 797 421 797 c 0,27,21
 354 797 354 797 321.5 742 c 128,-1,22
EndSplineSet
EndChar

StartChar: eacute
Encoding: 233 233 157
Width: 825
GlyphClass: 2
Flags: W
LayerCount: 2
Back
Fore
SplineSet
288 1069 m 1,0,-1
 443 1309 l 1,1,-1
 661 1309 l 1,2,-1
 663 1303 l 1,3,-1
 466 1069 l 1,4,-1
 288 1069 l 1,0,-1
679.5 853 m 128,-1,6
 765 731 765 731 765 475 c 2,7,-1
 765 422 l 1,8,-1
 282 422 l 1,9,10
 284 289 284 289 317.5 222.5 c 128,-1,11
 351 156 351 156 429 156 c 0,12,13
 485 156 485 156 517.5 204 c 128,-1,14
 550 252 550 252 550 336 c 1,15,-1
 765 336 l 1,16,17
 765 217 765 217 722 136.5 c 128,-1,18
 679 56 679 56 603.5 16.5 c 128,-1,19
 528 -23 528 -23 429 -23 c 0,20,21
 242 -23 242 -23 148 99 c 128,-1,22
 54 221 54 221 54 475 c 0,23,24
 54 975 54 975 421 975 c 0,25,5
 594 975 594 975 679.5 853 c 128,-1,6
321.5 742 m 128,-1,27
 289 687 289 687 284 580 c 1,28,-1
 538 580 l 1,29,30
 538 685 538 685 509 741 c 128,-1,31
 480 797 480 797 421 797 c 0,32,26
 354 797 354 797 321.5 742 c 128,-1,27
EndSplineSet
EndChar

StartChar: ebreve
Encoding: 277 277 158
Width: 825
GlyphClass: 2
Flags: W
LayerCount: 2
Back
Fore
SplineSet
624 1218 m 128,-1,1
 594 1173 594 1173 539 1144.5 c 128,-1,2
 484 1116 484 1116 413 1116 c 256,3,4
 342 1116 342 1116 286.5 1144.5 c 128,-1,5
 231 1173 231 1173 201 1218 c 128,-1,6
 171 1263 171 1263 171 1309 c 1,7,-1
 304 1309 l 1,8,9
 309 1288 309 1288 339.5 1268.5 c 128,-1,10
 370 1249 370 1249 413 1249 c 0,11,12
 442 1249 442 1249 466 1258.5 c 128,-1,13
 490 1268 490 1268 504.5 1282 c 128,-1,14
 519 1296 519 1296 521 1309 c 1,15,-1
 654 1309 l 1,16,0
 654 1263 654 1263 624 1218 c 128,-1,1
679.5 853 m 128,-1,18
 765 731 765 731 765 475 c 2,19,-1
 765 422 l 1,20,-1
 282 422 l 1,21,22
 284 289 284 289 317.5 222.5 c 128,-1,23
 351 156 351 156 429 156 c 0,24,25
 485 156 485 156 517.5 204 c 128,-1,26
 550 252 550 252 550 336 c 1,27,-1
 765 336 l 1,28,29
 765 217 765 217 722 136.5 c 128,-1,30
 679 56 679 56 603.5 16.5 c 128,-1,31
 528 -23 528 -23 429 -23 c 0,32,33
 242 -23 242 -23 148 99 c 128,-1,34
 54 221 54 221 54 475 c 0,35,36
 54 975 54 975 421 975 c 0,37,17
 594 975 594 975 679.5 853 c 128,-1,18
321.5 742 m 128,-1,39
 289 687 289 687 284 580 c 1,40,-1
 538 580 l 1,41,42
 538 685 538 685 509 741 c 128,-1,43
 480 797 480 797 421 797 c 0,44,38
 354 797 354 797 321.5 742 c 128,-1,39
EndSplineSet
EndChar

StartChar: ecaron
Encoding: 283 283 159
Width: 825
GlyphClass: 2
Flags: W
LayerCount: 2
Back
Fore
SplineSet
333 1309 m 1,0,-1
 413 1184 l 1,1,-1
 493 1309 l 1,2,-1
 656 1309 l 1,3,-1
 503 1065 l 1,4,-1
 325 1065 l 1,5,-1
 169 1309 l 1,6,-1
 333 1309 l 1,0,-1
679.5 853 m 128,-1,8
 765 731 765 731 765 475 c 2,9,-1
 765 422 l 1,10,-1
 282 422 l 1,11,12
 284 289 284 289 317.5 222.5 c 128,-1,13
 351 156 351 156 429 156 c 0,14,15
 485 156 485 156 517.5 204 c 128,-1,16
 550 252 550 252 550 336 c 1,17,-1
 765 336 l 1,18,19
 765 217 765 217 722 136.5 c 128,-1,20
 679 56 679 56 603.5 16.5 c 128,-1,21
 528 -23 528 -23 429 -23 c 0,22,23
 242 -23 242 -23 148 99 c 128,-1,24
 54 221 54 221 54 475 c 0,25,26
 54 975 54 975 421 975 c 0,27,7
 594 975 594 975 679.5 853 c 128,-1,8
321.5 742 m 128,-1,29
 289 687 289 687 284 580 c 1,30,-1
 538 580 l 1,31,32
 538 685 538 685 509 741 c 128,-1,33
 480 797 480 797 421 797 c 0,34,28
 354 797 354 797 321.5 742 c 128,-1,29
EndSplineSet
EndChar

StartChar: ecircumflex
Encoding: 234 234 160
Width: 825
GlyphClass: 2
Flags: W
LayerCount: 2
Back
Fore
SplineSet
333 1065 m 1,0,-1
 169 1065 l 1,1,-1
 325 1309 l 1,2,-1
 503 1309 l 1,3,-1
 656 1065 l 1,4,-1
 493 1065 l 1,5,-1
 413 1190 l 1,6,-1
 333 1065 l 1,0,-1
679.5 853 m 128,-1,8
 765 731 765 731 765 475 c 2,9,-1
 765 422 l 1,10,-1
 282 422 l 1,11,12
 284 289 284 289 317.5 222.5 c 128,-1,13
 351 156 351 156 429 156 c 0,14,15
 485 156 485 156 517.5 204 c 128,-1,16
 550 252 550 252 550 336 c 1,17,-1
 765 336 l 1,18,19
 765 217 765 217 722 136.5 c 128,-1,20
 679 56 679 56 603.5 16.5 c 128,-1,21
 528 -23 528 -23 429 -23 c 0,22,23
 242 -23 242 -23 148 99 c 128,-1,24
 54 221 54 221 54 475 c 0,25,26
 54 975 54 975 421 975 c 0,27,7
 594 975 594 975 679.5 853 c 128,-1,8
321.5 742 m 128,-1,29
 289 687 289 687 284 580 c 1,30,-1
 538 580 l 1,31,32
 538 685 538 685 509 741 c 128,-1,33
 480 797 480 797 421 797 c 0,34,28
 354 797 354 797 321.5 742 c 128,-1,29
EndSplineSet
EndChar

StartChar: edieresis
Encoding: 235 235 161
Width: 825
GlyphClass: 2
Flags: W
LayerCount: 2
Back
Fore
SplineSet
163 1309 m 1,0,-1
 345 1309 l 1,1,-1
 345 1112 l 1,2,-1
 163 1112 l 1,3,-1
 163 1309 l 1,0,-1
480 1309 m 1,4,-1
 663 1309 l 1,5,-1
 663 1112 l 1,6,-1
 480 1112 l 1,7,-1
 480 1309 l 1,4,-1
679.5 853 m 128,-1,9
 765 731 765 731 765 475 c 2,10,-1
 765 422 l 1,11,-1
 282 422 l 1,12,13
 284 289 284 289 317.5 222.5 c 128,-1,14
 351 156 351 156 429 156 c 0,15,16
 485 156 485 156 517.5 204 c 128,-1,17
 550 252 550 252 550 336 c 1,18,-1
 765 336 l 1,19,20
 765 217 765 217 722 136.5 c 128,-1,21
 679 56 679 56 603.5 16.5 c 128,-1,22
 528 -23 528 -23 429 -23 c 0,23,24
 242 -23 242 -23 148 99 c 128,-1,25
 54 221 54 221 54 475 c 0,26,27
 54 975 54 975 421 975 c 0,28,8
 594 975 594 975 679.5 853 c 128,-1,9
321.5 742 m 128,-1,30
 289 687 289 687 284 580 c 1,31,-1
 538 580 l 1,32,33
 538 685 538 685 509 741 c 128,-1,34
 480 797 480 797 421 797 c 0,35,29
 354 797 354 797 321.5 742 c 128,-1,30
EndSplineSet
EndChar

StartChar: edotaccent
Encoding: 279 279 162
Width: 825
GlyphClass: 2
Flags: W
LayerCount: 2
Back
Fore
SplineSet
509 1309 m 1,0,-1
 509 1100 l 1,1,-1
 316 1100 l 1,2,-1
 316 1309 l 1,3,-1
 509 1309 l 1,0,-1
679.5 853 m 128,-1,5
 765 731 765 731 765 475 c 2,6,-1
 765 422 l 1,7,-1
 282 422 l 1,8,9
 284 289 284 289 317.5 222.5 c 128,-1,10
 351 156 351 156 429 156 c 0,11,12
 485 156 485 156 517.5 204 c 128,-1,13
 550 252 550 252 550 336 c 1,14,-1
 765 336 l 1,15,16
 765 217 765 217 722 136.5 c 128,-1,17
 679 56 679 56 603.5 16.5 c 128,-1,18
 528 -23 528 -23 429 -23 c 0,19,20
 242 -23 242 -23 148 99 c 128,-1,21
 54 221 54 221 54 475 c 0,22,23
 54 975 54 975 421 975 c 0,24,4
 594 975 594 975 679.5 853 c 128,-1,5
321.5 742 m 128,-1,26
 289 687 289 687 284 580 c 1,27,-1
 538 580 l 1,28,29
 538 685 538 685 509 741 c 128,-1,30
 480 797 480 797 421 797 c 0,31,25
 354 797 354 797 321.5 742 c 128,-1,26
EndSplineSet
EndChar

StartChar: egrave
Encoding: 232 232 163
Width: 825
GlyphClass: 2
Flags: W
LayerCount: 2
Back
Fore
SplineSet
163 1303 m 1,0,-1
 163 1309 l 1,1,-1
 382 1309 l 1,2,-1
 538 1069 l 1,3,-1
 357 1069 l 1,4,-1
 163 1303 l 1,0,-1
679.5 853 m 128,-1,6
 765 731 765 731 765 475 c 2,7,-1
 765 422 l 1,8,-1
 282 422 l 1,9,10
 284 289 284 289 317.5 222.5 c 128,-1,11
 351 156 351 156 429 156 c 0,12,13
 485 156 485 156 517.5 204 c 128,-1,14
 550 252 550 252 550 336 c 1,15,-1
 765 336 l 1,16,17
 765 217 765 217 722 136.5 c 128,-1,18
 679 56 679 56 603.5 16.5 c 128,-1,19
 528 -23 528 -23 429 -23 c 0,20,21
 242 -23 242 -23 148 99 c 128,-1,22
 54 221 54 221 54 475 c 0,23,24
 54 975 54 975 421 975 c 0,25,5
 594 975 594 975 679.5 853 c 128,-1,6
321.5 742 m 128,-1,27
 289 687 289 687 284 580 c 1,28,-1
 538 580 l 1,29,30
 538 685 538 685 509 741 c 128,-1,31
 480 797 480 797 421 797 c 0,32,26
 354 797 354 797 321.5 742 c 128,-1,27
EndSplineSet
EndChar

StartChar: emacron
Encoding: 275 275 164
Width: 825
GlyphClass: 2
Flags: W
LayerCount: 2
Back
Fore
SplineSet
644 1241 m 1,0,-1
 644 1085 l 1,1,-1
 181 1085 l 1,2,-1
 181 1241 l 1,3,-1
 644 1241 l 1,0,-1
679.5 853 m 128,-1,5
 765 731 765 731 765 475 c 2,6,-1
 765 422 l 1,7,-1
 282 422 l 1,8,9
 284 289 284 289 317.5 222.5 c 128,-1,10
 351 156 351 156 429 156 c 0,11,12
 485 156 485 156 517.5 204 c 128,-1,13
 550 252 550 252 550 336 c 1,14,-1
 765 336 l 1,15,16
 765 217 765 217 722 136.5 c 128,-1,17
 679 56 679 56 603.5 16.5 c 128,-1,18
 528 -23 528 -23 429 -23 c 0,19,20
 242 -23 242 -23 148 99 c 128,-1,21
 54 221 54 221 54 475 c 0,22,23
 54 975 54 975 421 975 c 0,24,4
 594 975 594 975 679.5 853 c 128,-1,5
321.5 742 m 128,-1,26
 289 687 289 687 284 580 c 1,27,-1
 538 580 l 1,28,29
 538 685 538 685 509 741 c 128,-1,30
 480 797 480 797 421 797 c 0,31,25
 354 797 354 797 321.5 742 c 128,-1,26
EndSplineSet
EndChar

StartChar: eogonek
Encoding: 281 281 165
Width: 825
GlyphClass: 2
Flags: W
LayerCount: 2
Back
Fore
SplineSet
282 422 m 1,0,1
 284 289 284 289 317.5 222.5 c 128,-1,2
 351 156 351 156 429 156 c 0,3,4
 485 156 485 156 517.5 204 c 128,-1,5
 550 252 550 252 550 336 c 1,6,-1
 765 336 l 1,7,8
 765 211 765 211 717 128.5 c 128,-1,9
 669 46 669 46 585 8 c 1,10,11
 565 -15 565 -15 548 -49.5 c 128,-1,12
 531 -84 531 -84 531 -117 c 0,13,14
 531 -156 531 -156 551.5 -183.5 c 128,-1,15
 572 -211 572 -211 613 -211 c 2,16,-1
 652 -211 l 1,17,-1
 652 -309 l 1,18,19
 587 -336 587 -336 534 -336 c 0,20,21
 461 -336 461 -336 407 -297 c 128,-1,22
 353 -258 353 -258 353 -172 c 0,23,24
 353 -125 353 -125 366 -89.5 c 128,-1,25
 379 -54 379 -54 404 -22 c 1,26,27
 230 -14 230 -14 142 108 c 128,-1,28
 54 230 54 230 54 475 c 0,29,30
 54 975 54 975 421 975 c 0,31,32
 594 975 594 975 679.5 853 c 128,-1,33
 765 731 765 731 765 475 c 2,34,-1
 765 422 l 1,35,-1
 282 422 l 1,0,1
509 741 m 128,-1,37
 480 797 480 797 421 797 c 0,38,39
 354 797 354 797 321.5 742 c 128,-1,40
 289 687 289 687 284 580 c 1,41,-1
 538 580 l 1,42,36
 538 685 538 685 509 741 c 128,-1,37
EndSplineSet
EndChar

StartChar: f
Encoding: 102 102 166
Width: 494
GlyphClass: 2
Flags: W
LayerCount: 2
Back
Fore
SplineSet
419 1317 m 128,-1,1
 466 1311 466 1311 493 1303 c 1,2,-1
 493 1141 l 1,3,-1
 405 1141 l 2,4,5
 368 1141 368 1141 348.5 1121 c 128,-1,6
 329 1101 329 1101 329 1063 c 2,7,-1
 329 952 l 1,8,-1
 493 952 l 1,9,-1
 493 770 l 1,10,-1
 329 770 l 1,11,-1
 329 0 l 1,12,-1
 112 0 l 1,13,-1
 112 770 l 1,14,-1
 15 770 l 1,15,-1
 15 952 l 1,16,-1
 112 952 l 1,17,-1
 112 1069 l 2,18,19
 112 1177 112 1177 164 1250 c 128,-1,20
 216 1323 216 1323 335 1323 c 0,21,0
 372 1323 372 1323 419 1317 c 128,-1,1
EndSplineSet
EndChar

StartChar: g
Encoding: 103 103 167
Width: 907
GlyphClass: 2
Flags: W
AnchorPoint: "Anchor-1" 0 0 basechar 0
AnchorPoint: "Anchor-0" 455 952 basechar 0
LayerCount: 2
Back
Fore
SplineSet
839 951 m 128,-1,1
 798 890 798 890 724 868 c 1,2,3
 761 828 761 828 781.5 772 c 128,-1,4
 802 716 802 716 802 649 c 0,5,6
 802 552 802 552 761 479 c 128,-1,7
 720 406 720 406 640.5 366 c 128,-1,8
 561 326 561 326 448 326 c 2,9,-1
 357 326 l 2,10,11
 328 326 328 326 310 309.5 c 128,-1,12
 292 293 292 293 292 268 c 0,13,14
 292 244 292 244 308 227.5 c 128,-1,15
 324 211 324 211 349 211 c 2,16,-1
 677 211 l 2,17,18
 738 211 738 211 788 181 c 128,-1,19
 838 151 838 151 867 94.5 c 128,-1,20
 896 38 896 38 896 -37 c 0,21,22
 896 -123 896 -123 854.5 -189.5 c 128,-1,23
 813 -256 813 -256 742.5 -293 c 128,-1,24
 672 -330 672 -330 587 -330 c 2,25,-1
 239 -330 l 2,26,27
 181 -330 181 -330 132.5 -302.5 c 128,-1,28
 84 -275 84 -275 56 -225 c 128,-1,29
 28 -175 28 -175 28 -111 c 0,30,31
 28 15 28 15 149 84 c 1,32,33
 113 106 113 106 93 142 c 128,-1,34
 73 178 73 178 73 225 c 0,35,36
 73 285 73 285 112 328.5 c 128,-1,37
 151 372 151 372 212 393 c 1,38,39
 155 435 155 435 126 500.5 c 128,-1,40
 97 566 97 566 97 649 c 0,41,42
 97 748 97 748 137.5 821.5 c 128,-1,43
 178 895 178 895 257 935 c 128,-1,44
 336 975 336 975 448 975 c 0,45,46
 538 975 538 975 607 946 c 1,47,48
 655 981 655 981 677 1029 c 128,-1,49
 699 1077 699 1077 699 1112 c 1,50,-1
 880 1112 l 1,51,0
 880 1012 880 1012 839 951 c 128,-1,1
348 770 m 128,-1,53
 314 727 314 727 314 649 c 0,54,55
 314 573 314 573 348 530 c 128,-1,56
 382 487 382 487 448 487 c 0,57,58
 515 487 515 487 550 530 c 128,-1,59
 585 573 585 573 585 649 c 0,60,61
 585 727 585 727 550 770 c 128,-1,62
 515 813 515 813 448 813 c 0,63,52
 382 813 382 813 348 770 c 128,-1,53
272.5 -15.5 m 128,-1,65
 247 -41 247 -41 247 -76 c 0,66,67
 247 -116 247 -116 272 -140 c 128,-1,68
 297 -164 297 -164 335 -164 c 2,69,-1
 579 -164 l 2,70,71
 620 -164 620 -164 648.5 -140 c 128,-1,72
 677 -116 677 -116 677 -76 c 0,73,74
 677 -37 677 -37 651 -13.5 c 128,-1,75
 625 10 625 10 587 10 c 2,76,-1
 335 10 l 2,77,64
 298 10 298 10 272.5 -15.5 c 128,-1,65
EndSplineSet
EndChar

StartChar: gbreve
Encoding: 287 287 168
Width: 907
GlyphClass: 2
Flags: W
LayerCount: 2
Back
Fore
SplineSet
663 1218 m 128,-1,1
 633 1173 633 1173 578 1144.5 c 128,-1,2
 523 1116 523 1116 452 1116 c 256,3,4
 381 1116 381 1116 326 1144.5 c 128,-1,5
 271 1173 271 1173 240.5 1218 c 128,-1,6
 210 1263 210 1263 210 1309 c 1,7,-1
 345 1309 l 1,8,9
 347 1296 347 1296 361.5 1282 c 128,-1,10
 376 1268 376 1268 400 1258.5 c 128,-1,11
 424 1249 424 1249 452 1249 c 0,12,13
 481 1249 481 1249 505 1258.5 c 128,-1,14
 529 1268 529 1268 543.5 1282 c 128,-1,15
 558 1296 558 1296 560 1309 c 1,16,-1
 693 1309 l 1,17,0
 693 1263 693 1263 663 1218 c 128,-1,1
839 951 m 128,-1,19
 798 890 798 890 724 868 c 1,20,21
 761 828 761 828 781.5 772 c 128,-1,22
 802 716 802 716 802 649 c 0,23,24
 802 552 802 552 761 479 c 128,-1,25
 720 406 720 406 640.5 366 c 128,-1,26
 561 326 561 326 448 326 c 2,27,-1
 357 326 l 2,28,29
 328 326 328 326 310 309.5 c 128,-1,30
 292 293 292 293 292 268 c 0,31,32
 292 244 292 244 308 227.5 c 128,-1,33
 324 211 324 211 349 211 c 2,34,-1
 677 211 l 2,35,36
 738 211 738 211 788 181 c 128,-1,37
 838 151 838 151 867 94.5 c 128,-1,38
 896 38 896 38 896 -37 c 0,39,40
 896 -123 896 -123 854.5 -189.5 c 128,-1,41
 813 -256 813 -256 742.5 -293 c 128,-1,42
 672 -330 672 -330 587 -330 c 2,43,-1
 239 -330 l 2,44,45
 181 -330 181 -330 132.5 -302.5 c 128,-1,46
 84 -275 84 -275 56 -225 c 128,-1,47
 28 -175 28 -175 28 -111 c 0,48,49
 28 15 28 15 149 84 c 1,50,51
 113 106 113 106 93 142 c 128,-1,52
 73 178 73 178 73 225 c 0,53,54
 73 285 73 285 112 328.5 c 128,-1,55
 151 372 151 372 212 393 c 1,56,57
 155 435 155 435 126 500.5 c 128,-1,58
 97 566 97 566 97 649 c 0,59,60
 97 748 97 748 137.5 821.5 c 128,-1,61
 178 895 178 895 257 935 c 128,-1,62
 336 975 336 975 448 975 c 0,63,64
 538 975 538 975 607 946 c 1,65,66
 655 981 655 981 677 1029 c 128,-1,67
 699 1077 699 1077 699 1112 c 1,68,-1
 880 1112 l 1,69,18
 880 1012 880 1012 839 951 c 128,-1,19
348 770 m 128,-1,71
 314 727 314 727 314 649 c 0,72,73
 314 573 314 573 348 530 c 128,-1,74
 382 487 382 487 448 487 c 0,75,76
 515 487 515 487 550 530 c 128,-1,77
 585 573 585 573 585 649 c 0,78,79
 585 727 585 727 550 770 c 128,-1,80
 515 813 515 813 448 813 c 0,81,70
 382 813 382 813 348 770 c 128,-1,71
272.5 -15.5 m 128,-1,83
 247 -41 247 -41 247 -76 c 0,84,85
 247 -116 247 -116 272 -140 c 128,-1,86
 297 -164 297 -164 335 -164 c 2,87,-1
 579 -164 l 2,88,89
 620 -164 620 -164 648.5 -140 c 128,-1,90
 677 -116 677 -116 677 -76 c 0,91,92
 677 -37 677 -37 651 -13.5 c 128,-1,93
 625 10 625 10 587 10 c 2,94,-1
 335 10 l 2,95,82
 298 10 298 10 272.5 -15.5 c 128,-1,83
EndSplineSet
EndChar

StartChar: gcircumflex
Encoding: 285 285 169
Width: 907
GlyphClass: 2
Flags: W
LayerCount: 2
Back
Fore
SplineSet
372 1065 m 1,0,-1
 210 1065 l 1,1,-1
 366 1309 l 1,2,-1
 542 1309 l 1,3,-1
 695 1065 l 1,4,-1
 534 1065 l 1,5,-1
 454 1190 l 1,6,-1
 372 1065 l 1,0,-1
839 951 m 128,-1,8
 798 890 798 890 724 868 c 1,9,10
 761 828 761 828 781.5 772 c 128,-1,11
 802 716 802 716 802 649 c 0,12,13
 802 552 802 552 761 479 c 128,-1,14
 720 406 720 406 640.5 366 c 128,-1,15
 561 326 561 326 448 326 c 2,16,-1
 357 326 l 2,17,18
 328 326 328 326 310 309.5 c 128,-1,19
 292 293 292 293 292 268 c 0,20,21
 292 244 292 244 308 227.5 c 128,-1,22
 324 211 324 211 349 211 c 2,23,-1
 677 211 l 2,24,25
 738 211 738 211 788 181 c 128,-1,26
 838 151 838 151 867 94.5 c 128,-1,27
 896 38 896 38 896 -37 c 0,28,29
 896 -123 896 -123 854.5 -189.5 c 128,-1,30
 813 -256 813 -256 742.5 -293 c 128,-1,31
 672 -330 672 -330 587 -330 c 2,32,-1
 239 -330 l 2,33,34
 181 -330 181 -330 132.5 -302.5 c 128,-1,35
 84 -275 84 -275 56 -225 c 128,-1,36
 28 -175 28 -175 28 -111 c 0,37,38
 28 15 28 15 149 84 c 1,39,40
 113 106 113 106 93 142 c 128,-1,41
 73 178 73 178 73 225 c 0,42,43
 73 285 73 285 112 328.5 c 128,-1,44
 151 372 151 372 212 393 c 1,45,46
 155 435 155 435 126 500.5 c 128,-1,47
 97 566 97 566 97 649 c 0,48,49
 97 748 97 748 137.5 821.5 c 128,-1,50
 178 895 178 895 257 935 c 128,-1,51
 336 975 336 975 448 975 c 0,52,53
 538 975 538 975 607 946 c 1,54,55
 738 952 738 952 738 1110 c 2,56,-1
 738 1112 l 1,57,-1
 880 1112 l 1,58,7
 880 1012 880 1012 839 951 c 128,-1,8
348 770 m 128,-1,60
 314 727 314 727 314 649 c 0,61,62
 314 573 314 573 348 530 c 128,-1,63
 382 487 382 487 448 487 c 0,64,65
 515 487 515 487 550 530 c 128,-1,66
 585 573 585 573 585 649 c 0,67,68
 585 727 585 727 550 770 c 128,-1,69
 515 813 515 813 448 813 c 0,70,59
 382 813 382 813 348 770 c 128,-1,60
272.5 -15.5 m 128,-1,72
 247 -41 247 -41 247 -76 c 0,73,74
 247 -116 247 -116 272 -140 c 128,-1,75
 297 -164 297 -164 335 -164 c 2,76,-1
 579 -164 l 2,77,78
 620 -164 620 -164 648.5 -140 c 128,-1,79
 677 -116 677 -116 677 -76 c 0,80,81
 677 -37 677 -37 651 -13.5 c 128,-1,82
 625 10 625 10 587 10 c 2,83,-1
 335 10 l 2,84,71
 298 10 298 10 272.5 -15.5 c 128,-1,72
EndSplineSet
EndChar

StartChar: gcommaaccent
Encoding: 291 291 170
Width: 907
GlyphClass: 2
Flags: W
LayerCount: 2
Back
Fore
SplineSet
544 1069 m 1,0,-1
 318 1069 l 1,1,-1
 318 1272 l 1,2,-1
 402 1444 l 1,3,-1
 521 1444 l 1,4,-1
 456 1290 l 1,5,-1
 544 1290 l 1,6,-1
 544 1069 l 1,0,-1
839 951 m 128,-1,8
 798 890 798 890 724 868 c 1,9,10
 761 828 761 828 781.5 772 c 128,-1,11
 802 716 802 716 802 649 c 0,12,13
 802 552 802 552 761 479 c 128,-1,14
 720 406 720 406 640.5 366 c 128,-1,15
 561 326 561 326 448 326 c 2,16,-1
 357 326 l 2,17,18
 328 326 328 326 310 309.5 c 128,-1,19
 292 293 292 293 292 268 c 0,20,21
 292 244 292 244 308 227.5 c 128,-1,22
 324 211 324 211 349 211 c 2,23,-1
 677 211 l 2,24,25
 738 211 738 211 788 181 c 128,-1,26
 838 151 838 151 867 94.5 c 128,-1,27
 896 38 896 38 896 -37 c 0,28,29
 896 -123 896 -123 854.5 -189.5 c 128,-1,30
 813 -256 813 -256 742.5 -293 c 128,-1,31
 672 -330 672 -330 587 -330 c 2,32,-1
 239 -330 l 2,33,34
 181 -330 181 -330 132.5 -302.5 c 128,-1,35
 84 -275 84 -275 56 -225 c 128,-1,36
 28 -175 28 -175 28 -111 c 0,37,38
 28 15 28 15 149 84 c 1,39,40
 113 106 113 106 93 142 c 128,-1,41
 73 178 73 178 73 225 c 0,42,43
 73 285 73 285 112 328.5 c 128,-1,44
 151 372 151 372 212 393 c 1,45,46
 155 435 155 435 126 500.5 c 128,-1,47
 97 566 97 566 97 649 c 0,48,49
 97 748 97 748 137.5 821.5 c 128,-1,50
 178 895 178 895 257 935 c 128,-1,51
 336 975 336 975 448 975 c 0,52,53
 538 975 538 975 607 946 c 1,54,55
 655 981 655 981 677 1029 c 128,-1,56
 699 1077 699 1077 699 1112 c 1,57,-1
 880 1112 l 1,58,7
 880 1012 880 1012 839 951 c 128,-1,8
348 770 m 128,-1,60
 314 727 314 727 314 649 c 0,61,62
 314 573 314 573 348 530 c 128,-1,63
 382 487 382 487 448 487 c 0,64,65
 515 487 515 487 550 530 c 128,-1,66
 585 573 585 573 585 649 c 0,67,68
 585 727 585 727 550 770 c 128,-1,69
 515 813 515 813 448 813 c 0,70,59
 382 813 382 813 348 770 c 128,-1,60
272.5 -15.5 m 128,-1,72
 247 -41 247 -41 247 -76 c 0,73,74
 247 -116 247 -116 272 -140 c 128,-1,75
 297 -164 297 -164 335 -164 c 2,76,-1
 579 -164 l 2,77,78
 620 -164 620 -164 648.5 -140 c 128,-1,79
 677 -116 677 -116 677 -76 c 0,80,81
 677 -37 677 -37 651 -13.5 c 128,-1,82
 625 10 625 10 587 10 c 2,83,-1
 335 10 l 2,84,71
 298 10 298 10 272.5 -15.5 c 128,-1,72
EndSplineSet
EndChar

StartChar: gdotaccent
Encoding: 289 289 171
Width: 907
GlyphClass: 2
Flags: W
LayerCount: 2
Back
Fore
SplineSet
550 1309 m 1,0,-1
 550 1100 l 1,1,-1
 355 1100 l 1,2,-1
 355 1309 l 1,3,-1
 550 1309 l 1,0,-1
839 951 m 128,-1,5
 798 890 798 890 724 868 c 1,6,7
 761 828 761 828 781.5 772 c 128,-1,8
 802 716 802 716 802 649 c 0,9,10
 802 552 802 552 761 479 c 128,-1,11
 720 406 720 406 640.5 366 c 128,-1,12
 561 326 561 326 448 326 c 2,13,-1
 357 326 l 2,14,15
 328 326 328 326 310 309.5 c 128,-1,16
 292 293 292 293 292 268 c 0,17,18
 292 244 292 244 308 227.5 c 128,-1,19
 324 211 324 211 349 211 c 2,20,-1
 677 211 l 2,21,22
 738 211 738 211 788 181 c 128,-1,23
 838 151 838 151 867 94.5 c 128,-1,24
 896 38 896 38 896 -37 c 0,25,26
 896 -123 896 -123 854.5 -189.5 c 128,-1,27
 813 -256 813 -256 742.5 -293 c 128,-1,28
 672 -330 672 -330 587 -330 c 2,29,-1
 239 -330 l 2,30,31
 181 -330 181 -330 132.5 -302.5 c 128,-1,32
 84 -275 84 -275 56 -225 c 128,-1,33
 28 -175 28 -175 28 -111 c 0,34,35
 28 15 28 15 149 84 c 1,36,37
 113 106 113 106 93 142 c 128,-1,38
 73 178 73 178 73 225 c 0,39,40
 73 285 73 285 112 328.5 c 128,-1,41
 151 372 151 372 212 393 c 1,42,43
 155 435 155 435 126 500.5 c 128,-1,44
 97 566 97 566 97 649 c 0,45,46
 97 748 97 748 137.5 821.5 c 128,-1,47
 178 895 178 895 257 935 c 128,-1,48
 336 975 336 975 448 975 c 0,49,50
 538 975 538 975 607 946 c 1,51,52
 655 981 655 981 677 1029 c 128,-1,53
 699 1077 699 1077 699 1112 c 1,54,-1
 880 1112 l 1,55,4
 880 1012 880 1012 839 951 c 128,-1,5
348 770 m 128,-1,57
 314 727 314 727 314 649 c 0,58,59
 314 573 314 573 348 530 c 128,-1,60
 382 487 382 487 448 487 c 0,61,62
 515 487 515 487 550 530 c 128,-1,63
 585 573 585 573 585 649 c 0,64,65
 585 727 585 727 550 770 c 128,-1,66
 515 813 515 813 448 813 c 0,67,56
 382 813 382 813 348 770 c 128,-1,57
272.5 -15.5 m 128,-1,69
 247 -41 247 -41 247 -76 c 0,70,71
 247 -116 247 -116 272 -140 c 128,-1,72
 297 -164 297 -164 335 -164 c 2,73,-1
 579 -164 l 2,74,75
 620 -164 620 -164 648.5 -140 c 128,-1,76
 677 -116 677 -116 677 -76 c 0,77,78
 677 -37 677 -37 651 -13.5 c 128,-1,79
 625 10 625 10 587 10 c 2,80,-1
 335 10 l 2,81,68
 298 10 298 10 272.5 -15.5 c 128,-1,69
EndSplineSet
EndChar

StartChar: h
Encoding: 104 104 172
Width: 907
GlyphClass: 2
Flags: W
AnchorPoint: "Anchor-1" 0 0 basechar 0
AnchorPoint: "Anchor-0" 455 952 basechar 0
LayerCount: 2
Back
Fore
SplineSet
418.5 939.5 m 128,-1,1
 476 975 476 975 554 975 c 0,2,3
 671 975 671 975 738.5 901.5 c 128,-1,4
 806 828 806 828 806 668 c 2,5,-1
 806 0 l 1,6,-1
 589 0 l 1,7,-1
 589 608 l 2,8,9
 589 697 589 697 557 736.5 c 128,-1,10
 525 776 525 776 464 776 c 0,11,12
 423 776 423 776 389 751 c 128,-1,13
 355 726 355 726 335.5 682.5 c 128,-1,14
 316 639 316 639 316 586 c 2,15,-1
 316 0 l 1,16,-1
 99 0 l 1,17,-1
 99 1309 l 1,18,-1
 316 1309 l 1,19,-1
 316 850 l 1,20,-1
 323 850 l 1,21,0
 361 904 361 904 418.5 939.5 c 128,-1,1
EndSplineSet
EndChar

StartChar: hbar
Encoding: 295 295 173
Width: 907
GlyphClass: 2
Flags: W
LayerCount: 2
Back
Fore
SplineSet
555 1055 m 1,0,-1
 317 1055 l 1,1,-1
 317 850 l 1,2,-1
 324 850 l 1,3,4
 362 904 362 904 419.5 939.5 c 128,-1,5
 477 975 477 975 555 975 c 0,6,7
 672 975 672 975 739.5 901.5 c 128,-1,8
 807 828 807 828 807 668 c 2,9,-1
 807 0 l 1,10,-1
 590 0 l 1,11,-1
 590 608 l 2,12,13
 590 697 590 697 558 736.5 c 128,-1,14
 526 776 526 776 465 776 c 0,15,16
 424 776 424 776 390 751 c 128,-1,17
 356 726 356 726 336.5 682.5 c 128,-1,18
 317 639 317 639 317 586 c 2,19,-1
 317 0 l 1,20,-1
 100 0 l 1,21,-1
 100 1055 l 1,22,-1
 0 1055 l 1,23,-1
 0 1212 l 1,24,-1
 100 1212 l 1,25,-1
 100 1309 l 1,26,-1
 317 1309 l 1,27,-1
 317 1212 l 1,28,-1
 555 1212 l 1,29,-1
 555 1055 l 1,0,-1
EndSplineSet
EndChar

StartChar: hcircumflex
Encoding: 293 293 174
Width: 907
GlyphClass: 2
Flags: W
LayerCount: 2
Back
Fore
SplineSet
123 1354 m 1,0,-1
 -39 1354 l 1,1,-1
 117 1599 l 1,2,-1
 293 1599 l 1,3,-1
 446 1354 l 1,4,-1
 285 1354 l 1,5,-1
 205 1479 l 1,6,-1
 123 1354 l 1,0,-1
419.5 939.5 m 128,-1,8
 477 975 477 975 555 975 c 0,9,10
 672 975 672 975 739.5 901.5 c 128,-1,11
 807 828 807 828 807 668 c 2,12,-1
 807 0 l 1,13,-1
 590 0 l 1,14,-1
 590 608 l 2,15,16
 590 697 590 697 558 736.5 c 128,-1,17
 526 776 526 776 465 776 c 0,18,19
 424 776 424 776 390 751 c 128,-1,20
 356 726 356 726 336.5 682.5 c 128,-1,21
 317 639 317 639 317 586 c 2,22,-1
 317 0 l 1,23,-1
 100 0 l 1,24,-1
 100 1309 l 1,25,-1
 317 1309 l 1,26,-1
 317 850 l 1,27,-1
 324 850 l 1,28,7
 362 904 362 904 419.5 939.5 c 128,-1,8
EndSplineSet
EndChar

StartChar: i
Encoding: 105 105 175
Width: 414
GlyphClass: 2
Flags: W
LayerCount: 2
Back
Fore
SplineSet
314 1309 m 1,0,-1
 314 1112 l 1,1,-1
 97 1112 l 1,2,-1
 97 1309 l 1,3,-1
 314 1309 l 1,0,-1
314 952 m 1,4,-1
 314 0 l 1,5,-1
 97 0 l 1,6,-1
 97 952 l 1,7,-1
 314 952 l 1,4,-1
EndSplineSet
EndChar

StartChar: dotlessi
Encoding: 305 305 176
Width: 414
GlyphClass: 2
Flags: W
AnchorPoint: "Anchor-1" 0 0 basechar 0
AnchorPoint: "Anchor-0" 207 952 basechar 0
LayerCount: 2
Back
Fore
SplineSet
314 952 m 1,0,-1
 314 0 l 1,1,-1
 97 0 l 1,2,-1
 97 952 l 1,3,-1
 314 952 l 1,0,-1
EndSplineSet
EndChar

StartChar: iacute
Encoding: 237 237 177
Width: 414
GlyphClass: 2
Flags: W
LayerCount: 2
Back
Fore
SplineSet
81 1069 m 1,0,-1
 237 1309 l 1,1,-1
 454 1309 l 1,2,-1
 456 1303 l 1,3,-1
 261 1069 l 1,4,-1
 81 1069 l 1,0,-1
97 952 m 1,5,-1
 314 952 l 1,6,-1
 314 0 l 1,7,-1
 97 0 l 1,8,-1
 97 952 l 1,5,-1
EndSplineSet
EndChar

StartChar: ibreve
Encoding: 301 301 178
Width: 414
GlyphClass: 2
Flags: W
LayerCount: 2
Back
Fore
SplineSet
419 1218 m 128,-1,1
 389 1173 389 1173 333.5 1144.5 c 128,-1,2
 278 1116 278 1116 207 1116 c 0,3,4
 135 1116 135 1116 79.5 1144.5 c 128,-1,5
 24 1173 24 1173 -6.5 1218 c 128,-1,6
 -37 1263 -37 1263 -37 1309 c 1,7,-1
 100 1309 l 1,8,9
 102 1296 102 1296 116.5 1282 c 128,-1,10
 131 1268 131 1268 155 1258.5 c 128,-1,11
 179 1249 179 1249 207 1249 c 0,12,13
 236 1249 236 1249 260 1258.5 c 128,-1,14
 284 1268 284 1268 298.5 1282 c 128,-1,15
 313 1296 313 1296 315 1309 c 1,16,-1
 449 1309 l 1,17,0
 449 1263 449 1263 419 1218 c 128,-1,1
315 952 m 1,18,-1
 315 0 l 1,19,-1
 98 0 l 1,20,-1
 98 952 l 1,21,-1
 315 952 l 1,18,-1
EndSplineSet
EndChar

StartChar: icircumflex
Encoding: 238 238 179
Width: 414
GlyphClass: 2
Flags: W
LayerCount: 2
Back
Fore
SplineSet
127 1065 m 1,0,-1
 -39 1065 l 1,1,-1
 119 1309 l 1,2,-1
 297 1309 l 1,3,-1
 451 1065 l 1,4,-1
 289 1065 l 1,5,-1
 209 1190 l 1,6,-1
 127 1065 l 1,0,-1
315 952 m 1,7,-1
 315 0 l 1,8,-1
 98 0 l 1,9,-1
 98 952 l 1,10,-1
 315 952 l 1,7,-1
EndSplineSet
EndChar

StartChar: idieresis
Encoding: 239 239 180
Width: 414
GlyphClass: 2
Flags: W
LayerCount: 2
Back
Fore
SplineSet
-41 1309 m 1,0,-1
 139 1309 l 1,1,-1
 139 1112 l 1,2,-1
 -41 1112 l 1,3,-1
 -41 1309 l 1,0,-1
274 1309 m 1,4,-1
 457 1309 l 1,5,-1
 457 1112 l 1,6,-1
 274 1112 l 1,7,-1
 274 1309 l 1,4,-1
98 952 m 1,8,-1
 315 952 l 1,9,-1
 315 0 l 1,10,-1
 98 0 l 1,11,-1
 98 952 l 1,8,-1
EndSplineSet
EndChar

StartChar: igrave
Encoding: 236 236 181
Width: 414
GlyphClass: 2
Flags: W
LayerCount: 2
Back
Fore
SplineSet
-43 1303 m 1,0,-1
 -41 1309 l 1,1,-1
 176 1309 l 1,2,-1
 332 1069 l 1,3,-1
 152 1069 l 1,4,-1
 -43 1303 l 1,0,-1
98 952 m 1,5,-1
 315 952 l 1,6,-1
 315 0 l 1,7,-1
 98 0 l 1,8,-1
 98 952 l 1,5,-1
EndSplineSet
EndChar

StartChar: ij
Encoding: 307 307 182
Width: 825
GlyphClass: 2
Flags: W
LayerCount: 2
Back
Fore
SplineSet
97 1309 m 1,0,-1
 314 1309 l 1,1,-1
 314 1112 l 1,2,-1
 97 1112 l 1,3,-1
 97 1309 l 1,0,-1
509 1309 m 1,4,-1
 726 1309 l 1,5,-1
 726 1112 l 1,6,-1
 509 1112 l 1,7,-1
 509 1309 l 1,4,-1
97 952 m 1,8,-1
 314 952 l 1,9,-1
 314 0 l 1,10,-1
 97 0 l 1,11,-1
 97 952 l 1,8,-1
675.5 -257 m 128,-1,13
 625 -330 625 -330 507 -330 c 0,14,15
 467 -330 467 -330 420.5 -323 c 128,-1,16
 374 -316 374 -316 345 -307 c 1,17,-1
 345 -147 l 1,18,-1
 425 -147 l 2,19,20
 466 -147 466 -147 487.5 -124.5 c 128,-1,21
 509 -102 509 -102 509 -59 c 2,22,-1
 509 952 l 1,23,-1
 726 952 l 1,24,-1
 726 -74 l 2,25,12
 726 -184 726 -184 675.5 -257 c 128,-1,13
EndSplineSet
EndChar

StartChar: imacron
Encoding: 299 299 183
Width: 414
GlyphClass: 2
Flags: W
LayerCount: 2
Back
Fore
SplineSet
438 1241 m 1,0,-1
 438 1085 l 1,1,-1
 -25 1085 l 1,2,-1
 -25 1241 l 1,3,-1
 438 1241 l 1,0,-1
315 952 m 1,4,-1
 315 0 l 1,5,-1
 98 0 l 1,6,-1
 98 952 l 1,7,-1
 315 952 l 1,4,-1
EndSplineSet
EndChar

StartChar: iogonek
Encoding: 303 303 184
Width: 414
GlyphClass: 2
Flags: W
LayerCount: 2
Back
Fore
SplineSet
110 1309 m 1,0,-1
 304 1309 l 1,1,-1
 304 1100 l 1,2,-1
 110 1100 l 1,3,-1
 110 1309 l 1,0,-1
276 -58.5 m 128,-1,5
 259 -93 259 -93 259 -127 c 0,6,7
 259 -166 259 -166 279.5 -192.5 c 128,-1,8
 300 -219 300 -219 341 -219 c 2,9,-1
 382 -219 l 1,10,-1
 382 -319 l 1,11,12
 319 -344 319 -344 261 -344 c 0,13,14
 189 -344 189 -344 136 -305 c 128,-1,15
 83 -266 83 -266 83 -180 c 0,16,17
 83 -122 83 -122 103.5 -80.5 c 128,-1,18
 124 -39 124 -39 163 0 c 1,19,-1
 97 0 l 1,20,-1
 97 952 l 1,21,-1
 314 952 l 1,22,-1
 314 0 l 1,23,4
 293 -24 293 -24 276 -58.5 c 128,-1,5
EndSplineSet
EndChar

StartChar: itilde
Encoding: 297 297 185
Width: 414
GlyphClass: 2
Flags: W
LayerCount: 2
Back
Fore
SplineSet
493 1205 m 128,-1,1
 474 1154 474 1154 434 1120.5 c 128,-1,2
 394 1087 394 1087 334 1087 c 0,3,4
 304 1087 304 1087 277.5 1095.5 c 128,-1,5
 251 1104 251 1104 210 1122 c 0,6,7
 174 1138 174 1138 147.5 1146.5 c 128,-1,8
 121 1155 121 1155 94 1155 c 0,9,10
 64 1155 64 1155 46.5 1139 c 128,-1,11
 29 1123 29 1123 23 1087 c 1,12,-1
 -98 1087 l 1,13,14
 -98 1141 -98 1141 -79 1192 c 128,-1,15
 -60 1243 -60 1243 -20 1276 c 128,-1,16
 20 1309 20 1309 80 1309 c 0,17,18
 110 1309 110 1309 137.5 1300.5 c 128,-1,19
 165 1292 165 1292 207 1274 c 0,20,21
 244 1258 244 1258 269.5 1249.5 c 128,-1,22
 295 1241 295 1241 322 1241 c 0,23,24
 352 1241 352 1241 368.5 1256 c 128,-1,25
 385 1271 385 1271 391 1309 c 1,26,-1
 512 1309 l 1,27,0
 512 1256 512 1256 493 1205 c 128,-1,1
315 952 m 1,28,-1
 315 0 l 1,29,-1
 98 0 l 1,30,-1
 98 952 l 1,31,-1
 315 952 l 1,28,-1
EndSplineSet
EndChar

StartChar: j
Encoding: 106 106 186
Width: 414
GlyphClass: 2
Flags: W
LayerCount: 2
Back
Fore
SplineSet
315 1309 m 1,0,-1
 315 1112 l 1,1,-1
 98 1112 l 1,2,-1
 98 1309 l 1,3,-1
 315 1309 l 1,0,-1
264.5 -257.5 m 128,-1,5
 214 -330 214 -330 94 -330 c 0,6,7
 54 -330 54 -330 8.5 -323 c 128,-1,8
 -37 -316 -37 -316 -68 -307 c 1,9,-1
 -68 -147 l 1,10,-1
 12 -147 l 2,11,12
 98 -147 98 -147 98 -59 c 2,13,-1
 98 952 l 1,14,-1
 315 952 l 1,15,-1
 315 -74 l 2,16,4
 315 -185 315 -185 264.5 -257.5 c 128,-1,5
EndSplineSet
EndChar

StartChar: jcircumflex
Encoding: 309 309 187
Width: 414
GlyphClass: 2
Flags: W
LayerCount: 2
Back
Fore
SplineSet
129 1065 m 1,0,-1
 -35 1065 l 1,1,-1
 121 1309 l 1,2,-1
 301 1309 l 1,3,-1
 453 1065 l 1,4,-1
 291 1065 l 1,5,-1
 211 1190 l 1,6,-1
 129 1065 l 1,0,-1
264.5 -257.5 m 128,-1,8
 214 -330 214 -330 94 -330 c 0,9,10
 54 -330 54 -330 8.5 -323 c 128,-1,11
 -37 -316 -37 -316 -68 -307 c 1,12,-1
 -68 -147 l 1,13,-1
 12 -147 l 2,14,15
 98 -147 98 -147 98 -59 c 2,16,-1
 98 952 l 1,17,-1
 315 952 l 1,18,-1
 315 -74 l 2,19,7
 315 -185 315 -185 264.5 -257.5 c 128,-1,8
EndSplineSet
EndChar

StartChar: k
Encoding: 107 107 188
Width: 825
GlyphClass: 2
Flags: W
AnchorPoint: "Anchor-1" 414 0 basechar 0
AnchorPoint: "Anchor-0" 0 0 basechar 0
LayerCount: 2
Back
Fore
SplineSet
529 565 m 1,0,-1
 826 0 l 1,1,-1
 585 0 l 1,2,-1
 394 395 l 1,3,-1
 314 297 l 1,4,-1
 314 0 l 1,5,-1
 97 0 l 1,6,-1
 97 1309 l 1,7,-1
 314 1309 l 1,8,-1
 314 573 l 1,9,-1
 581 952 l 1,10,-1
 812 952 l 1,11,-1
 529 565 l 1,0,-1
EndSplineSet
EndChar

StartChar: kcommaaccent
Encoding: 311 311 189
Width: 825
GlyphClass: 2
Flags: W
LayerCount: 2
Back
Fore
SplineSet
529 565 m 1,0,-1
 826 0 l 1,1,-1
 585 0 l 1,2,-1
 394 395 l 1,3,-1
 314 297 l 1,4,-1
 314 0 l 1,5,-1
 97 0 l 1,6,-1
 97 1309 l 1,7,-1
 314 1309 l 1,8,-1
 314 573 l 1,9,-1
 581 952 l 1,10,-1
 812 952 l 1,11,-1
 529 565 l 1,0,-1
388 -322 m 1,12,-1
 302 -322 l 1,13,-1
 302 -100 l 1,14,-1
 523 -100 l 1,15,-1
 523 -303 l 1,16,-1
 443 -475 l 1,17,-1
 325 -475 l 1,18,-1
 388 -322 l 1,12,-1
EndSplineSet
EndChar

StartChar: kgreenlandic
Encoding: 312 312 190
Width: 827
GlyphClass: 2
Flags: W
LayerCount: 2
Back
Fore
SplineSet
394 395 m 1,0,-1
 314 297 l 1,1,-1
 314 0 l 1,2,-1
 97 0 l 1,3,-1
 97 952 l 1,4,-1
 314 952 l 1,5,-1
 314 573 l 1,6,-1
 581 952 l 1,7,-1
 812 952 l 1,8,-1
 529 565 l 1,9,-1
 826 0 l 1,10,-1
 585 0 l 1,11,-1
 394 395 l 1,0,-1
EndSplineSet
EndChar

StartChar: l
Encoding: 108 108 191
Width: 414
GlyphClass: 2
Flags: W
AnchorPoint: "Anchor-1" 207 0 basechar 0
AnchorPoint: "Anchor-0" 207 952 basechar 0
LayerCount: 2
Back
Fore
SplineSet
314 1309 m 1,0,-1
 314 0 l 1,1,-1
 97 0 l 1,2,-1
 97 1309 l 1,3,-1
 314 1309 l 1,0,-1
EndSplineSet
EndChar

StartChar: lacute
Encoding: 314 314 192
Width: 414
GlyphClass: 2
Flags: W
LayerCount: 2
Back
Fore
SplineSet
81 1360 m 1,0,-1
 237 1599 l 1,1,-1
 454 1599 l 1,2,-1
 456 1593 l 1,3,-1
 261 1360 l 1,4,-1
 81 1360 l 1,0,-1
97 1309 m 1,5,-1
 314 1309 l 1,6,-1
 314 0 l 1,7,-1
 97 0 l 1,8,-1
 97 1309 l 1,5,-1
EndSplineSet
EndChar

StartChar: lcaron
Encoding: 318 318 193
Width: 571
GlyphClass: 2
Flags: W
LayerCount: 2
Back
Fore
SplineSet
314 1309 m 1,0,-1
 314 0 l 1,1,-1
 97 0 l 1,2,-1
 97 1309 l 1,3,-1
 314 1309 l 1,0,-1
507 993 m 1,4,-1
 409 993 l 1,5,-1
 409 1241 l 1,6,-1
 658 1241 l 1,7,-1
 658 1016 l 1,8,-1
 538 711 l 1,9,-1
 409 711 l 1,10,-1
 507 993 l 1,4,-1
EndSplineSet
EndChar

StartChar: lcommaaccent
Encoding: 316 316 194
Width: 414
GlyphClass: 2
Flags: W
LayerCount: 2
Back
Fore
SplineSet
314 1309 m 1,0,-1
 314 0 l 1,1,-1
 97 0 l 1,2,-1
 97 1309 l 1,3,-1
 314 1309 l 1,0,-1
183 -322 m 1,4,-1
 95 -322 l 1,5,-1
 95 -100 l 1,6,-1
 318 -100 l 1,7,-1
 318 -303 l 1,8,-1
 237 -475 l 1,9,-1
 118 -475 l 1,10,-1
 183 -322 l 1,4,-1
EndSplineSet
EndChar

StartChar: ldot
Encoding: 320 320 195
Width: 604
GlyphClass: 2
Flags: W
LayerCount: 2
Back
Fore
SplineSet
314 1309 m 1,0,-1
 314 0 l 1,1,-1
 97 0 l 1,2,-1
 97 1309 l 1,3,-1
 314 1309 l 1,0,-1
603 741 m 1,4,-1
 603 504 l 1,5,-1
 384 504 l 1,6,-1
 384 741 l 1,7,-1
 603 741 l 1,4,-1
EndSplineSet
Ligature2: "Ligature Substitution lookup 35 subtable" l periodcentered
EndChar

StartChar: lslash
Encoding: 322 322 196
Width: 414
GlyphClass: 2
Flags: W
LayerCount: 2
Back
Fore
SplineSet
315 612 m 1,0,-1
 315 0 l 1,1,-1
 98 0 l 1,2,-1
 98 418 l 1,3,-1
 -25 309 l 1,4,-1
 -25 483 l 1,5,-1
 98 592 l 1,6,-1
 98 1309 l 1,7,-1
 315 1309 l 1,8,-1
 315 786 l 1,9,-1
 459 913 l 1,10,-1
 459 739 l 1,11,-1
 315 612 l 1,0,-1
EndSplineSet
EndChar

StartChar: m
Encoding: 109 109 197
Width: 1319
GlyphClass: 2
Flags: W
LayerCount: 2
Back
Fore
SplineSet
1224 668 m 2,1,-1
 1224 0 l 1,2,-1
 1007 0 l 1,3,-1
 1007 608 l 2,4,5
 1007 699 1007 699 981.5 737.5 c 128,-1,6
 956 776 956 776 900 776 c 0,7,8
 865 776 865 776 835 754 c 128,-1,9
 805 732 805 732 787 692 c 128,-1,10
 769 652 769 652 769 600 c 2,11,-1
 769 0 l 1,12,-1
 554 0 l 1,13,-1
 554 608 l 2,14,15
 554 699 554 699 528 737.5 c 128,-1,16
 502 776 502 776 445 776 c 0,17,18
 409 776 409 776 379.5 752 c 128,-1,19
 350 728 350 728 333 684.5 c 128,-1,20
 316 641 316 641 316 586 c 2,21,-1
 316 0 l 1,22,-1
 99 0 l 1,23,-1
 99 952 l 1,24,-1
 280 952 l 1,25,-1
 302 836 l 1,26,-1
 312 836 l 1,27,28
 350 897 350 897 407.5 936 c 128,-1,29
 465 975 465 975 538 975 c 256,30,31
 611 975 611 975 663.5 941 c 128,-1,32
 716 907 716 907 742 836 c 1,33,34
 784 897 784 897 847 936 c 128,-1,35
 910 975 910 975 990 975 c 0,36,0
 1224 975 1224 975 1224 668 c 2,1,-1
EndSplineSet
EndChar

StartChar: n
Encoding: 110 110 198
Width: 907
GlyphClass: 2
Flags: W
AnchorPoint: "Anchor-1" 455 0 basechar 0
AnchorPoint: "Anchor-0" 455 952 basechar 0
LayerCount: 2
Back
Fore
SplineSet
738.5 901.5 m 128,-1,1
 806 828 806 828 806 668 c 2,2,-1
 806 0 l 1,3,-1
 589 0 l 1,4,-1
 589 608 l 2,5,6
 589 697 589 697 557 736.5 c 128,-1,7
 525 776 525 776 464 776 c 0,8,9
 423 776 423 776 389 751 c 128,-1,10
 355 726 355 726 335.5 682.5 c 128,-1,11
 316 639 316 639 316 586 c 2,12,-1
 316 0 l 1,13,-1
 99 0 l 1,14,-1
 99 952 l 1,15,-1
 280 952 l 1,16,-1
 302 836 l 1,17,-1
 312 836 l 1,18,19
 353 898 353 898 413.5 936.5 c 128,-1,20
 474 975 474 975 554 975 c 0,21,0
 671 975 671 975 738.5 901.5 c 128,-1,1
EndSplineSet
Substitution2: "'sups' Superscript lookup 11 subtable" nsuperior
Substitution2: "'aalt' Access All Alternates lookup 0 subtable" nsuperior
EndChar

StartChar: nacute
Encoding: 324 324 199
Width: 907
GlyphClass: 2
Flags: W
LayerCount: 2
Back
Fore
SplineSet
329 1069 m 1,0,-1
 484 1309 l 1,1,-1
 701 1309 l 1,2,-1
 704 1303 l 1,3,-1
 507 1069 l 1,4,-1
 329 1069 l 1,0,-1
738.5 901.5 m 128,-1,6
 806 828 806 828 806 668 c 2,7,-1
 806 0 l 1,8,-1
 589 0 l 1,9,-1
 589 608 l 2,10,11
 589 697 589 697 557 736.5 c 128,-1,12
 525 776 525 776 464 776 c 0,13,14
 423 776 423 776 389 751 c 128,-1,15
 355 726 355 726 335.5 682.5 c 128,-1,16
 316 639 316 639 316 586 c 2,17,-1
 316 0 l 1,18,-1
 99 0 l 1,19,-1
 99 952 l 1,20,-1
 280 952 l 1,21,-1
 302 836 l 1,22,-1
 312 836 l 1,23,24
 353 898 353 898 413.5 936.5 c 128,-1,25
 474 975 474 975 554 975 c 0,26,5
 671 975 671 975 738.5 901.5 c 128,-1,6
EndSplineSet
EndChar

StartChar: napostrophe
Encoding: 329 329 200
Width: 1225
GlyphClass: 2
Flags: W
LayerCount: 2
Back
Fore
SplineSet
146 866 m 1,0,-1
 210 1020 l 1,1,-1
 120 1020 l 1,2,-1
 120 1241 l 1,3,-1
 345 1241 l 1,4,-1
 345 1038 l 1,5,-1
 263 866 l 1,6,-1
 146 866 l 1,0,-1
1055.5 902 m 128,-1,8
 1123 829 1123 829 1123 668 c 2,9,-1
 1123 0 l 1,10,-1
 906 0 l 1,11,-1
 906 608 l 2,12,13
 906 697 906 697 874 736.5 c 128,-1,14
 842 776 842 776 781 776 c 0,15,16
 739 776 739 776 705 751 c 128,-1,17
 671 726 671 726 651.5 682.5 c 128,-1,18
 632 639 632 639 632 586 c 2,19,-1
 632 0 l 1,20,-1
 415 0 l 1,21,-1
 415 952 l 1,22,-1
 597 952 l 1,23,-1
 617 836 l 1,24,-1
 630 836 l 1,25,26
 669 897 669 897 730 936 c 128,-1,27
 791 975 791 975 869 975 c 0,28,7
 988 975 988 975 1055.5 902 c 128,-1,8
EndSplineSet
EndChar

StartChar: ncaron
Encoding: 328 328 201
Width: 907
GlyphClass: 2
Flags: W
LayerCount: 2
Back
Fore
SplineSet
372 1309 m 1,0,-1
 454 1184 l 1,1,-1
 534 1309 l 1,2,-1
 695 1309 l 1,3,-1
 542 1065 l 1,4,-1
 366 1065 l 1,5,-1
 210 1309 l 1,6,-1
 372 1309 l 1,0,-1
738.5 901.5 m 128,-1,8
 806 828 806 828 806 668 c 2,9,-1
 806 0 l 1,10,-1
 589 0 l 1,11,-1
 589 608 l 2,12,13
 589 697 589 697 557 736.5 c 128,-1,14
 525 776 525 776 464 776 c 0,15,16
 423 776 423 776 389 751 c 128,-1,17
 355 726 355 726 335.5 682.5 c 128,-1,18
 316 639 316 639 316 586 c 2,19,-1
 316 0 l 1,20,-1
 99 0 l 1,21,-1
 99 952 l 1,22,-1
 280 952 l 1,23,-1
 302 836 l 1,24,-1
 312 836 l 1,25,26
 353 898 353 898 413.5 936.5 c 128,-1,27
 474 975 474 975 554 975 c 0,28,7
 671 975 671 975 738.5 901.5 c 128,-1,8
EndSplineSet
EndChar

StartChar: ncommaaccent
Encoding: 326 326 202
Width: 907
GlyphClass: 2
Flags: W
LayerCount: 2
Back
Fore
SplineSet
738.5 901.5 m 128,-1,1
 806 828 806 828 806 668 c 2,2,-1
 806 0 l 1,3,-1
 589 0 l 1,4,-1
 589 608 l 2,5,6
 589 697 589 697 557 736.5 c 128,-1,7
 525 776 525 776 464 776 c 0,8,9
 423 776 423 776 389 751 c 128,-1,10
 355 726 355 726 335.5 682.5 c 128,-1,11
 316 639 316 639 316 586 c 2,12,-1
 316 0 l 1,13,-1
 99 0 l 1,14,-1
 99 952 l 1,15,-1
 280 952 l 1,16,-1
 302 836 l 1,17,-1
 312 836 l 1,18,19
 353 898 353 898 413.5 936.5 c 128,-1,20
 474 975 474 975 554 975 c 0,21,0
 671 975 671 975 738.5 901.5 c 128,-1,1
429 -322 m 1,22,-1
 341 -322 l 1,23,-1
 341 -100 l 1,24,-1
 564 -100 l 1,25,-1
 564 -303 l 1,26,-1
 482 -475 l 1,27,-1
 366 -475 l 1,28,-1
 429 -322 l 1,22,-1
EndSplineSet
EndChar

StartChar: eng
Encoding: 331 331 203
Width: 907
GlyphClass: 2
Flags: W
LayerCount: 2
Back
Fore
SplineSet
738.5 901.5 m 128,-1,1
 806 828 806 828 806 668 c 2,2,-1
 806 -74 l 2,3,4
 806 -185 806 -185 755.5 -257.5 c 128,-1,5
 705 -330 705 -330 585 -330 c 0,6,7
 546 -330 546 -330 500 -323 c 128,-1,8
 454 -316 454 -316 425 -307 c 1,9,-1
 425 -147 l 1,10,-1
 505 -147 l 2,11,12
 546 -147 546 -147 567.5 -124.5 c 128,-1,13
 589 -102 589 -102 589 -59 c 2,14,-1
 589 608 l 2,15,16
 589 697 589 697 557 736.5 c 128,-1,17
 525 776 525 776 464 776 c 0,18,19
 423 776 423 776 389 751 c 128,-1,20
 355 726 355 726 335.5 682.5 c 128,-1,21
 316 639 316 639 316 586 c 2,22,-1
 316 0 l 1,23,-1
 99 0 l 1,24,-1
 99 952 l 1,25,-1
 280 952 l 1,26,-1
 302 836 l 1,27,-1
 312 836 l 1,28,29
 353 898 353 898 413.5 936.5 c 128,-1,30
 474 975 474 975 554 975 c 0,31,0
 671 975 671 975 738.5 901.5 c 128,-1,1
EndSplineSet
EndChar

StartChar: ntilde
Encoding: 241 241 204
Width: 907
GlyphClass: 2
Flags: W
LayerCount: 2
Back
Fore
SplineSet
738.5 1204.5 m 128,-1,1
 720 1154 720 1154 680 1120.5 c 128,-1,2
 640 1087 640 1087 579 1087 c 0,3,4
 549 1087 549 1087 522.5 1095.5 c 128,-1,5
 496 1104 496 1104 455 1122 c 0,6,7
 419 1138 419 1138 392.5 1146.5 c 128,-1,8
 366 1155 366 1155 339 1155 c 0,9,10
 277 1155 277 1155 269 1087 c 1,11,-1
 149 1087 l 1,12,13
 149 1141 149 1141 168 1192 c 128,-1,14
 187 1243 187 1243 227 1276 c 128,-1,15
 267 1309 267 1309 327 1309 c 0,16,17
 357 1309 357 1309 383.5 1300.5 c 128,-1,18
 410 1292 410 1292 452 1274 c 0,19,20
 488 1258 488 1258 514.5 1249.5 c 128,-1,21
 541 1241 541 1241 568 1241 c 0,22,23
 598 1241 598 1241 616 1256.5 c 128,-1,24
 634 1272 634 1272 638 1309 c 1,25,-1
 757 1309 l 1,26,0
 757 1255 757 1255 738.5 1204.5 c 128,-1,1
738.5 901.5 m 128,-1,28
 806 828 806 828 806 668 c 2,29,-1
 806 0 l 1,30,-1
 589 0 l 1,31,-1
 589 608 l 2,32,33
 589 697 589 697 557 736.5 c 128,-1,34
 525 776 525 776 464 776 c 0,35,36
 423 776 423 776 389 751 c 128,-1,37
 355 726 355 726 335.5 682.5 c 128,-1,38
 316 639 316 639 316 586 c 2,39,-1
 316 0 l 1,40,-1
 99 0 l 1,41,-1
 99 952 l 1,42,-1
 280 952 l 1,43,-1
 302 836 l 1,44,-1
 312 836 l 1,45,46
 353 898 353 898 413.5 936.5 c 128,-1,47
 474 975 474 975 554 975 c 0,48,27
 671 975 671 975 738.5 901.5 c 128,-1,28
EndSplineSet
EndChar

StartChar: o
Encoding: 111 111 205
Width: 907
GlyphClass: 2
Flags: W
AnchorPoint: "Anchor-1" 0 0 basechar 0
AnchorPoint: "Anchor-0" 455 952 basechar 0
LayerCount: 2
Back
Fore
SplineSet
740.5 853 m 128,-1,1
 835 731 835 731 835 475 c 0,2,3
 835 220 835 220 740.5 98.5 c 128,-1,4
 646 -23 646 -23 454 -23 c 256,5,6
 262 -23 262 -23 167.5 98.5 c 128,-1,7
 73 220 73 220 73 475 c 0,8,9
 73 731 73 731 167.5 853 c 128,-1,10
 262 975 262 975 454 975 c 256,11,0
 646 975 646 975 740.5 853 c 128,-1,1
336 721.5 m 128,-1,13
 300 652 300 652 300 510 c 2,14,-1
 300 442 l 2,15,16
 300 300 300 300 335.5 231 c 128,-1,17
 371 162 371 162 454 162 c 0,18,19
 536 162 536 162 571.5 231 c 128,-1,20
 607 300 607 300 607 442 c 2,21,-1
 607 510 l 2,22,23
 607 652 607 652 571.5 721.5 c 128,-1,24
 536 791 536 791 454 791 c 256,25,12
 372 791 372 791 336 721.5 c 128,-1,13
EndSplineSet
Substitution2: "Single Substitution lookup 36 subtable" ordmasculine
Substitution2: "'aalt' Access All Alternates lookup 0 subtable" ordmasculine
EndChar

StartChar: oacute
Encoding: 243 243 206
Width: 907
GlyphClass: 2
Flags: W
LayerCount: 2
Back
Fore
SplineSet
329 1069 m 1,0,-1
 484 1309 l 1,1,-1
 701 1309 l 1,2,-1
 704 1303 l 1,3,-1
 507 1069 l 1,4,-1
 329 1069 l 1,0,-1
740.5 853 m 128,-1,6
 835 731 835 731 835 475 c 0,7,8
 835 220 835 220 740.5 98.5 c 128,-1,9
 646 -23 646 -23 454 -23 c 256,10,11
 262 -23 262 -23 167.5 98.5 c 128,-1,12
 73 220 73 220 73 475 c 0,13,14
 73 731 73 731 167.5 853 c 128,-1,15
 262 975 262 975 454 975 c 256,16,5
 646 975 646 975 740.5 853 c 128,-1,6
336 721.5 m 128,-1,18
 300 652 300 652 300 510 c 2,19,-1
 300 442 l 2,20,21
 300 300 300 300 335.5 231 c 128,-1,22
 371 162 371 162 454 162 c 0,23,24
 536 162 536 162 571.5 231 c 128,-1,25
 607 300 607 300 607 442 c 2,26,-1
 607 510 l 2,27,28
 607 652 607 652 571.5 721.5 c 128,-1,29
 536 791 536 791 454 791 c 256,30,17
 372 791 372 791 336 721.5 c 128,-1,18
EndSplineSet
EndChar

StartChar: obreve
Encoding: 335 335 207
Width: 907
GlyphClass: 2
Flags: W
LayerCount: 2
Back
Fore
SplineSet
663 1218 m 128,-1,1
 633 1173 633 1173 578 1144.5 c 128,-1,2
 523 1116 523 1116 452 1116 c 256,3,4
 381 1116 381 1116 326 1144.5 c 128,-1,5
 271 1173 271 1173 240.5 1218 c 128,-1,6
 210 1263 210 1263 210 1309 c 1,7,-1
 345 1309 l 1,8,9
 347 1296 347 1296 361.5 1282 c 128,-1,10
 376 1268 376 1268 400 1258.5 c 128,-1,11
 424 1249 424 1249 452 1249 c 0,12,13
 481 1249 481 1249 505 1258.5 c 128,-1,14
 529 1268 529 1268 543.5 1282 c 128,-1,15
 558 1296 558 1296 560 1309 c 1,16,-1
 693 1309 l 1,17,0
 693 1263 693 1263 663 1218 c 128,-1,1
740.5 853 m 128,-1,19
 835 731 835 731 835 475 c 0,20,21
 835 220 835 220 740.5 98.5 c 128,-1,22
 646 -23 646 -23 454 -23 c 256,23,24
 262 -23 262 -23 167.5 98.5 c 128,-1,25
 73 220 73 220 73 475 c 0,26,27
 73 731 73 731 167.5 853 c 128,-1,28
 262 975 262 975 454 975 c 256,29,18
 646 975 646 975 740.5 853 c 128,-1,19
336 721.5 m 128,-1,31
 300 652 300 652 300 510 c 2,32,-1
 300 442 l 2,33,34
 300 300 300 300 335.5 231 c 128,-1,35
 371 162 371 162 454 162 c 0,36,37
 536 162 536 162 571.5 231 c 128,-1,38
 607 300 607 300 607 442 c 2,39,-1
 607 510 l 2,40,41
 607 652 607 652 571.5 721.5 c 128,-1,42
 536 791 536 791 454 791 c 256,43,30
 372 791 372 791 336 721.5 c 128,-1,31
EndSplineSet
EndChar

StartChar: ocircumflex
Encoding: 244 244 208
Width: 907
GlyphClass: 2
Flags: W
LayerCount: 2
Back
Fore
SplineSet
372 1065 m 1,0,-1
 210 1065 l 1,1,-1
 366 1309 l 1,2,-1
 542 1309 l 1,3,-1
 695 1065 l 1,4,-1
 534 1065 l 1,5,-1
 454 1190 l 1,6,-1
 372 1065 l 1,0,-1
740.5 853 m 128,-1,8
 835 731 835 731 835 475 c 0,9,10
 835 220 835 220 740.5 98.5 c 128,-1,11
 646 -23 646 -23 454 -23 c 256,12,13
 262 -23 262 -23 167.5 98.5 c 128,-1,14
 73 220 73 220 73 475 c 0,15,16
 73 731 73 731 167.5 853 c 128,-1,17
 262 975 262 975 454 975 c 256,18,7
 646 975 646 975 740.5 853 c 128,-1,8
336 721.5 m 128,-1,20
 300 652 300 652 300 510 c 2,21,-1
 300 442 l 2,22,23
 300 300 300 300 335.5 231 c 128,-1,24
 371 162 371 162 454 162 c 0,25,26
 536 162 536 162 571.5 231 c 128,-1,27
 607 300 607 300 607 442 c 2,28,-1
 607 510 l 2,29,30
 607 652 607 652 571.5 721.5 c 128,-1,31
 536 791 536 791 454 791 c 256,32,19
 372 791 372 791 336 721.5 c 128,-1,20
EndSplineSet
EndChar

StartChar: odieresis
Encoding: 246 246 209
Width: 907
GlyphClass: 2
Flags: W
LayerCount: 2
Back
Fore
SplineSet
204 1309 m 1,0,-1
 384 1309 l 1,1,-1
 384 1112 l 1,2,-1
 204 1112 l 1,3,-1
 204 1309 l 1,0,-1
521 1309 m 1,4,-1
 701 1309 l 1,5,-1
 701 1112 l 1,6,-1
 521 1112 l 1,7,-1
 521 1309 l 1,4,-1
740.5 853 m 128,-1,9
 835 731 835 731 835 475 c 0,10,11
 835 220 835 220 740.5 98.5 c 128,-1,12
 646 -23 646 -23 454 -23 c 256,13,14
 262 -23 262 -23 167.5 98.5 c 128,-1,15
 73 220 73 220 73 475 c 0,16,17
 73 731 73 731 167.5 853 c 128,-1,18
 262 975 262 975 454 975 c 256,19,8
 646 975 646 975 740.5 853 c 128,-1,9
336 721.5 m 128,-1,21
 300 652 300 652 300 510 c 2,22,-1
 300 442 l 2,23,24
 300 300 300 300 335.5 231 c 128,-1,25
 371 162 371 162 454 162 c 0,26,27
 536 162 536 162 571.5 231 c 128,-1,28
 607 300 607 300 607 442 c 2,29,-1
 607 510 l 2,30,31
 607 652 607 652 571.5 721.5 c 128,-1,32
 536 791 536 791 454 791 c 256,33,20
 372 791 372 791 336 721.5 c 128,-1,21
EndSplineSet
EndChar

StartChar: ograve
Encoding: 242 242 210
Width: 907
GlyphClass: 2
Flags: W
LayerCount: 2
Back
Fore
SplineSet
202 1303 m 1,0,-1
 204 1309 l 1,1,-1
 421 1309 l 1,2,-1
 577 1069 l 1,3,-1
 396 1069 l 1,4,-1
 202 1303 l 1,0,-1
740.5 853 m 128,-1,6
 835 731 835 731 835 475 c 0,7,8
 835 220 835 220 740.5 98.5 c 128,-1,9
 646 -23 646 -23 454 -23 c 256,10,11
 262 -23 262 -23 167.5 98.5 c 128,-1,12
 73 220 73 220 73 475 c 0,13,14
 73 731 73 731 167.5 853 c 128,-1,15
 262 975 262 975 454 975 c 256,16,5
 646 975 646 975 740.5 853 c 128,-1,6
336 721.5 m 128,-1,18
 300 652 300 652 300 510 c 2,19,-1
 300 442 l 2,20,21
 300 300 300 300 335.5 231 c 128,-1,22
 371 162 371 162 454 162 c 0,23,24
 536 162 536 162 571.5 231 c 128,-1,25
 607 300 607 300 607 442 c 2,26,-1
 607 510 l 2,27,28
 607 652 607 652 571.5 721.5 c 128,-1,29
 536 791 536 791 454 791 c 256,30,17
 372 791 372 791 336 721.5 c 128,-1,18
EndSplineSet
EndChar

StartChar: ohungarumlaut
Encoding: 337 337 211
Width: 907
GlyphClass: 2
Flags: W
LayerCount: 2
Back
Fore
SplineSet
361 1309 m 1,0,-1
 542 1309 l 1,1,-1
 544 1303 l 1,2,-1
 392 1069 l 1,3,-1
 249 1069 l 1,4,-1
 361 1309 l 1,0,-1
615 1309 m 1,5,-1
 796 1309 l 1,6,-1
 798 1303 l 1,7,-1
 646 1069 l 1,8,-1
 503 1069 l 1,9,-1
 615 1309 l 1,5,-1
740.5 853 m 128,-1,11
 835 731 835 731 835 475 c 0,12,13
 835 220 835 220 740.5 98.5 c 128,-1,14
 646 -23 646 -23 454 -23 c 256,15,16
 262 -23 262 -23 167.5 98.5 c 128,-1,17
 73 220 73 220 73 475 c 0,18,19
 73 731 73 731 167.5 853 c 128,-1,20
 262 975 262 975 454 975 c 256,21,10
 646 975 646 975 740.5 853 c 128,-1,11
336 721.5 m 128,-1,23
 300 652 300 652 300 510 c 2,24,-1
 300 442 l 2,25,26
 300 300 300 300 335.5 231 c 128,-1,27
 371 162 371 162 454 162 c 0,28,29
 536 162 536 162 571.5 231 c 128,-1,30
 607 300 607 300 607 442 c 2,31,-1
 607 510 l 2,32,33
 607 652 607 652 571.5 721.5 c 128,-1,34
 536 791 536 791 454 791 c 256,35,22
 372 791 372 791 336 721.5 c 128,-1,23
EndSplineSet
EndChar

StartChar: omacron
Encoding: 333 333 212
Width: 907
GlyphClass: 2
Flags: W
LayerCount: 2
Back
Fore
SplineSet
683 1241 m 1,0,-1
 683 1085 l 1,1,-1
 222 1085 l 1,2,-1
 222 1241 l 1,3,-1
 683 1241 l 1,0,-1
740.5 853 m 128,-1,5
 835 731 835 731 835 475 c 0,6,7
 835 220 835 220 740.5 98.5 c 128,-1,8
 646 -23 646 -23 454 -23 c 256,9,10
 262 -23 262 -23 167.5 98.5 c 128,-1,11
 73 220 73 220 73 475 c 0,12,13
 73 731 73 731 167.5 853 c 128,-1,14
 262 975 262 975 454 975 c 256,15,4
 646 975 646 975 740.5 853 c 128,-1,5
336 721.5 m 128,-1,17
 300 652 300 652 300 510 c 2,18,-1
 300 442 l 2,19,20
 300 300 300 300 335.5 231 c 128,-1,21
 371 162 371 162 454 162 c 0,22,23
 536 162 536 162 571.5 231 c 128,-1,24
 607 300 607 300 607 442 c 2,25,-1
 607 510 l 2,26,27
 607 652 607 652 571.5 721.5 c 128,-1,28
 536 791 536 791 454 791 c 256,29,16
 372 791 372 791 336 721.5 c 128,-1,17
EndSplineSet
EndChar

StartChar: oslash
Encoding: 248 248 213
Width: 907
GlyphClass: 2
Flags: W
AnchorPoint: "Anchor-1" 0 0 basechar 0
AnchorPoint: "Anchor-0" 455 952 basechar 0
LayerCount: 2
Back
Fore
SplineSet
835 475 m 0,1,2
 835 220 835 220 740.5 98.5 c 128,-1,3
 646 -23 646 -23 454 -23 c 0,4,5
 354 -23 354 -23 269 16 c 1,6,-1
 228 -57 l 1,7,-1
 93 -57 l 1,8,-1
 175 90 l 1,9,10
 73 215 73 215 73 475 c 0,11,12
 73 731 73 731 167.5 853 c 128,-1,13
 262 975 262 975 454 975 c 0,14,15
 558 975 558 975 634 936 c 1,16,-1
 675 1010 l 1,17,-1
 810 1010 l 1,18,-1
 730 864 l 1,19,0
 835 741 835 741 835 475 c 0,1,2
336 721.5 m 128,-1,21
 300 652 300 652 300 510 c 2,22,-1
 300 442 l 2,23,24
 300 398 300 398 304 332 c 1,25,-1
 538 762 l 1,26,27
 504 791 504 791 454 791 c 0,28,20
 372 791 372 791 336 721.5 c 128,-1,21
454 162 m 0,30,31
 536 162 536 162 571.5 231 c 128,-1,32
 607 300 607 300 607 442 c 2,33,-1
 607 510 l 2,34,35
 607 555 607 555 599 625 c 1,36,-1
 366 193 l 1,37,29
 398 162 398 162 454 162 c 0,30,31
EndSplineSet
EndChar

StartChar: oslashacute
Encoding: 511 511 214
Width: 907
GlyphClass: 2
Flags: W
LayerCount: 2
Back
Fore
SplineSet
329 1069 m 1,0,-1
 484 1309 l 1,1,-1
 701 1309 l 1,2,-1
 704 1303 l 1,3,-1
 507 1069 l 1,4,-1
 329 1069 l 1,0,-1
835 475 m 0,6,7
 835 220 835 220 740.5 98.5 c 128,-1,8
 646 -23 646 -23 454 -23 c 0,9,10
 354 -23 354 -23 269 16 c 1,11,-1
 228 -57 l 1,12,-1
 93 -57 l 1,13,-1
 175 90 l 1,14,15
 73 215 73 215 73 475 c 0,16,17
 73 731 73 731 167.5 853 c 128,-1,18
 262 975 262 975 454 975 c 0,19,20
 558 975 558 975 634 936 c 1,21,-1
 675 1010 l 1,22,-1
 810 1010 l 1,23,-1
 730 864 l 1,24,5
 835 741 835 741 835 475 c 0,6,7
336 721.5 m 128,-1,26
 300 652 300 652 300 510 c 2,27,-1
 300 442 l 2,28,29
 300 398 300 398 304 332 c 1,30,-1
 538 762 l 1,31,32
 504 791 504 791 454 791 c 0,33,25
 372 791 372 791 336 721.5 c 128,-1,26
454 162 m 0,35,36
 536 162 536 162 571.5 231 c 128,-1,37
 607 300 607 300 607 442 c 2,38,-1
 607 510 l 2,39,40
 607 555 607 555 599 625 c 1,41,-1
 366 193 l 1,42,34
 398 162 398 162 454 162 c 0,35,36
EndSplineSet
EndChar

StartChar: otilde
Encoding: 245 245 215
Width: 907
GlyphClass: 2
Flags: W
LayerCount: 2
Back
Fore
SplineSet
738.5 1204.5 m 128,-1,1
 720 1154 720 1154 680 1120.5 c 128,-1,2
 640 1087 640 1087 579 1087 c 0,3,4
 549 1087 549 1087 522.5 1095.5 c 128,-1,5
 496 1104 496 1104 455 1122 c 0,6,7
 419 1138 419 1138 392.5 1146.5 c 128,-1,8
 366 1155 366 1155 339 1155 c 0,9,10
 277 1155 277 1155 269 1087 c 1,11,-1
 149 1087 l 1,12,13
 149 1141 149 1141 168 1192 c 128,-1,14
 187 1243 187 1243 227 1276 c 128,-1,15
 267 1309 267 1309 327 1309 c 0,16,17
 357 1309 357 1309 383.5 1300.5 c 128,-1,18
 410 1292 410 1292 452 1274 c 0,19,20
 488 1258 488 1258 514.5 1249.5 c 128,-1,21
 541 1241 541 1241 568 1241 c 0,22,23
 598 1241 598 1241 616 1256.5 c 128,-1,24
 634 1272 634 1272 638 1309 c 1,25,-1
 757 1309 l 1,26,0
 757 1255 757 1255 738.5 1204.5 c 128,-1,1
740.5 853 m 128,-1,28
 835 731 835 731 835 475 c 0,29,30
 835 220 835 220 740.5 98.5 c 128,-1,31
 646 -23 646 -23 454 -23 c 256,32,33
 262 -23 262 -23 167.5 98.5 c 128,-1,34
 73 220 73 220 73 475 c 0,35,36
 73 731 73 731 167.5 853 c 128,-1,37
 262 975 262 975 454 975 c 256,38,27
 646 975 646 975 740.5 853 c 128,-1,28
336 721.5 m 128,-1,40
 300 652 300 652 300 510 c 2,41,-1
 300 442 l 2,42,43
 300 300 300 300 335.5 231 c 128,-1,44
 371 162 371 162 454 162 c 0,45,46
 536 162 536 162 571.5 231 c 128,-1,47
 607 300 607 300 607 442 c 2,48,-1
 607 510 l 2,49,50
 607 652 607 652 571.5 721.5 c 128,-1,51
 536 791 536 791 454 791 c 256,52,39
 372 791 372 791 336 721.5 c 128,-1,40
EndSplineSet
EndChar

